<svg width="58" height="58" viewBox="0 0 58 58" fill="none" xmlns="http://www.w3.org/2000/svg">
<path d="M57.2527 45.9749L33.4621 6.51994C32.5248 4.96561 30.815 4 28.9999 4C27.1848 4 25.4751 4.96561 24.5377 6.52005L0.74714 45.9749C-0.221528 47.5814 -0.250188 49.5942 0.672261 51.2277C1.59494 52.8613 3.33335 53.876 5.20929 53.876H52.7906C54.6665 53.876 56.405 52.8613 57.3277 51.2276C58.2502 49.594 58.2215 47.5812 57.2527 45.9749ZM54.0396 49.3708C53.9145 49.5919 53.7329 49.7759 53.5135 49.904C53.2941 50.0321 53.0446 50.0997 52.7906 50.0999H5.20929C4.95525 50.0997 4.7058 50.0321 4.4864 49.9041C4.267 49.776 4.08548 49.592 3.96036 49.3709C3.83563 49.1496 3.77181 48.8992 3.77541 48.6452C3.77901 48.3911 3.84991 48.1426 3.98087 47.9249L27.7716 8.46996C27.8998 8.25881 28.0801 8.08413 28.2952 7.96265C28.5103 7.84118 28.753 7.77699 29 7.77623C29.4996 7.77623 29.9703 8.0421 30.2284 8.46996L54.0189 47.9249C54.1499 48.1426 54.2209 48.3911 54.2245 48.6451C54.2282 48.8991 54.1644 49.1495 54.0396 49.3708Z" fill="#FF2929"/>
<path d="M29.0174 19.5364C27.581 19.5364 26.46 20.3071 26.46 21.6735C26.46 25.8425 26.9504 31.8333 26.9504 36.0024C26.9505 37.0884 27.8965 37.5438 29.0175 37.5438C29.8583 37.5438 31.0495 37.0884 31.0495 36.0024C31.0495 31.8334 31.5399 25.8426 31.5399 21.6735C31.5399 20.3073 30.3838 19.5364 29.0174 19.5364ZM29.0527 39.9611C27.5112 39.9611 26.355 41.1873 26.355 42.6588C26.355 44.0952 27.5111 45.3565 29.0527 45.3565C30.4891 45.3565 31.7153 44.0952 31.7153 42.6588C31.7153 41.1873 30.489 39.9611 29.0527 39.9611Z" fill="#FF2929"/>
</svg>
