<svg width="53" height="52" viewBox="0 0 53 52" fill="none" xmlns="http://www.w3.org/2000/svg">
    <path fill-rule="evenodd" clip-rule="evenodd"
        d="M13.3639 0C9.93822 0 6.65281 1.36086 4.23047 3.7832C1.80812 6.20555 0.447266 9.49095 0.447266 12.9167V38.75C0.447266 42.1757 1.80812 45.4611 4.23047 47.8835C6.65281 50.3058 9.93822 51.6667 13.3639 51.6667H39.1973C42.623 51.6667 45.9084 50.3058 48.3307 47.8835C50.7531 45.4611 52.1139 42.1757 52.1139 38.75V12.9167C52.1139 9.49095 50.7531 6.20555 48.3307 3.7832C45.9084 1.36086 42.623 0 39.1973 0H13.3639ZM38.2673 16.0993C38.7933 16.5379 39.1236 17.1675 39.1856 17.8495C39.2476 18.5316 39.0362 19.2104 38.5979 19.7367L25.6813 35.2367C25.4582 35.5042 25.1832 35.7238 24.8731 35.8823C24.5629 36.0409 24.2239 36.135 23.8764 36.1592C23.5289 36.1833 23.1801 36.1369 22.851 36.0228C22.5218 35.9086 22.2192 35.7291 21.9613 35.495L14.2113 28.4503C13.7137 27.9871 13.4188 27.3464 13.3904 26.6673C13.362 25.9881 13.6025 25.3251 14.0597 24.822C14.5169 24.3189 15.1539 24.0163 15.8327 23.9798C16.5115 23.9433 17.1773 24.1758 17.6859 24.6269L23.4389 29.8582L34.6299 16.43C35.0685 15.904 35.6981 15.5737 36.3801 15.5117C37.0622 15.4497 37.741 15.661 38.2673 16.0993Z" />
</svg>