<svg width="79" height="44" viewBox="0 0 79 44"  xmlns="http://www.w3.org/2000/svg">
<path d="M35.2235 23.768L28.6316 30.36C28.2682 30.7233 27.7921 30.905 27.3159 30.905C26.8398 30.905 26.3636 30.7233 26.0003 30.36C25.2738 29.6334 25.2738 28.4554 26.0003 27.7288L29.4162 24.313H7.86053C6.83299 24.313 6 23.48 6 22.4525C6 21.4249 6.83299 20.5919 7.86053 20.5919H29.4162L26.0003 17.1761C25.2738 16.4495 25.2738 15.2715 26.0003 14.5449C26.727 13.8184 27.9049 13.8184 28.6316 14.5449L35.2235 21.1369C35.9501 21.8634 35.9501 23.0415 35.2235 23.768Z" />
<path d="M43.545 23.768L50.137 30.36C50.5003 30.7233 50.9764 30.905 51.4526 30.905C51.9288 30.905 52.4049 30.7233 52.7682 30.36C53.4948 29.6334 53.4948 28.4554 52.7682 27.7288L49.3524 24.313H70.908C71.9356 24.313 72.7686 23.48 72.7686 22.4525C72.7686 21.4249 71.9356 20.5919 70.908 20.5919H49.3524L52.7682 17.1761C53.4948 16.4495 53.4948 15.2715 52.7682 14.5449C52.0416 13.8184 50.8636 13.8184 50.137 14.5449L43.545 21.1369C42.8185 21.8634 42.8185 23.0415 43.545 23.768Z" />
<path d="M70.6448 3.98642C79.0428 18.0041 79.1937 26.303 70.6448 42M7.61909 2C0.130168 18.4869 0.123764 26.3302 7.61909 40.0136"  stroke-width="4" stroke-linecap="round"/>
</svg>
