<svg width="130" height="130" viewBox="0 0 130 130" fill="none" xmlns="http://www.w3.org/2000/svg">
<g clip-path="url(#clip0_7_1826)">
<path d="M116.619 78.3811C116.619 106.889 93.5082 130 65 130C36.4918 130 13.3811 106.889 13.3811 78.3811C13.3811 58.2471 39.1282 23.6773 54.2543 5.10518C59.7982 -1.70173 70.2015 -1.70173 75.7454 5.10518C90.8718 23.6773 116.619 58.2471 116.619 78.3811Z" fill="url(#paint0_linear_7_1826)"/>
<path d="M13.3811 78.381C13.3811 106.889 36.4918 130 65 130C93.5082 130 116.619 106.889 116.619 78.381C116.619 76.1022 116.286 73.637 115.679 71.0327H14.3206C13.7137 73.637 13.3811 76.1022 13.3811 78.381Z" fill="url(#paint1_linear_7_1826)"/>
<path d="M65 116.745C83.3012 116.745 98.1372 101.909 98.1372 83.608C98.1372 65.3068 83.3012 50.4707 65 50.4707C46.6988 50.4707 31.8627 65.3068 31.8627 83.608C31.8627 101.909 46.6988 116.745 65 116.745Z" fill="url(#paint2_linear_7_1826)"/>
<path d="M72.0521 115.991C84.6721 113.255 94.6112 103.332 97.3695 90.7203L83.0565 76.4073L82.6543 76.8095L73.0557 67.2109L48.6032 91.6634L58.0014 101.062L57.5625 101.501L72.0521 115.991Z" fill="url(#paint3_linear_7_1826)"/>
<path d="M81.3971 75.5521H75.2697C74.6825 75.5521 74.1194 75.3188 73.7042 74.9036C73.2889 74.4884 73.0557 73.9252 73.0557 73.338V67.2107C73.0557 66.6235 72.8224 66.0603 72.4072 65.6451C71.992 65.2298 71.4288 64.9966 70.8416 64.9966H59.1587C58.5715 64.9966 58.0083 65.2298 57.5931 65.6451C57.1779 66.0603 56.9446 66.6235 56.9446 67.2107V73.338C56.9446 73.9252 56.7113 74.4884 56.2961 74.9036C55.8809 75.3188 55.3177 75.5521 54.7305 75.5521H48.6032C48.016 75.5521 47.4528 75.7853 47.0376 76.2006C46.6224 76.6158 46.3891 77.1789 46.3891 77.7662V89.4491C46.3891 90.0363 46.6224 90.5994 47.0376 91.0147C47.4528 91.4299 48.016 91.6631 48.6032 91.6631H54.7305C55.3177 91.6631 55.8809 91.8964 56.2961 92.3116C56.7113 92.7269 56.9446 93.29 56.9446 93.8772V100.005C56.9446 100.592 57.1779 101.155 57.5931 101.57C58.0083 101.985 58.5715 102.219 59.1587 102.219H70.8416C71.4288 102.219 71.992 101.985 72.4072 101.57C72.8224 101.155 73.0557 100.592 73.0557 100.005V93.8772C73.0557 93.29 73.2889 92.7269 73.7042 92.3116C74.1194 91.8964 74.6825 91.6631 75.2697 91.6631H81.3971C81.9843 91.6631 82.5475 91.4299 82.9627 91.0147C83.3779 90.5994 83.6112 90.0363 83.6112 89.4491V77.7662C83.6112 77.1789 83.3779 76.6158 82.9627 76.2006C82.5475 75.7853 81.9843 75.5521 81.3971 75.5521Z" fill="url(#paint4_linear_7_1826)"/>
</g>
<defs>
<linearGradient id="paint0_linear_7_1826" x1="39.934" y1="47.7523" x2="88.0289" y2="95.8472" gradientUnits="userSpaceOnUse">
<stop stop-color="#FD3581"/>
<stop offset="1" stop-color="#972437"/>
</linearGradient>
<linearGradient id="paint1_linear_7_1826" x1="65" y1="83.4378" x2="65" y2="127.914" gradientUnits="userSpaceOnUse">
<stop stop-color="#972437" stop-opacity="0"/>
<stop offset="1" stop-color="#42210B"/>
</linearGradient>
<linearGradient id="paint2_linear_7_1826" x1="50.0479" y1="68.6559" x2="78.7367" y2="97.3446" gradientUnits="userSpaceOnUse">
<stop stop-color="#EAF6FF"/>
<stop offset="1" stop-color="#B3DAFE"/>
</linearGradient>
<linearGradient id="paint3_linear_7_1826" x1="98.9262" y1="117.571" x2="69.5865" y2="88.2312" gradientUnits="userSpaceOnUse">
<stop stop-color="#D8ECFE" stop-opacity="0"/>
<stop offset="0.787" stop-color="#9BD1FE" stop-opacity="0.787"/>
<stop offset="1" stop-color="#8AC9FE"/>
</linearGradient>
<linearGradient id="paint4_linear_7_1826" x1="56.6308" y1="75.2385" x2="75.7551" y2="94.3628" gradientUnits="userSpaceOnUse">
<stop stop-color="#FD3581"/>
<stop offset="1" stop-color="#972437"/>
</linearGradient>
<clipPath id="clip0_7_1826">
<rect width="130" height="130" fill="white"/>
</clipPath>
</defs>
</svg>
