<svg width="90" height="94" viewBox="0 0 90 94" fill="none" xmlns="http://www.w3.org/2000/svg">
<path d="M62.0234 25.8631C62.2863 25.3821 62.3505 24.8174 62.2025 24.2896C62.0545 23.7619 61.7059 23.313 61.2313 23.0389C60.7566 22.7647 60.1936 22.6871 59.6625 22.8226C59.1314 22.9581 58.6744 23.296 58.3891 23.764L42.1041 51.9712C41.8413 52.4521 41.777 53.0168 41.925 53.5446C42.073 54.0723 42.4216 54.5212 42.8962 54.7954C43.3709 55.0695 43.9339 55.1471 44.465 55.0116C44.9961 54.8761 45.4531 54.5382 45.7384 54.0702L62.0234 25.8631ZM22.0134 38.9106C21.7506 39.3916 21.6863 39.9563 21.8343 40.484C21.9824 41.0118 22.331 41.4607 22.8056 41.7348C23.2802 42.0089 23.8432 42.0866 24.3743 41.9511C24.9054 41.8155 25.3625 41.4777 25.6477 41.0097L41.2996 13.8976C41.5562 13.417 41.616 12.8555 41.4662 12.3317C41.3165 11.8079 40.9689 11.3629 40.497 11.0906C40.0252 10.8184 39.4659 10.7402 38.9375 10.8727C38.4091 11.0052 37.9529 11.338 37.6653 11.8007L22.0134 38.9106Z" fill="#363DEF"/>
<path d="M71.6162 17.798L39.8803 -0.569728C39.4162 -0.838305 38.8223 -0.679843 38.5537 -0.215792L33.6042 8.33602C33.3356 8.80008 33.4941 9.39399 33.9582 9.66256L65.6941 28.0303C66.1582 28.2989 66.7521 28.1404 67.0206 27.6763L71.9702 19.1245C72.2387 18.6605 72.0803 18.0666 71.6162 17.798Z" fill="#363DEF"/>
<path d="M27.4692 34.3981L34.2651 38.323L32.6062 41.207L25.8103 37.2821L27.4692 34.3981ZM30.7327 28.7536L35.0154 31.2256L33.3457 34.1118L29.063 31.6398L30.7327 28.7536ZM33.9853 23.1135L40.7791 27.0362L39.1224 29.9202L32.3265 25.9975L33.9853 23.1135Z" fill="#363DEF"/>
<path fill-rule="evenodd" clip-rule="evenodd" d="M26.7363 86.9807L45.7384 54.0681C43.0322 52.5068 40.9569 49.8483 38.2507 48.2848C35.5445 46.7235 32.2051 46.2573 29.4989 44.6939C26.7927 43.1304 24.7196 40.4719 22.0134 38.9106L2.38028 72.9162C-1.48823 79.6167 0.82767 88.2601 7.526 92.1286C14.2265 95.995 22.8699 93.6791 26.7384 86.9807H26.7363ZM81.8929 23.0116C77.1635 28.7037 74.982 33.3724 74.4334 37.0197C73.4403 43.64 77.8335 46.8905 82.1271 46.7691C86.2406 46.652 90.2631 43.4383 89.3697 37.1325C88.8493 33.4678 86.6721 28.7623 81.8929 23.0116Z" fill="#363DEF"/>
</svg>
