<svg width="43" height="97" viewBox="0 0 43 97" fill="none" xmlns="http://www.w3.org/2000/svg">
<path d="M28.2617 44.8456V36.789C28.2617 36.1272 27.9497 35.1485 25.7493 35.1485C23.5489 35.1485 23.2368 36.1272 23.2368 36.789V44.8456C23.2368 45.5075 23.6738 46.2635 25.7493 46.2635C27.8245 46.2635 28.2617 45.5077 28.2617 44.8456ZM20.1934 96.5542L19.5738 72.9554C16.6647 72.8483 14.9895 72.807 13.4366 72.4207C12.3608 72.1527 11.8308 71.387 11.8308 70.2038V36.3535C11.8308 35.5741 11.7606 35.1101 10.4991 35.1194C8.36174 35.1345 0 35.2386 0 35.2386L1.55047 32.6004C1.83858 32.1104 2.10231 31.7456 2.85277 31.7456C3.39048 31.7456 7.63032 32.263 10.5283 31.9841C12.0043 31.8426 12.661 31.6753 13.3234 30.6847C14.4958 28.9306 14.2608 24.701 12.1394 21.7641C11.6255 21.0528 12.1804 20.4229 13.0807 20.7129C15.0514 21.3474 18.3524 21.25 18.3524 21.25V4.68086C18.3524 4.11786 18.0125 3.78907 17.3245 3.78907H5.36932C5.36932 3.78907 7.00333 0.639404 9.36836 0.310817C11.9515 -0.0480824 17.4545 0.00243815 21.4996 0.00243815C25.5451 0.00243815 31.0477 -0.0480824 33.631 0.310817C35.9961 0.639404 37.6301 3.78866 37.6301 3.78866H25.6749C24.9869 3.78866 24.647 4.11765 24.647 4.68066V21.2502C24.647 21.2502 27.9478 21.3478 29.9187 20.7131C30.819 20.4231 31.3737 21.053 30.8602 21.7639C28.7388 24.7008 28.5037 28.9306 29.6766 30.6847C30.3386 31.6753 30.9953 31.8426 32.4717 31.9841C35.3691 32.263 39.6091 31.7456 40.1466 31.7456C40.8977 31.7456 41.1614 32.1104 41.4493 32.6004L43 35.239C43 35.239 34.6381 35.1354 32.5005 35.1198C31.2392 35.1105 31.1687 35.5745 31.1687 36.3537V70.2038C31.1687 71.387 30.639 72.1527 29.563 72.4207C28.0105 72.807 26.3353 72.8483 23.4262 72.9554L22.8064 96.5542C22.7966 96.9418 22.1927 97 21.5 97C20.8071 97 20.203 96.9418 20.1928 96.5542H20.1934ZM17.2509 46.2635C19.3262 46.2635 19.7634 45.5077 19.7634 44.8456V36.789C19.7634 36.1272 19.4511 35.1485 17.2509 35.1485C15.0503 35.1485 14.7385 36.1272 14.7385 36.789V44.8456C14.7385 45.5075 15.1755 46.2635 17.2509 46.2635Z" fill="#E03339"/>
</svg>
