<svg width="166" height="166" viewBox="0 0 166 166" fill="none" xmlns="http://www.w3.org/2000/svg">
<path d="M43.1201 55.7925C13.2965 97.4801 31.7757 124.988 47.1821 138.844C50.2699 141.606 53.7719 143.866 57.5604 145.542C85.9962 158.195 108.139 150.295 122.566 138.069C135.766 126.88 137.695 108.348 136.59 91.0792C135.66 76.5542 135.8 65.399 138.778 60.1683C127.73 62.0541 119.804 68.1396 117.221 74.3148C112.842 35.9174 97.686 18.738 47.1622 14.6959C60.6348 33.8955 72.5303 67.2515 51.953 74.3148C43.1201 77.346 42.3333 67.4657 43.1201 55.7892V55.7925Z" fill="url(#paint0_linear_50_2075)"/>
<path d="M53.9931 90.928C37.6488 115.828 51.201 133.685 61.156 142.75C64.2121 145.534 67.7197 147.83 71.5875 149.29C82.004 153.221 91.2203 152.419 98.7119 149.403C114.762 142.942 111.992 122.768 115.732 105.875C116.316 103.234 117.508 100.712 119.626 98.1822C111.102 98.1822 106.655 99.4787 103.32 103C104.988 83.3568 99.8805 69.8444 74.6634 56.6158C80.0369 72.7394 75.8935 103.742 67.9238 107.478C63.0816 109.752 55.8805 107.478 53.9931 90.928Z" fill="url(#paint1_linear_50_2075)"/>
<defs>
<linearGradient id="paint0_linear_50_2075" x1="27.2206" y1="14.6976" x2="161.594" y2="123.899" gradientUnits="userSpaceOnUse">
<stop stop-color="#FD7C42"/>
<stop offset="0.495" stop-color="#FF4F00"/>
<stop offset="1" stop-color="#C6450C"/>
</linearGradient>
<linearGradient id="paint1_linear_50_2075" x1="46.3737" y1="56.6158" x2="138.497" y2="127.398" gradientUnits="userSpaceOnUse">
<stop stop-color="#F2C72F"/>
<stop offset="0.552" stop-color="#FB9E14"/>
<stop offset="1" stop-color="#E4680D"/>
</linearGradient>
</defs>
</svg>
