<svg width="258" height="258" viewBox="0 0 258 258" fill="none" xmlns="http://www.w3.org/2000/svg">
<path fill-rule="evenodd" clip-rule="evenodd" d="M127.604 244.653C128.139 244.663 128.674 244.667 129.208 244.665C139.075 244.669 148.906 243.463 158.152 241.139C158.279 241.109 158.404 241.07 158.529 241.026C181.534 232.764 195.548 220.33 203.67 206.336C215.805 185.427 214.733 160.838 210.075 140.731C204.99 118.782 195.739 102.295 195.739 102.295C195.293 101.499 194.588 100.879 193.742 100.537C192.895 100.196 191.958 100.153 191.084 100.416C190.21 100.679 189.451 101.232 188.934 101.984C188.417 102.735 188.171 103.641 188.238 104.552C189.304 118.901 184.266 126.795 179.916 130.87C180.552 104.908 169.211 89.5086 157.303 77.5155C149.287 69.4424 140.935 63.1118 136.528 55.8011C132.519 49.149 132.211 41.9057 133.197 35.6232C134.743 25.7865 139.483 18.1697 139.483 18.1697C139.909 17.4903 140.122 16.6988 140.093 15.8975C140.064 15.0962 139.796 14.3219 139.323 13.6747C138.849 13.0274 138.193 12.537 137.438 12.2668C136.683 11.9965 135.864 11.9589 135.088 12.1587C111.531 18.1813 101.756 34.2832 97.0791 52.3663C94.1429 63.7163 93.2803 75.8539 92.0577 86.4762C90.6233 98.9257 87.3694 106.515 84.6181 110.905C78.2759 89.2718 56.7695 84.3101 56.7695 84.3101C56.0846 84.15 55.3696 84.1728 54.6964 84.3763C54.0231 84.5797 53.4151 84.9567 52.9335 85.4693C52.4519 85.9819 52.1136 86.6122 51.9525 87.2968C51.7914 87.9815 51.8132 88.6964 52.0157 89.37C57.6147 108.023 54.8634 115.467 51.1301 124.785C46.9751 135.153 41.7554 147.607 43.8348 176.713C47.1753 223.47 87.4407 244.105 127.604 244.653Z" fill="black"/>
<path fill-rule="evenodd" clip-rule="evenodd" d="M128.94 236.68C128.428 236.68 127.916 236.676 127.402 236.669C107.638 236.28 87.9796 226.53 86.3469 203.674C85.2706 188.611 87.9276 182.161 90.0783 176.795C91.9709 172.071 93.542 168.047 92.7026 161.129C95.1863 163.312 97.5237 166.708 97.9723 171.853C98.0608 172.852 98.5198 173.782 99.2591 174.459C99.9984 175.137 100.965 175.514 101.967 175.515H101.971C102.691 175.515 103.41 175.323 104.045 174.937C104.045 174.937 111.862 170.781 113.876 153.281C114.546 147.48 114.983 140.845 116.587 134.647C118.044 129.01 120.524 123.734 125.384 120.087C125.191 120.877 125.028 121.689 124.897 122.523C124.125 127.438 124.492 133.082 127.629 138.284C130.367 142.828 135.444 146.866 140.425 151.881C146.819 158.32 152.924 166.755 151.236 181.861C151.162 182.528 151.257 183.204 151.512 183.825C151.766 184.446 152.173 184.994 152.694 185.417C153.215 185.841 153.834 186.127 154.494 186.249C155.154 186.372 155.835 186.327 156.473 186.118C156.473 186.118 161.635 184.547 165.364 178.7C165.763 178.074 166.148 177.396 166.508 176.663C167.374 179.171 168.218 181.98 168.913 184.984C171.246 195.061 172.024 207.407 165.942 217.887C161.947 224.77 154.973 230.758 143.723 234.849L143.656 234.874C138.839 236.055 133.899 236.661 128.94 236.68Z" fill="#EEAC00"/>
<path fill-rule="evenodd" clip-rule="evenodd" d="M127.286 137.693C127.396 137.891 127.509 138.088 127.629 138.284C130.367 142.828 135.444 146.865 140.425 151.881C146.819 158.319 152.924 166.754 151.236 181.861C151.162 182.528 151.257 183.204 151.512 183.825C151.766 184.446 152.173 184.994 152.694 185.417C153.215 185.841 153.834 186.127 154.494 186.249C155.154 186.372 155.835 186.326 156.473 186.118C156.473 186.118 159.509 185.194 162.609 182.123C162.581 182.771 162.71 183.417 162.985 184.004C163.261 184.592 163.674 185.104 164.191 185.497C164.708 185.889 165.312 186.151 165.952 186.259C166.592 186.367 167.248 186.319 167.865 186.118C167.865 186.118 168.322 185.979 169.059 185.629C171.277 195.585 171.895 207.63 165.942 217.887C161.947 224.77 154.973 230.758 143.723 234.849L143.656 234.874C140.604 235.626 137.499 236.144 134.368 236.422C116.19 234.749 99.2508 224.82 97.7394 203.673C96.6631 188.611 99.322 182.161 101.471 176.795C101.644 176.362 101.815 175.937 101.981 175.515C102.709 175.513 103.422 175.314 104.045 174.937C104.045 174.937 106.486 173.638 108.993 169.435C109.165 170.195 109.292 171 109.365 171.853C109.453 172.852 109.913 173.782 110.652 174.46C111.392 175.138 112.359 175.514 113.362 175.515H113.364C114.084 175.515 114.802 175.322 115.437 174.937C115.437 174.937 123.254 170.78 125.27 153.281C125.829 148.421 126.227 142.976 127.286 137.693Z" fill="#FBBE21"/>
<path fill-rule="evenodd" clip-rule="evenodd" d="M168.578 227.956C182.044 220.992 191.034 212.128 196.731 202.31C207.782 183.268 206.502 160.849 202.26 142.541C200.247 133.848 197.545 126.06 195.088 119.953C194.018 124.256 192.397 127.76 190.583 130.602C184.707 139.815 176.62 142.343 176.62 142.343C175.982 142.552 175.302 142.598 174.641 142.475C173.981 142.353 173.362 142.067 172.841 141.643C172.32 141.22 171.913 140.672 171.659 140.05C171.405 139.429 171.31 138.753 171.385 138.086C174.475 110.418 163.32 94.9612 151.61 83.1683C143.086 74.5831 134.345 67.7172 129.659 59.9406C124.574 51.5055 124.021 42.3465 125.273 34.3793C125.939 30.1397 127.115 26.2543 128.342 23.0273C114.494 29.537 108.196 41.4185 104.846 54.3763C102.004 65.3605 101.211 77.113 100.027 87.3945C96.7231 116.088 84.2524 123.062 84.2524 123.062C83.6695 123.415 83.0063 123.613 82.3255 123.638C81.6447 123.663 80.9687 123.515 80.3613 123.206C79.7538 122.898 79.235 122.44 78.8536 121.875C78.4723 121.311 78.2411 120.658 78.1817 119.98C76.9341 105.691 68.1544 98.3787 61.7602 94.9131C65.2548 110.801 62.3012 118.472 58.5776 127.768C54.7076 137.425 49.8999 149.031 51.8368 176.141C53.6929 202.118 68.2757 218.917 87.7065 228.076C82.4907 221.961 79.0462 214.069 78.3454 204.245C77.1247 187.187 80.1976 179.889 82.6313 173.811C84.6452 168.786 86.1085 164.769 83.0876 154.707C82.884 154.034 82.8613 153.319 83.0219 152.634C83.1824 151.949 83.5205 151.318 84.0022 150.805C84.4838 150.292 85.092 149.915 85.7656 149.712C86.4392 149.509 87.1545 149.487 87.8394 149.648C87.8394 149.648 98.4482 152.079 103.483 162.116C104.49 159.698 105.433 156.485 105.907 152.362C106.616 146.22 107.122 139.202 108.82 132.639C111.641 121.734 117.573 112.059 131.778 108.427C132.555 108.228 133.373 108.267 134.127 108.537C134.881 108.808 135.537 109.298 136.01 109.945C136.484 110.592 136.752 111.366 136.781 112.167C136.81 112.968 136.599 113.759 136.174 114.438C136.174 114.438 133.648 118.512 132.822 123.769C132.316 126.997 132.439 130.725 134.499 134.143C136.958 138.222 141.646 141.725 146.119 146.228C152.364 152.518 158.339 160.389 159.39 172.773C160.464 170.461 161.179 167.296 160.861 163.015C160.795 162.106 161.041 161.201 161.559 160.45C162.076 159.699 162.834 159.146 163.707 158.884C164.58 158.621 165.517 158.663 166.363 159.004C167.209 159.345 167.913 159.964 168.36 160.759C168.36 160.759 173.763 170.374 176.728 183.174C179.479 195.05 180.047 209.565 172.879 221.915C171.636 224.058 170.196 226.08 168.578 227.956Z" fill="#E45809"/>
<path fill-rule="evenodd" clip-rule="evenodd" d="M124.968 36.6782C121.394 41.9884 119.059 48.0533 117.424 54.3763C114.582 65.3605 113.789 77.113 112.605 87.3945C109.299 116.088 96.8306 123.062 96.8306 123.062C96.2476 123.415 95.5842 123.614 94.9031 123.639C94.2221 123.665 93.5458 123.516 92.938 123.208C92.3303 122.899 91.8112 122.441 91.4298 121.876C91.0483 121.311 90.8171 120.658 90.7579 119.979C90.6671 118.916 90.5283 117.857 90.3421 116.806C87.0477 121.499 84.2521 123.062 84.2521 123.062C83.6691 123.415 83.006 123.613 82.3252 123.638C81.6444 123.663 80.9684 123.515 80.3609 123.206C79.7535 122.898 79.2346 122.44 78.8533 121.875C78.472 121.311 78.2407 120.658 78.1814 119.979C77.8541 116.24 77.0127 112.979 75.8324 110.139C75.4512 116.932 73.4488 122.042 71.1538 127.768C67.2857 137.425 62.4781 149.031 64.415 176.141C65.5336 191.809 71.2847 204.139 79.9354 213.466C79.0893 210.455 78.5564 207.365 78.3451 204.245C77.1244 187.187 80.1973 179.889 82.6309 173.811C84.6449 168.786 86.1082 164.769 83.0872 154.707C82.8836 154.034 82.861 153.319 83.0215 152.634C83.1821 151.949 83.5202 151.318 84.0019 150.805C84.4835 150.292 85.0917 149.915 85.7653 149.712C86.4389 149.509 87.1541 149.487 87.8391 149.648C87.8391 149.648 91.4819 150.483 95.5136 153.194C95.5653 152.623 95.7389 152.069 96.0226 151.571C96.3064 151.073 96.6936 150.641 97.1584 150.305C97.6231 149.969 98.1545 149.736 98.7167 149.623C99.2789 149.509 99.8589 149.518 100.418 149.648C100.418 149.648 102.861 150.208 105.959 151.9C106.64 145.87 107.164 139.037 108.82 132.639C111.641 121.734 117.573 112.058 131.778 108.427C132.291 108.296 132.826 108.268 133.35 108.344C133.874 108.42 134.378 108.6 134.833 108.872C135.287 109.145 135.683 109.504 135.998 109.931C136.313 110.357 136.54 110.841 136.667 111.356C138.917 110.156 141.465 109.167 144.356 108.427C145.133 108.229 145.95 108.268 146.704 108.538C147.458 108.809 148.114 109.3 148.587 109.946C149.06 110.593 149.328 111.367 149.357 112.167C149.386 112.968 149.175 113.759 148.75 114.438C148.75 114.438 146.226 118.512 145.4 123.769C144.892 126.997 145.017 130.725 147.077 134.143C149.536 138.222 154.224 141.725 158.695 146.228C163.608 151.174 168.352 157.099 170.665 165.43C171.314 166.857 172.047 168.57 172.8 170.517C173.372 168.512 173.663 166.042 173.439 163.015C173.373 162.106 173.619 161.201 174.137 160.45C174.654 159.699 175.412 159.146 176.285 158.883C177.158 158.621 178.095 158.663 178.941 159.004C179.787 159.345 180.491 159.964 180.939 160.759C180.939 160.759 186.341 170.374 189.306 183.174C191.363 192.048 192.198 202.397 189.499 212.213C192.247 209.172 194.671 205.854 196.73 202.31C207.782 183.268 206.502 160.849 202.26 142.541C201.639 139.867 200.942 137.212 200.169 134.578C194.872 140.569 189.198 142.343 189.198 142.343C188.56 142.552 187.88 142.598 187.219 142.475C186.559 142.353 185.94 142.067 185.419 141.643C184.898 141.22 184.491 140.672 184.237 140.05C183.983 139.429 183.889 138.753 183.963 138.086L183.967 138.059C179.995 141.288 176.62 142.343 176.62 142.343C175.982 142.552 175.301 142.598 174.641 142.475C173.98 142.353 173.361 142.067 172.84 141.643C172.319 141.22 171.913 140.672 171.659 140.05C171.404 139.429 171.31 138.753 171.385 138.086C174.475 110.418 163.319 94.9612 151.609 83.1683C143.086 74.583 134.345 67.7172 129.658 59.9406C125.057 52.3065 124.167 44.0794 124.968 36.6782Z" fill="#ED751E"/>
</svg>
