<svg width="100" height="100" viewBox="0 0 100 100" fill="none" xmlns="http://www.w3.org/2000/svg">
<g clip-path="url(#clip0_3_585)">
<path d="M87.2863 58.5486C86.1408 43.6348 79.1971 34.2889 73.0713 26.0416C67.399 18.4064 62.5 11.8131 62.5 2.0869C62.5 1.30565 62.0625 0.591589 61.3688 0.233581C60.6729 -0.126575 59.8367 -0.0675905 59.2041 0.392175C50.0041 6.97538 42.3279 18.0709 39.6465 28.6576C37.785 36.0281 37.5387 44.314 37.5041 49.7865C29.008 47.9719 27.0834 35.2633 27.0631 35.1248C27.0161 34.8002 26.8935 34.4911 26.7051 34.2225C26.5168 33.954 26.2679 33.7335 25.9787 33.5787C25.3867 33.2695 24.6908 33.2471 24.0906 33.5441C23.6451 33.7598 13.1551 39.0898 12.5447 60.3713C12.502 61.0793 12.5 61.7894 12.5 62.4994C12.5 83.1746 29.3232 99.9969 50 99.9969C50.0285 99.9988 50.059 100.003 50.0834 99.9969H50.1098C70.7357 99.9377 87.5 83.1381 87.5 62.4994C87.5 61.4598 87.2863 58.5486 87.2863 58.5486ZM50 95.8305C43.107 95.8305 37.5 89.8576 37.5 82.5156C37.5 82.2654 37.498 82.0131 37.5162 81.7039C37.5996 78.6076 38.1877 76.4939 38.8326 75.0881C40.0412 77.684 42.2018 80.0703 45.7113 80.0703C45.985 80.0705 46.2559 80.0167 46.5088 79.9121C46.7616 79.8075 46.9914 79.654 47.1848 79.4606C47.3783 79.2671 47.5318 79.0374 47.6364 78.7845C47.7411 78.5317 47.7949 78.2607 47.7947 77.9871C47.7947 75.0211 47.8559 71.5992 48.5943 68.5109C49.2516 65.7726 50.8221 62.8594 52.8119 60.524C53.6969 63.5553 55.4223 66.0086 57.1068 68.4031C59.5178 71.8289 62.01 75.3709 62.4475 81.4109C62.4738 81.7689 62.5004 82.1291 62.5004 82.5156C62.5 89.8574 56.893 95.8305 50 95.8305Z" fill="#FE7D06"/>
</g>
<defs>
<clipPath id="clip0_3_585">
<rect width="100" height="100" fill="white"/>
</clipPath>
</defs>
</svg>
