<svg width="112" height="108" viewBox="0 0 112 108" fill="none" xmlns="http://www.w3.org/2000/svg">
<path d="M88.1689 8H24.031C18.6662 8 14.3015 11.9428 14.3015 16.7891V99.2109C14.3015 104.057 18.6662 108 24.031 108H88.1689C93.5337 108 97.8984 104.057 97.8984 99.2109V16.7891C97.8984 11.9428 93.5335 8 88.1689 8ZM27.5105 25.2559C27.5105 23.9668 28.678 22.9121 30.105 22.9121H82.9628C84.3898 22.9121 85.5573 23.9668 85.5573 25.2559V34.1912C85.5575 35.4803 84.39 36.535 82.963 36.535H30.105C28.678 36.535 27.5105 35.4803 27.5105 34.1912V25.2559ZM59.1329 57.2959H53.0675C51.2762 57.2959 49.8243 55.9842 49.8243 54.3662V50.3852C49.8243 48.7672 51.2764 47.4555 53.0675 47.4555H59.1329C60.9239 47.4555 62.376 48.7672 62.376 50.3852V54.3662C62.376 55.9842 60.9239 57.2959 59.1329 57.2959ZM62.376 69.2566V73.2377C62.376 74.8557 60.9239 76.1674 59.1329 76.1674H53.0675C51.2764 76.1674 49.8243 74.8557 49.8243 73.2377V69.2566C49.8243 67.6385 51.2762 66.327 53.0675 66.327H59.1329C60.9239 66.327 62.376 67.6387 62.376 69.2566ZM39.1939 92.1092C39.1939 93.7271 37.7418 95.0389 35.9507 95.0389H29.8853C28.0943 95.0389 26.6422 93.7271 26.6422 92.1092V88.1281C26.6422 86.5102 28.0943 85.1984 29.8853 85.1984H35.9507C37.7418 85.1984 39.1939 86.51 39.1939 88.1281V92.1092ZM39.1939 73.2377C39.1939 74.8557 37.7418 76.1674 35.9507 76.1674H29.8853C28.0943 76.1674 26.6422 74.8557 26.6422 73.2377V69.2566C26.6422 67.6387 28.0943 66.327 29.8853 66.327H35.9507C37.7418 66.327 39.1939 67.6387 39.1939 69.2566V73.2377ZM39.1939 54.3662C39.1939 55.9842 37.7418 57.2959 35.9507 57.2959H29.8853C28.0943 57.2959 26.6422 55.9842 26.6422 54.3662V50.3852C26.6422 48.7672 28.0943 47.4555 29.8853 47.4555H35.9507C37.7418 47.4555 39.1939 48.7672 39.1939 50.3852V54.3662ZM85.5575 92.1092C85.5575 93.7271 84.1054 95.0389 82.3143 95.0389H53.0673C51.2762 95.0389 49.8241 93.7271 49.8241 92.1092V88.1281C49.8241 86.51 51.276 85.1984 53.0673 85.1984H82.3143C84.1054 85.1984 85.5575 86.5102 85.5575 88.1281V92.1092ZM85.5575 73.2377C85.5575 74.8557 84.1054 76.1674 82.3143 76.1674H76.249C74.4579 76.1674 73.0058 74.8557 73.0058 73.2377V69.2566C73.0058 67.6387 74.4579 66.327 76.249 66.327H82.3143C84.1054 66.327 85.5575 67.6387 85.5575 69.2566V73.2377ZM85.5575 54.3662C85.5575 55.9842 84.1054 57.2959 82.3143 57.2959H76.249C74.4579 57.2959 73.0058 55.9842 73.0058 54.3662V50.3852C73.0058 48.7672 74.4579 47.4555 76.249 47.4555H82.3143C84.1054 47.4555 85.5575 48.7672 85.5575 50.3852V54.3662Z" fill="#9ADADA"/>
</svg>
