<svg width="74" height="74" viewBox="0 0 74 74" fill="none" xmlns="http://www.w3.org/2000/svg">
<path d="M63.1747 10.8263C48.7379 -3.60746 25.2597 -3.60746 10.8229 10.8263C-3.60764 25.26 -3.60764 48.7443 10.8229 63.1781C18.0413 70.3934 27.5208 73.9994 37.0004 73.9994C46.48 73.9994 55.9563 70.3933 63.1747 63.1781C77.6084 48.7445 77.6084 25.26 63.1747 10.8263ZM52.2669 47.9084C53.473 49.1145 53.473 51.0641 52.2669 52.2702C51.9808 52.5571 51.6408 52.7846 51.2665 52.9397C50.8923 53.0948 50.491 53.1745 50.0859 53.1741C49.6807 53.1745 49.2795 53.0948 48.9052 52.9397C48.531 52.7846 48.191 52.5571 47.9049 52.2702L37.0003 41.3624L26.0986 52.2671C25.5201 52.8454 24.7357 53.1705 23.9177 53.1709C23.5125 53.1713 23.1113 53.0916 22.737 52.9365C22.3627 52.7814 22.0228 52.5539 21.7367 52.2671C20.5306 51.061 20.5306 49.1083 21.7367 47.9052L32.6383 37.0006L21.7336 26.0959C20.5275 24.8898 20.5275 22.9372 21.7336 21.7341C22.9367 20.528 24.8894 20.528 26.0955 21.7341L37.0001 32.6388L47.9048 21.7341C49.1109 20.528 51.0605 20.528 52.2666 21.7341C53.4727 22.9372 53.4727 24.8898 52.2666 26.0959L41.3619 37.0006L52.2669 47.9084Z" fill="#EA473B"/>
</svg>
