<svg width="90" height="90" viewBox="0 0 90 90" fill="none" xmlns="http://www.w3.org/2000/svg">
<path d="M48.3966 65.4973L61.702 52.1919V34.3248C61.702 30.3666 57.9746 26.8945 53.7251 26.8945H50.452V20.918H52.1903C55.01 20.918 57.4833 18.4936 57.4833 15.7298V5.52357C57.4833 2.91621 55.2197 0 52.1903 0H45.3278V15.6445H40.0544V0H33.577V15.6445H28.3036V0H21.4022V15.6445H16.1288V0H9.69029C6.66087 0 4.39734 2.91621 4.39734 5.52357V15.7298C4.39734 18.4936 6.87058 20.918 9.69029 20.918H11.077V26.8945H8.33132C4.21804 26.8945 0.00280762 30.2843 0.00280762 34.3248V82.2621C0.00280762 86.1673 4.12822 90 8.33132 90H48.9851L48.3966 89.4115C41.8036 82.8185 41.8036 72.0905 48.3966 65.4973ZM33.577 61.084V69.8947C33.577 71.3508 32.3965 72.5314 30.9403 72.5314C29.4841 72.5314 28.3036 71.3508 28.3036 69.8947V61.084H19.4929C18.0367 61.084 16.8562 59.9034 16.8562 58.4473C16.8562 56.9911 18.0367 55.8105 19.4929 55.8105H28.3036V46.9999C28.3036 45.5437 29.4841 44.3631 30.9403 44.3631C32.3965 44.3631 33.577 45.5437 33.577 46.9999V55.8105H42.3877C43.8439 55.8105 45.0244 56.9911 45.0244 58.4473C45.0244 59.9034 43.8439 61.084 42.3877 61.084H33.577ZM86.5944 53.0318L85.6853 52.1227C81.1355 47.5729 73.7518 47.6 69.2295 52.1221L62.7363 58.6155L80.1019 75.9809L86.5946 69.4883C91.1315 64.9512 91.1315 57.5689 86.5944 53.0318Z" fill="#21C0F2"/>
<path d="M52.1255 69.2264C47.5884 73.7634 47.5884 81.1457 52.1255 85.6828L53.0346 86.592C57.5715 91.1289 64.9538 91.129 69.4909 86.592L76.3727 79.7099L59.0073 62.3445L52.1255 69.2264Z" fill="#21C0F2"/>
</svg>
