<svg width="50" height="50" viewBox="0 0 50 50" fill="none" xmlns="http://www.w3.org/2000/svg">
<path d="M39.1013 42.3562H10.8964C9.17039 42.3568 7.51526 43.0427 6.2948 44.2632C5.07433 45.4836 4.38842 47.1388 4.38781 48.8648H45.6099C45.6101 48.01 45.4418 47.1636 45.1148 46.3739C44.7878 45.5841 44.3083 44.8666 43.7039 44.2622C43.0995 43.6578 42.382 43.1784 41.5922 42.8513C40.8025 42.5243 39.9561 42.356 39.1013 42.3562ZM25 11.9829C17.405 11.9829 11.9829 17.4061 11.9829 25.372V40.088H38.0171V25.372C38.0171 17.4061 32.5984 11.9829 25 11.9829ZM33.6826 28.3036C33.3819 28.3036 33.0934 28.1841 32.8807 27.9715C32.668 27.7588 32.5485 27.4703 32.5485 27.1695C32.5485 23.1004 30.5503 19.3658 27.8987 18.4835C27.7573 18.4364 27.6264 18.362 27.5137 18.2643C27.401 18.1667 27.3087 18.0478 27.2419 17.9145C27.1751 17.7812 27.1353 17.636 27.1246 17.4873C27.1139 17.3386 27.1327 17.1892 27.1797 17.0477C27.2268 16.9062 27.3013 16.7754 27.3989 16.6627C27.4965 16.55 27.6154 16.4576 27.7487 16.3909C27.882 16.3241 28.0272 16.2842 28.1759 16.2736C28.3246 16.2629 28.474 16.2816 28.6155 16.3287C32.2083 17.5274 34.8167 22.0865 34.8167 27.1695C34.8167 27.4703 34.6972 27.7588 34.4846 27.9715C34.2719 28.1841 33.9834 28.3036 33.6826 28.3036ZM7.64267 26.1341H1.1341C0.833315 26.1341 0.544853 26.0146 0.332169 25.8019C0.119485 25.5892 0 25.3008 0 25C0 24.6992 0.119485 24.4108 0.332169 24.1981C0.544853 23.9854 0.833315 23.8659 1.1341 23.8659H7.64267C7.94345 23.8659 8.23191 23.9854 8.4446 24.1981C8.65728 24.4108 8.77676 24.6992 8.77676 25C8.77676 25.3008 8.65728 25.5892 8.4446 25.8019C8.23191 26.0146 7.94345 26.1341 7.64267 26.1341ZM11.891 13.5797C11.742 13.5798 11.5945 13.5505 11.4569 13.4935C11.3193 13.4365 11.1944 13.3528 11.0892 13.2474L6.75014 8.90719C6.54355 8.69329 6.42924 8.40682 6.43183 8.10946C6.43441 7.81211 6.55368 7.52766 6.76395 7.31739C6.97422 7.10712 7.25867 6.98785 7.55602 6.98526C7.85338 6.98268 8.13985 7.09699 8.35375 7.30357L12.6928 11.6438C12.8514 11.8024 12.9593 12.0044 13.0031 12.2244C13.0468 12.4443 13.0243 12.6723 12.9385 12.8795C12.8527 13.0867 12.7074 13.2638 12.5209 13.3885C12.3345 13.5131 12.1153 13.5796 11.891 13.5797ZM25 8.77676C24.6992 8.77676 24.4108 8.65728 24.1981 8.4446C23.9854 8.23191 23.8659 7.94345 23.8659 7.64267V1.1341C23.8659 0.833315 23.9854 0.544853 24.1981 0.332169C24.4108 0.119485 24.6992 0 25 0C25.3008 0 25.5892 0.119485 25.8019 0.332169C26.0146 0.544853 26.1341 0.833315 26.1341 1.1341V7.64267C26.1341 7.94345 26.0146 8.23191 25.8019 8.4446C25.5892 8.65728 25.3008 8.77676 25 8.77676ZM38.354 13.3336C38.1297 13.3335 37.9105 13.267 37.724 13.1424C37.5376 13.0177 37.3923 12.8406 37.3064 12.6334C37.2206 12.4262 37.1982 12.1982 37.2419 11.9783C37.2856 11.7583 37.3936 11.5563 37.5522 11.3977L41.8912 7.05861C42.1066 6.85962 42.3906 6.7517 42.6838 6.75745C42.977 6.7632 43.2566 6.88217 43.464 7.08945C43.6714 7.29673 43.7906 7.57623 43.7966 7.8694C43.8025 8.16258 43.6948 8.44669 43.496 8.66222L39.1558 13.0013C39.0506 13.1067 38.9256 13.1904 38.788 13.2474C38.6504 13.3044 38.5029 13.3337 38.354 13.3336ZM48.8659 26.1341H42.3573C42.0565 26.1341 41.7681 26.0146 41.5554 25.8019C41.3427 25.5892 41.2232 25.3008 41.2232 25C41.2232 24.6992 41.3427 24.4108 41.5554 24.1981C41.7681 23.9854 42.0565 23.8659 42.3573 23.8659H48.8659C49.1667 23.8659 49.4551 23.9854 49.6678 24.1981C49.8805 24.4108 50 24.6992 50 25C50 25.3008 49.8805 25.5892 49.6678 25.8019C49.4551 26.0146 49.1667 26.1341 48.8659 26.1341Z" />
</svg>
