<?xml version="1.0" encoding="UTF-8"?>
<svg width="55" height="84" version="1.1" viewBox="0 0 1200 1200" xmlns="http://www.w3.org/2000/svg">
 <g fill-rule="evenodd">
  <path d="m1024.5 960.23 49.977 72.023c6.8633 9.875 8.5625 22.438 4.5859 33.773-24.176 67.949-76.988 103.91-157.89 108.68-13 0.76172-25.461-5.3008-32.887-16-11.086-15.914-29.438-42.301-51.664-74.289 0.44922-0.011718 0.88672-0.039062 1.3359-0.085937 83.664-8.4258 144.32-52.125 186.54-124.1z" fill="black"/>
  <path d="m179.07 953.15c44.148 66.023 106.06 107.69 184.99 125.91 0.47656 0.11328 0.96094 0.19922 1.4375 0.27344l-54.648 78.738c-7.75 11.176-20.949 17.289-34.488 15.949-71.113-7.2383-124.12-40.477-154.25-106.77-5.4141-11.949-4.1484-25.863 3.3242-36.648 11.227-16.25 30.148-43.574 53.637-77.449z" fill="black"/>
  <path d="m937.56 834.9c-42.824 66.887-103.94 110.26-186.05 126.64l-0.14844 0.023438 16.375 23.586 51.012 73.477c2.5391-6.2383 8.3516-10.887 15.5-11.613 73.727-7.4141 126.01-47.688 162.02-112.93 1.4375-2.6133 3.4141-4.75 5.7266-6.3516l-64.438-92.836z" fill="black"/>
  <path d="m265.64 828.29-21.75 31.363-43.125 62.199c2.6484 1.4375 4.9766 3.5508 6.7266 6.2617 38.887 60.301 94.176 98.051 165.02 114.41 5.375 1.25 9.6758 4.6992 12.164 9.1758l66.262-95.488c-86.449-20.148-147.05-63.938-185.3-127.93z" fill="black"/>
  <path d="m845.24 701.85c-38.836 60.836-96.738 104.65-181.41 124.43-2.0508 0.47656-4.1016 0.60156-6.0859 0.39844l34.289 49.414 39.801 57.324c2.625-4.3242 7-7.5859 12.352-8.6484 73.012-14.551 126.93-53.637 164.29-114.01 1.8984-3.0625 4.5508-5.3984 7.5625-6.8984l-70.789-102z" fill="black"/>
  <path d="m356.09 697.9-69.562 100.27c3.9492 1.4492 7.4258 4.2383 9.6992 8.1641 33.352 57.461 87.426 95.977 164.54 113.66 4.375 1 8.0508 3.4766 10.613 6.7734l72.789-104.9c-0.625-0.023438-1.2617-0.074219-1.8984-0.16406-85.176-11.824-147.82-52.375-186.18-123.81z" fill="black"/>
  <path d="m772.79 597.45 50.211 72.363c-2.2383 1.4766-4.1992 3.4766-5.6758 5.9258-33.852 56.074-85.512 96.148-162.02 114.01-6.9766 1.6367-12.125 6.9766-13.852 13.449l-11.363-16.363c-7-10.086-18.512-16.113-30.801-16.113-12.301 0-23.801 6.0234-30.812 16.113l-6.3125 9.1133c-2.4766-5.9375-7.9258-10.438-14.738-11.387-75.289-10.449-130.19-46.812-162.31-112.21-1.4766-3.0234-3.6758-5.4766-6.2734-7.2383l46.375-66.836 0.47656 0.33594c115.18 74.711 230.35 74.988 345.52-0.023437 0.55078-0.35156 1.0742-0.73828 1.5742-1.1367z" fill="black"/>
  <path d="m486.68 448.73c75.074 29.914 150.15 30.301 225.21 0.039063v37.461c0 15.289 4.6758 30.199 13.387 42.762l26.188 37.738-0.71094 0.4375c-101.39 66.039-202.77 65.863-304.16 0.30078l26.711-38.477c8.7109-12.562 13.375-27.477 13.375-42.762v-37.5z" fill="black"/>
  <path d="m711.89 309.18c-75.074 31.051-150.15 31.949-225.21 0.085938v100.44c2.4492-0.011719 4.9375 0.47656 7.3242 1.4883 70.164 29.762 140.32 30.199 210.48 0.039062 2.4258-1.0391 4.9375-1.5391 7.4141-1.5234v-100.52z" fill="black"/>
  <path d="m711.89 168.89c-75.062 24.289-150.12 25-225.21 0.050781v101.11c2.6016-0.011719 5.2383 0.52344 7.7617 1.6758 69.961 31.789 139.93 30.727 209.89-0.085937 2.4609-1.0859 5.0391-1.6016 7.5625-1.6016z" fill="black"/>
  <path d="m486.68 130.39v-67.648c0-9.9375 3.9492-19.488 10.988-26.512 7.0391-7.0391 16.574-10.988 26.512-10.988h150.21c9.9492 0 19.488 3.9492 26.512 10.988 7.0391 7.0234 10.988 16.574 10.988 26.512v67.648c-2-0.011719-4.0391 0.3125-6.0391 1-70.988 24.148-141.98 24.977-212.96 0.050781-2.0508-0.71094-4.1484-1.0625-6.2109-1.0508z" fill="black"/>
 </g>
</svg>
