<svg width="72" height="95" viewBox="0 0 72 95" fill="none" xmlns="http://www.w3.org/2000/svg">
<path d="M7.37224 0.917603C7.07233 0.951332 6.71107 1.00529 6.57475 1.05251C6.26802 1.15369 5.81134 1.6326 5.69547 1.97661C5.64094 2.15873 5.60004 2.97491 5.58641 4.56679C5.54551 7.61564 5.64775 8.50601 6.08399 8.97818C6.3839 9.2952 6.62928 9.35591 7.57672 9.35591H8.42874V11.2311V13.0995L7.74713 13.3289C4.03233 14.5767 1.25816 17.8077 0.590175 21.6795C0.406139 22.7452 0.406139 24.3034 0.590175 25.3826C1.08775 28.2426 2.73044 30.7721 5.15018 32.4179C5.73636 32.8159 6.8474 33.396 7.35861 33.5781L7.6108 33.6658V36.1683V38.664L8.23789 39.035C9.11035 39.5544 9.13762 39.6016 9.16488 40.6202L9.19215 41.4498L8.0334 41.4768C6.89511 41.497 6.88148 41.497 6.5543 41.6994C6.37708 41.8073 6.13852 42.0164 6.02264 42.1513C5.60686 42.6572 5.61367 42.6033 5.58641 49.045C5.55233 56.2826 5.58641 56.7615 6.12488 57.2135C6.54067 57.5575 6.74515 57.6047 7.99932 57.6384L9.16488 57.6654L9.2126 58.5153C9.27394 59.8104 9.36255 60.5254 9.47843 60.748C9.53977 60.8627 9.71699 61.0245 9.88058 61.119C10.31 61.3685 10.5486 61.6519 10.6167 61.9824C10.6508 62.1443 10.7053 64.9098 10.7462 68.1408C10.8757 79.3986 11.0666 82.2991 11.7891 84.0461C13.6908 88.6666 18.6666 92.3225 25.2987 93.9684C27.1936 94.4338 27.3504 94.4473 31.9785 94.4473C36.559 94.4473 36.8043 94.4338 38.447 94.0358C43.8113 92.734 46.865 90.9735 52.1543 86.1169C54.7444 83.7358 56.9052 81.4154 58.6705 79.1018C59.802 77.6246 60.1019 76.9906 59.8088 76.7005C59.7134 76.6061 59.6793 76.6061 59.5089 76.6938C59.209 76.8489 58.5615 77.5572 57.8458 78.4947C56.5984 80.1473 54.5672 82.4744 53.0745 83.9584C52.0725 84.9567 52.0384 84.9365 52.4542 83.7021C53.1017 81.7662 53.2176 80.1069 52.8359 78.2519C52.0316 74.3667 48.5554 70.3937 43.9613 68.1138C41.9982 67.1492 39.1695 66.2723 37.3633 66.0835C36.2522 65.9688 31.6991 65.9283 29.3543 66.0093C26.5052 66.1105 25.844 66.2049 23.7991 66.8322C19.6277 68.1138 16.1582 70.1509 14.0657 72.5454C13.3909 73.3211 13.1251 73.6719 12.4298 74.7444L11.905 75.5471V74.5758C11.905 72.8355 11.7687 67.4595 11.6664 64.8693C11.6119 63.4798 11.5642 62.1105 11.5642 61.8272V61.3078L12.164 61.2809C12.8933 61.2471 13.1591 61.119 13.3841 60.6873C13.609 60.2488 13.6772 59.7834 13.6772 58.657V57.6519H16.0833C20.2139 57.6519 20.6637 57.544 21.9315 56.3029C22.6404 55.6014 23.0289 55.0752 23.2266 54.5154C23.5674 53.5508 23.581 45.416 23.247 44.5594C22.8585 43.5813 21.8225 42.5291 20.7114 41.976C20.5069 41.8748 20.1116 41.7264 19.8253 41.6522C19.3346 41.5173 19.0892 41.5038 16.39 41.4768L13.4727 41.4498V40.6606C13.4727 39.7703 13.5408 39.4735 13.7726 39.4128C14.0793 39.3386 14.5565 38.8934 14.7473 38.5021L14.9382 38.1244L14.9586 35.858L14.9791 33.5916L15.3676 33.4365C16.5127 32.9845 17.8214 32.0942 18.8438 31.0756C19.7026 30.2257 20.3229 29.3691 20.8614 28.2763C22.9948 23.9999 22.1565 19.2445 18.653 15.7572C17.4942 14.6105 16.4241 13.9494 14.8223 13.3963L14.3724 13.2412L14.3315 12.6611C14.3111 12.3441 14.2702 11.4739 14.2497 10.7185L14.202 9.35591H14.9859C16.0219 9.35591 16.4445 9.24124 16.5808 8.91073C16.7649 8.48578 16.8262 7.21092 16.799 4.45212C16.7717 1.05251 16.799 1.13345 15.6539 0.991798C14.9654 0.904114 8.16291 0.843407 7.37224 0.917603ZM12.9547 17.9966C13.3977 18.0708 13.8612 18.1787 13.9771 18.2394C14.2497 18.3743 15.6811 19.7976 16.0424 20.2832C16.6831 21.1534 16.9421 21.9493 16.9966 23.2511C17.0716 24.9914 16.6626 26.1516 15.5652 27.3388C14.7473 28.2156 13.609 28.8497 12.3957 29.0925C11.5982 29.2612 10.2827 29.1937 9.51932 28.9509C8.44237 28.6069 7.71305 28.1549 6.97009 27.3522C5.88632 26.1988 5.36148 24.7621 5.45009 23.1837C5.50461 22.3135 5.63412 21.7604 5.97493 21.0522C6.66336 19.6357 7.89708 18.6037 9.51251 18.0978C10.5826 17.7605 11.421 17.7403 12.9547 17.9966ZM34.9844 66.8592C38.5493 67.1964 40.5464 67.7091 43.1706 68.957C45.3041 69.962 46.7218 70.9198 48.1055 72.2891C50.1026 74.2587 51.4931 76.687 51.8817 78.859C52.4201 81.9416 51.0774 85.3412 48.2623 87.9988C45.0791 91.0072 40.3283 92.9701 34.8072 93.5501C33.5599 93.6783 30.404 93.6581 29.1157 93.5097C24.2967 92.9566 20.4797 91.6008 17.3852 89.3411C16.4922 88.6936 14.9722 87.1961 14.3383 86.353C13.4659 85.1793 12.5525 83.3918 12.3685 82.4744C12.239 81.7999 12.2526 78.2722 12.3957 77.6516C12.5321 77.058 13.0296 75.9248 13.5068 75.1289C15.5993 71.6281 19.8594 68.876 25.2305 67.5674C26.7914 67.183 28.0047 66.9941 30.0359 66.8052C30.7993 66.731 34.0097 66.7715 34.9844 66.8592Z" fill="black"/>
<path d="M56.4553 0.98497C56.3531 1.09964 56.3326 1.56506 56.2781 6.19231C56.244 8.99158 56.2099 17.9156 56.2099 26.0301V40.7752L55.6783 41.2204C54.874 41.8814 54.6695 42.131 54.5809 42.556C54.5331 42.7583 54.465 43.905 54.4173 45.1057L54.3355 47.2979L49.4279 47.3383C46.6605 47.3653 44.343 47.4125 44.1113 47.453C43.1502 47.6082 42.7957 47.7835 42.564 48.222C42.414 48.4985 42.4072 48.5727 42.4072 50.0634C42.4072 51.8577 42.4345 51.9656 42.9866 52.2354C43.5114 52.4917 44.2135 52.5254 48.8962 52.5254H53.3471V62.2656V72.0125L53.8924 72.6465C54.6831 73.5706 54.574 73.5369 56.7893 73.5369C58.9432 73.5369 58.8137 73.5706 59.6384 72.7747L60.1633 72.2553V62.3937V52.5254H64.4779C69.74 52.5254 70.4079 52.4647 70.8237 51.9791C71.11 51.6486 71.1509 51.345 71.1236 49.7666C71.1032 48.3906 71.0964 48.2962 70.9464 48.0668C70.8578 47.9184 70.6738 47.7633 70.5034 47.6824C69.8967 47.3991 69.4946 47.3788 64.2053 47.3518L59.1409 47.3181V44.8493V42.3738L58.2207 41.5307L57.3005 40.6943V33.2003C57.2937 22.7856 57.1778 6.02367 57.096 3.95963C57.021 2.05746 56.9324 1.24129 56.7825 1.00521C56.6598 0.823082 56.6053 0.816338 56.4553 0.98497ZM56.9597 11.8853V14.0775H56.7211H56.4826V11.8853V9.69309H56.7211H56.9597V11.8853ZM56.9597 20.6541V22.8463H56.7211H56.4826V20.6541V18.4619H56.7211H56.9597V20.6541ZM56.9597 29.423V31.6152H56.7211H56.4826V29.423V27.2307H56.7211H56.9597V29.423ZM56.9597 38.1918V40.384H56.7211H56.4826V38.1918V35.9996H56.7211H56.9597V38.1918Z" fill="black"/>
</svg>
