<svg width="44" height="60" viewBox="0 0 44 60" fill="none" xmlns="http://www.w3.org/2000/svg">
<path d="M4.68755 3.14253C4.41538 3.41186 4.38514 3.6363 4.38514 5.28218C4.38514 7.46672 4.52122 7.78094 5.45868 7.78094H6.04837V8.88817V9.9954L5.06555 10.4443C3.75009 11.0577 2.69167 12.0752 2.07174 13.3021C1.61813 14.2448 1.58789 14.3645 1.58789 16.0104C1.58789 17.6862 1.60301 17.7759 2.10198 18.7635C2.69167 19.9006 3.82569 21.0228 4.91435 21.5465L5.59476 21.8757V23.357V24.8533L6.04837 25.1076C6.42638 25.3171 6.50198 25.4518 6.50198 25.9156V26.4842H5.77621C5.20164 26.4842 4.97483 26.559 4.71779 26.8283C4.40026 27.1725 4.38514 27.2772 4.38514 31.2423C4.38514 35.1176 4.40026 35.3271 4.68755 35.6114C4.91435 35.8358 5.18652 35.9106 5.74597 35.9106H6.48686L6.53222 36.8383C6.57758 37.6463 6.62294 37.7959 6.91023 37.9306C7.09167 38.0054 7.27311 38.1999 7.31847 38.3495C7.36384 38.5141 7.39408 40.4742 7.4092 42.7036C7.43944 47.8508 7.59064 50.2897 7.95353 51.1725C9.10267 54.0153 11.9906 56.14 16.0429 57.1126C16.9198 57.3221 17.7515 57.3819 19.8078 57.367C22.1968 57.367 22.6051 57.3221 23.9659 56.948C26.9446 56.14 28.7137 55.0178 32.2518 51.6213C33.779 50.155 35.8353 47.6413 35.8353 47.2223C35.8353 46.7136 35.4119 47.0278 34.5955 48.165C33.7336 49.3321 31.4656 51.8308 31.3597 51.7261C31.3144 51.6961 31.39 51.3969 31.5109 51.0827C32.3123 48.8233 31.7075 46.4592 29.7872 44.3944C28.3054 42.8084 26.491 41.746 24.1625 41.1176C23.0436 40.8034 22.5748 40.7735 19.8078 40.7735C17.1013 40.7884 16.557 40.8333 15.5439 41.1026C12.2628 42.0153 9.91916 43.5116 8.58858 45.5465L8.01401 46.4293V44.7086C8.01401 43.766 7.96865 41.8657 7.90817 40.5041L7.81744 38.0054H8.30129C8.86074 38.0054 9.07243 37.6163 9.07243 36.569V35.9106H10.8113C11.9453 35.9106 12.7315 35.8358 13.0491 35.7011C13.6387 35.4617 14.4704 34.564 14.6216 33.9954C14.7728 33.4717 14.7728 28.9231 14.6367 28.3994C14.4552 27.8009 13.7748 27.0677 13.0793 26.7685C12.6106 26.544 12.0965 26.4842 10.7054 26.4842H8.92122V25.8857C8.92122 25.5565 8.99683 25.2872 9.07243 25.2872C9.16315 25.2872 9.35971 25.1525 9.52603 24.9879C9.78308 24.7336 9.82844 24.4942 9.82844 23.2672V21.8458L10.6147 21.4567C13.17 20.1849 14.4855 17.0428 13.6387 14.2747C13.0793 12.4642 11.5673 10.7735 10.0552 10.2797L9.45043 10.0702L9.40507 8.93306L9.35971 7.78094H9.9494C10.2669 7.78094 10.5996 7.70612 10.7054 7.60139C10.8264 7.48169 10.8869 6.74852 10.8869 5.28218C10.8869 3.33705 10.8566 3.14253 10.5996 2.99291C10.4181 2.90313 9.19339 2.84328 7.65112 2.84328C5.18652 2.84328 4.95971 2.87321 4.68755 3.14253ZM10.282 5.31211V7.18243H7.636H4.98995V5.31211V3.44178H7.636H10.282V5.31211ZM8.77002 8.82832V9.8757H7.7116H6.65318V8.82832V7.78094H7.7116H8.77002V8.82832ZM10.1308 10.938C11.2346 11.4468 12.1721 12.4193 12.7618 13.6163C13.1851 14.4991 13.2305 14.7236 13.2305 16.0852C13.2305 17.4168 13.1851 17.6712 12.8071 18.4343C12.2477 19.5715 10.8717 20.8134 9.7226 21.2473C8.5281 21.6812 6.89511 21.6812 5.70061 21.2473C4.30954 20.7385 3.35696 19.8707 2.64631 18.4942C2.08686 17.4168 2.0415 17.2373 2.0415 16.1151C2.0415 15.337 2.14734 14.6188 2.31366 14.14C2.84287 12.6288 4.33978 11.1924 5.88205 10.6986C7.01607 10.3395 9.10267 10.4592 10.1308 10.938ZM9.19339 23.342L9.14803 24.6139L7.72672 24.6587C6.68342 24.6887 6.26006 24.6438 6.16933 24.5091C6.10885 24.4044 6.04837 23.8059 6.04837 23.1924V22.0702H7.636H9.23875L9.19339 23.342ZM8.46762 26.1849V27.0827H10.5089C12.8071 27.0827 13.2003 27.1874 13.79 28.0104C14.1226 28.4892 14.1377 28.6238 14.1377 31.1974C14.1377 33.771 14.1226 33.9056 13.79 34.3844C13.2305 35.1475 12.9583 35.2373 10.6601 35.3121L8.54322 35.3869L8.49786 36.4642L8.4525 37.5565H7.7872H7.12191L7.01607 36.5091L6.91023 35.4617H6.18445C5.64012 35.4617 5.36796 35.3869 5.14116 35.1625C4.85387 34.8782 4.83875 34.6687 4.83875 31.2572C4.83875 29.0727 4.89923 27.5465 4.98995 27.367C5.12603 27.1425 5.3226 27.0827 5.94253 27.0827C6.38102 27.0827 6.81951 27.0079 6.92535 26.9031C7.03119 26.7984 7.10679 26.3944 7.10679 26.0054V25.2872H7.7872H8.46762V26.1849ZM21.9247 41.3121C23.8298 41.5365 24.8731 41.8358 26.3851 42.5839C28.0181 43.3769 29.2429 44.4094 30.135 45.756C31.3295 47.5365 31.5865 49.1675 30.9363 50.9331C29.515 54.8084 24.0264 57.367 18.2656 56.8433C13.7144 56.4243 10.2064 54.4642 8.73978 51.5016C8.27105 50.5739 8.24081 50.3944 8.24081 49.0029C8.24081 47.5964 8.27105 47.4318 8.7549 46.4592C10.5542 42.8233 16.2243 40.6089 21.9247 41.3121Z" fill="#fff"/>
<path d="M6.30578 12.3293C4.49135 13.0026 3.34221 14.9927 3.76558 16.7134C4.29478 18.7932 5.67073 19.9004 7.71197 19.9004C9.34496 19.9004 10.5999 19.0924 11.3106 17.6111C12.1271 15.8904 11.4013 13.5862 9.73808 12.6286C8.89135 12.1348 7.22812 11.9852 6.30578 12.3293ZM9.10303 12.868C9.39032 12.8829 10.5092 14.05 10.7511 14.5887C11.1291 15.4116 11.1291 16.7582 10.736 17.4914C9.49616 19.9004 6.10922 20.0051 4.73327 17.7009C4.14358 16.6984 4.12846 15.3368 4.71815 14.3493C5.44393 13.1223 6.92571 12.4789 8.39238 12.7483C8.72503 12.8081 9.04255 12.853 9.10303 12.868Z" fill="#fff"/>
<path d="M7.45437 28.3393C6.92516 28.5937 6.63788 28.8181 6.5774 29.0575C6.53204 29.252 6.51692 30.3143 6.53204 31.4216L6.5774 33.4266L7.09149 33.7707C7.36365 33.9503 7.83238 34.1597 8.13479 34.2046C9.01176 34.3692 9.07224 34.1597 9.07224 31.1074C9.07224 28.8929 9.02688 28.4141 8.83032 28.2196C8.52791 27.9054 8.37671 27.9203 7.45437 28.3393ZM8.46743 31.1223C8.46743 32.7682 8.40695 33.666 8.31623 33.666C8.22551 33.666 7.9231 33.5612 7.6207 33.4415L7.09149 33.2321L7.13685 31.1672L7.18221 29.1024L7.71142 28.848C7.9987 28.7134 8.28599 28.5937 8.36159 28.5787C8.42207 28.5787 8.46743 29.7158 8.46743 31.1223Z" fill="#fff"/>
<path d="M33.8247 2.93314C33.7642 2.99299 33.7188 8.2299 33.7188 14.5591V26.0952L33.235 26.4992C32.736 26.9032 32.736 26.9182 32.6906 28.4144L32.6302 29.9257H29.47C25.7051 29.9257 25.7051 29.9257 25.7051 31.4369C25.7051 32.993 25.5539 32.9182 29.0315 32.9182H32.0556V38.589V44.2598L32.4487 44.7237C32.8267 45.1725 32.8872 45.1875 34.0212 45.1875C35.0796 45.1875 35.2308 45.1576 35.5937 44.7985L35.9869 44.3945V38.6638V32.9182H38.9202C42.4281 32.9182 42.3374 32.9481 42.3374 31.4219C42.3374 29.8808 42.4583 29.9257 38.6178 29.9257H35.382V28.4892V27.0379L34.8528 26.5441L34.3236 26.0503L34.2934 14.4992C34.248 3.33713 34.2178 2.54411 33.8247 2.93314ZM34.5958 26.9631C34.7168 27.0828 34.7772 27.6513 34.7772 28.5341V29.9257H34.0212H33.2652V28.6389C33.2652 27.9356 33.3408 27.2324 33.4164 27.0678C33.5979 26.7386 34.3085 26.6788 34.5958 26.9631ZM41.793 30.7785C41.8535 30.9132 41.8535 31.3172 41.793 31.6763L41.7023 32.3197H34.0061H26.3099V31.5267C26.3099 31.0778 26.3552 30.6738 26.4157 30.6289C26.4611 30.569 29.9236 30.5242 34.1119 30.5242C41.0673 30.5242 41.7023 30.5391 41.793 30.7785ZM35.4274 34.1451C35.4879 34.8334 35.5332 37.3321 35.5332 39.6962V44.0055L35.1552 44.3646C34.6714 44.8583 33.4315 44.9032 32.9628 44.4394C32.6755 44.1551 32.6604 43.9456 32.6604 38.5291V32.9182H34.0061H35.3367L35.4274 34.1451Z" fill="#fff"/>
</svg>
