<svg width="114" height="114" viewBox="0 0 114 114" fill="none" xmlns="http://www.w3.org/2000/svg">
<g clip-path="url(#clip0_3_570)">
<path d="M74.3043 18.1331H66.0773V9.08912C66.0782 7.89526 65.8437 6.71292 65.3873 5.60976C64.9309 4.50659 64.2614 3.50424 63.4172 2.66005C62.573 1.81586 61.5707 1.1464 60.4675 0.689959C59.3643 0.23352 58.182 -0.000937994 56.9881 -1.0174e-06C54.5785 0.00314101 52.2685 0.961752 50.5646 2.66561C48.8608 4.36947 47.9021 6.6795 47.899 9.08912V18.1331H39.672C37.7636 18.1341 35.874 18.511 34.1113 19.2424C32.3486 19.9738 30.7473 21.0453 29.3988 22.3958C28.0503 23.7463 26.9812 25.3492 26.2523 27.1129C25.5235 28.8767 25.1494 30.7668 25.1513 32.6753V69.1505C25.1513 80.3154 34.1953 89.3807 45.3577 89.3807H45.9325V93.9027C45.9325 96.0782 47.6971 97.8429 49.8702 97.8429H52.7963V101.712C52.7963 103.403 53.8033 104.849 55.2425 105.512V112.252C55.2425 112.716 55.4267 113.16 55.7545 113.488C56.0823 113.816 56.5269 114 56.9905 114C57.4541 114 57.8987 113.816 58.2265 113.488C58.5543 113.16 58.7385 112.716 58.7385 112.252V105.514C60.1801 104.849 61.1847 103.4 61.1847 101.712V97.8405H64.1131C66.2863 97.8405 68.0509 96.0782 68.0509 93.9027V89.3807H68.6185C79.781 89.3807 88.8488 80.3154 88.8488 69.1505V32.6753C88.85 30.765 88.4746 28.8732 87.7441 27.1082C87.0136 25.3431 85.9423 23.7394 84.5914 22.3888C83.2406 21.0381 81.6367 19.9671 79.8715 19.2368C78.1063 18.5066 76.2145 18.1316 74.3043 18.1331ZM56.9905 5.38412C57.4866 5.36633 57.9813 5.44868 58.4449 5.62626C58.9085 5.80385 59.3315 6.07302 59.6888 6.41771C60.0461 6.76241 60.3303 7.17556 60.5244 7.6325C60.7184 8.08944 60.8185 8.5808 60.8185 9.07725C60.8185 9.5737 60.7184 10.0651 60.5244 10.522C60.3303 10.9789 60.0461 11.3921 59.6888 11.7368C59.3315 12.0815 58.9085 12.3507 58.4449 12.5282C57.9813 12.7058 57.4866 12.7882 56.9905 12.7704C54.9599 12.7704 53.2831 11.1174 53.2831 9.06537C53.2831 7.0395 54.9623 5.38412 56.9905 5.38412ZM39.8335 76.3776H33.402C32.9384 76.3776 32.4938 76.1935 32.166 75.8657C31.8382 75.5378 31.654 75.0932 31.654 74.6296C31.654 74.166 31.8382 73.7214 32.166 73.3936C32.4938 73.0658 32.9384 72.8816 33.402 72.8816H39.8335C40.2971 72.8816 40.7417 73.0658 41.0695 73.3936C41.3973 73.7214 41.5815 74.166 41.5815 74.6296C41.5815 75.0932 41.3973 75.5378 41.0695 75.8657C40.7417 76.1935 40.2971 76.3776 39.8335 76.3776ZM31.654 66.8966C31.654 65.93 32.4378 65.1486 33.402 65.1486H37.6105C38.0741 65.1486 38.5187 65.3328 38.8465 65.6606C39.1743 65.9884 39.3585 66.433 39.3585 66.8966C39.3585 67.3602 39.1743 67.8048 38.8465 68.1326C38.5187 68.4605 38.0741 68.6446 37.6105 68.6446H33.402C32.9384 68.6446 32.4938 68.4605 32.166 68.1326C31.8382 67.8048 31.654 67.3602 31.654 66.8966ZM39.8335 60.9116H33.402C32.9381 60.9116 32.4932 60.7273 32.1651 60.3993C31.8371 60.0713 31.6528 59.6264 31.6528 59.1624C31.6528 58.6985 31.8371 58.2536 32.1651 57.9256C32.4932 57.5975 32.9381 57.4132 33.402 57.4132H39.8335C40.2971 57.4132 40.7417 57.5974 41.0695 57.9252C41.3973 58.253 41.5815 58.6977 41.5815 59.1613C41.5815 59.6248 41.3973 60.0695 41.0695 60.3973C40.7417 60.7251 40.2971 60.9116 39.8335 60.9116ZM31.654 51.4282C31.654 50.4616 32.4378 49.6802 33.402 49.6802H37.6105C38.0741 49.6802 38.5187 49.8644 38.8465 50.1922C39.1743 50.52 39.3585 50.9646 39.3585 51.4282C39.3585 51.8918 39.1743 52.3365 38.8465 52.6643C38.5187 52.9921 38.0741 53.1763 37.6105 53.1763H33.402C32.9384 53.1763 32.4938 52.9921 32.166 52.6643C31.8382 52.3365 31.654 51.8918 31.654 51.4282ZM39.8335 45.4433H33.402C32.9381 45.4433 32.4932 45.259 32.1651 44.9309C31.8371 44.6029 31.6528 44.158 31.6528 43.6941C31.6528 43.2301 31.8371 42.7852 32.1651 42.4572C32.4932 42.1292 32.9381 41.9449 33.402 41.9449H39.8335C40.2971 41.9449 40.7417 42.129 41.0695 42.4569C41.3973 42.7847 41.5815 43.2293 41.5815 43.6929C41.5815 44.1565 41.3973 44.6011 41.0695 44.9289C40.7417 45.2567 40.2971 45.4409 39.8335 45.4409V45.4433ZM31.654 35.9599C31.654 34.9956 32.4378 34.2119 33.402 34.2119H37.6105C38.0741 34.2119 38.5187 34.396 38.8465 34.7239C39.1743 35.0517 39.3585 35.4963 39.3585 35.9599C39.3585 36.4235 39.1743 36.8681 38.8465 37.1959C38.5187 37.5237 38.0741 37.7079 37.6105 37.7079H33.402C32.9384 37.7079 32.4938 37.5237 32.166 37.1959C31.8382 36.8681 31.654 36.4235 31.654 35.9599ZM39.8335 29.9749H33.402C32.9381 29.9749 32.4932 29.7906 32.1651 29.4625C31.8371 29.1345 31.6528 28.6896 31.6528 28.2257C31.6528 27.7618 31.8371 27.3169 32.1651 26.9888C32.4932 26.6608 32.9381 26.4765 33.402 26.4765H39.8335C40.2971 26.4765 40.7417 26.6607 41.0695 26.9885C41.3973 27.3163 41.5815 27.7609 41.5815 28.2245C41.5815 28.6881 41.3973 29.1327 41.0695 29.4605C40.7417 29.7883 40.2971 29.9725 39.8335 29.9725V29.9749ZM57.0119 68.1483C53.8662 68.1476 50.8495 66.8979 48.6249 64.6738C46.4004 62.4496 45.15 59.4332 45.1488 56.2875C45.1488 52.5825 48.9013 46.4764 52.1883 41.8617C52.7344 41.0946 53.4561 40.4691 54.2932 40.0376C55.1302 39.606 56.0583 39.3808 57 39.3808C57.9417 39.3808 58.8698 39.606 59.7068 40.0376C60.5439 40.4691 61.2656 41.0946 61.8117 41.8617C65.075 46.4764 68.8513 52.5825 68.8513 56.2875C68.8534 57.844 68.5489 59.3857 67.9549 60.8244C67.361 62.2632 66.4894 63.5708 65.3899 64.6725C64.2904 65.7742 62.9845 66.6484 61.547 67.2452C60.1094 67.842 58.5684 68.1473 57.0119 68.1483Z" fill="#7ACC28"/>
</g>
<defs>
<clipPath id="clip0_3_570">
<rect width="114" height="114" fill="white"/>
</clipPath>
</defs>
</svg>
