<svg width="274" height="274" viewBox="0 0 274 274" fill="none" xmlns="http://www.w3.org/2000/svg">
<g clip-path="url(#clip0_479_250)">
<path d="M225.363 45.4427L203.082 6.93229C200.938 3.2258 198.494 2.85493 196.136 6.93068L196.135 6.93229L173.855 45.4427C162.346 65.3355 176.77 90.1801 199.608 90.2154C222.438 90.1801 236.873 65.3392 225.363 45.4427ZM189.229 154.223C189.229 154.223 161.088 98.0986 161.088 134.463C161.088 170.827 131.632 149.685 131.632 149.685C122.647 142.92 117.55 143.765 112.476 149.685C107.401 155.605 110.015 163.639 103.173 167.444C92.1257 173.588 88.707 150.751 76.1113 149.685C68.1144 149.008 56.0681 154.223 56.0681 154.223C26.3128 205.652 63.6036 269.886 122.647 269.976C135.719 269.956 148.962 266.634 161.088 259.618C197.964 238.281 210.56 191.098 189.229 154.223Z" fill="#EA473B"/>
<path d="M184.559 45.4427L204.96 10.1785L203.082 6.93229C200.938 3.2258 198.494 2.85493 196.136 6.93068L196.135 6.93229L173.855 45.4427C161.155 67.3921 180.051 94.3014 204.96 89.7204C184.718 85.9947 174.241 63.2778 184.559 45.4427ZM60.9089 164.062L59.1976 158.988L60.9089 152.222L59.1976 155.605C59.1976 155.605 61.7346 152.222 61.7346 147.571L64.2716 142.92L59.1976 152.222L54.9692 162.37C33.6341 199.245 47.3336 238.281 84.208 259.618C96.3352 266.634 109.577 269.956 122.647 269.976C124.433 269.971 126.218 269.904 127.999 269.776C71.3985 265.767 39.747 209.728 60.9089 164.062Z" fill="#D63322"/>
<path d="M117.119 56.6676C117.568 55.8911 120.146 51.0704 122.62 51.1271C123.168 51.1416 125.183 51.5847 128.126 56.6719L185.727 156.234C190.842 165.075 194.002 174.67 195.12 184.749C195.177 185.273 195.338 185.781 195.592 186.243C195.846 186.704 196.188 187.112 196.6 187.441C197.011 187.771 197.484 188.016 197.99 188.162C198.497 188.309 199.027 188.355 199.551 188.296C200.609 188.179 201.577 187.646 202.242 186.815C202.907 185.984 203.215 184.923 203.098 183.865C201.857 172.673 198.351 162.024 192.676 152.214C192.637 152.147 135.082 52.663 135.042 52.5972C127.77 40.0735 117.349 39.7133 110.167 52.6523L52.5674 152.213C30.1604 190.942 43.4414 240.682 82.1722 263.092C131.793 291.801 195.174 261.034 202.871 203.571C203.013 202.516 202.729 201.447 202.083 200.601C201.437 199.755 200.481 199.201 199.426 199.059C198.371 198.918 197.303 199.201 196.457 199.848C195.611 200.494 195.056 201.45 194.915 202.505C187.983 254.242 130.927 282.027 86.1918 256.143C51.2916 235.949 39.325 191.13 59.5153 156.233C59.5753 156.132 117.059 56.7687 117.119 56.6676ZM229.357 64.3005C228.33 64.0232 227.234 64.1651 226.311 64.6952C225.388 65.2252 224.713 66.0999 224.435 67.1272C220.038 83.3869 201.417 91.236 186.725 82.7356C174.401 75.6046 170.174 59.7768 177.305 47.4533L199.583 8.94396C214.295 34.784 221.947 46.894 223.537 50.9189C223.929 51.909 224.697 52.7031 225.674 53.1267C226.65 53.5502 227.755 53.5684 228.745 53.1773C229.735 52.7862 230.529 52.0178 230.953 51.0412C231.376 50.0646 231.395 48.9597 231.003 47.9697C230.385 46.4056 229.653 44.8892 228.811 43.4332C228.795 43.4064 206.524 4.91049 206.508 4.88427C202.333 -2.29004 195.915 -0.716141 193.066 4.17893L170.355 43.4332C161.009 59.5879 166.549 80.3359 182.705 89.6835C201.769 100.715 226.355 90.7736 232.183 69.2229C232.461 68.1954 232.32 67.0995 231.79 66.1764C231.26 65.2533 230.385 64.5785 229.357 64.3005Z" fill="black"/>
</g>
<defs>
<clipPath id="clip0_479_250">
<rect width="274" height="274" fill="white"/>
</clipPath>
</defs>
</svg>
