<svg width="386" height="868" viewBox="0 0 386 868" fill="none" xmlns="http://www.w3.org/2000/svg">
<path d="M156.453 110.423C157.486 109.223 158.503 108.08 159.5 107C158.77 108.094 157.738 109.238 156.453 110.423C132.621 138.101 100.229 196.35 105.5 227.5C102.175 232.068 96.0242 241.025 97.5206 247.503C95 254 93.5 267 99 278.5C89.8554 294.902 72.3314 334.578 81.3098 371.451C75.5 378.5 72.2068 397.86 73.2044 406.331C74.202 414.802 67.3851 421.072 63.852 423.148C64.4755 432.076 64.1014 452.298 57.617 461.766C51.1325 471.233 44.9391 485.642 42.6529 491.663C40.9903 495.192 37.1661 500.134 35.1709 491.663L31.4299 499.76C29.7673 504.327 25.6937 510.847 22.7009 500.383C20.4148 503.289 15.7177 506.86 15.2189 497.891L16.4659 484.188L13.9719 489.794C11.0622 494.362 5.49231 500.383 6.48991 487.926C7.48751 475.468 12.7249 458.236 15.2189 451.177C16.6737 446.609 18.4611 438.72 13.9719 443.703C9.48277 448.686 8.36048 450.762 8.36048 451.177C5.03515 452.838 -0.617925 453.419 3.37248 442.457C7.36288 431.495 17.9208 422.526 22.7009 419.411C26.442 418.373 34.0487 416.297 34.5475 416.297C35.1709 416.297 38.2885 384.531 41.406 375.811C44.5235 367.091 48.2645 323.491 50.135 319.754C51.6314 316.764 59.0718 298.577 62.605 289.857L65.099 265.566C65.7225 260.79 68.0918 249.496 72.581 242.52V192.069C74.6593 182.31 80.8112 160.552 88.792 151.583C97.9339 141.309 142.368 123.41 156.453 110.423Z" fill="#FBFBFB"/>
<path d="M159.5 107C135.5 133 100 195 105.5 227.5C102.175 232.068 96.0242 241.025 97.5206 247.503C95 254 93.5 267 99 278.5C89.8554 294.902 72.3314 334.578 81.3098 371.451C75.5 378.5 72.2068 397.86 73.2044 406.331C74.202 414.802 67.3851 421.072 63.852 423.148C64.4755 432.076 64.1014 452.298 57.617 461.766C51.1326 471.233 44.9391 485.642 42.6529 491.663C40.9903 495.192 37.1661 500.134 35.1709 491.663L31.4299 499.76C29.7673 504.327 25.6937 510.847 22.7009 500.383C20.4148 503.289 15.7177 506.86 15.2189 497.891L16.4659 484.188L13.9719 489.794C11.0622 494.362 5.49231 500.383 6.48991 487.926C7.48751 475.468 12.7249 458.236 15.2189 451.177C16.6737 446.609 18.4611 438.72 13.9719 443.703C9.48277 448.686 8.36048 450.762 8.36048 451.177C5.03515 452.838 -0.617925 453.419 3.37248 442.457C7.36288 431.495 17.9208 422.526 22.7009 419.411C26.442 418.373 34.0487 416.297 34.5475 416.297C35.1709 416.297 38.2885 384.531 41.406 375.811C44.5235 367.091 48.2645 323.491 50.135 319.754C51.6314 316.764 59.0718 298.577 62.605 289.857L65.099 265.566C65.7225 260.79 68.0918 249.496 72.581 242.52V192.069C74.6593 182.31 80.8112 160.552 88.792 151.583C98.768 140.371 150.77 120.08 159.5 107Z" stroke="#2B2B2B" stroke-width="2.5"/>
<path d="M229.909 110.35C228.917 109.17 227.946 108.051 227 107C227.705 108.054 228.69 109.175 229.909 110.35C252.496 137.234 285.763 196.259 280.374 228.398C283.699 232.955 289.5 240 291 249.5C293 255.5 294.964 268.286 288.479 278.725C297.624 295.086 312.796 332.5 307 373C310.117 381.077 314.417 399.55 313.419 408C312.421 416.45 318.615 423.283 322.148 425.354C321.525 434.259 321.899 454.431 328.383 463.875C334.867 473.319 341.061 487.692 343.347 493.698C345.01 497.219 348.834 502.148 350.829 493.698L354.57 501.775C356.233 506.332 360.306 512.835 363.299 502.397C365.585 505.296 370.282 508.858 370.781 499.911L369.534 486.242L372.028 491.834C374.938 496.391 380.508 502.397 379.51 489.97C378.512 477.544 373.275 460.355 370.781 453.313C369.326 448.757 367.539 440.887 372.028 445.857C376.517 450.828 377.64 452.899 377.64 453.313C380.965 454.97 386.618 455.55 382.628 444.615C378.637 433.68 368.079 424.733 363.299 421.626C359.558 420.591 351.951 418.52 351.453 418.52C350.829 418.52 347.712 386.833 344.594 378.134C341.477 369.436 337.736 325.944 335.865 322.216C334.369 319.234 326.928 301.092 323.395 292.393L320.901 268.162C320.278 263.399 317.908 252.132 313.419 245.174V194.848C311.341 185.114 305.189 163.409 297.208 154.462C288.038 144.182 243.78 123.723 229.909 110.35Z" fill="#FBFBFB"/>
<path d="M227 107C249.5 132 286 194.848 280.374 228.398C283.699 232.955 289.5 240 291 249.5C293 255.5 294.964 268.287 288.479 278.725C297.624 295.086 312.796 332.5 307 373C310.117 381.077 314.417 399.55 313.419 408C312.421 416.45 318.615 423.283 322.148 425.354C321.525 434.259 321.899 454.431 328.383 463.875C334.867 473.319 341.061 487.692 343.347 493.698C345.01 497.219 348.834 502.148 350.829 493.698L354.57 501.775C356.233 506.332 360.306 512.835 363.299 502.397C365.585 505.296 370.282 508.858 370.781 499.911L369.534 486.242L372.028 491.834C374.938 496.391 380.508 502.397 379.51 489.97C378.512 477.544 373.275 460.355 370.781 453.313C369.326 448.757 367.539 440.887 372.028 445.857C376.517 450.828 377.64 452.899 377.64 453.313C380.965 454.97 386.618 455.55 382.628 444.615C378.637 433.68 368.079 424.733 363.299 421.626C359.558 420.591 351.951 418.52 351.453 418.52C350.829 418.52 347.712 386.833 344.594 378.134C341.477 369.436 337.736 325.944 335.865 322.216C334.369 319.234 326.928 301.092 323.395 292.393L320.901 268.162C320.278 263.399 317.908 252.132 313.419 245.174V194.848C311.341 185.114 305.189 163.409 297.208 154.462C287.232 143.279 235.73 120.048 227 107Z" stroke="#2B2B2B" stroke-width="2.5"/>
<path d="M123 494C79 469 78.5 440 73.9327 416C69.9318 441.359 79.7673 489.135 85.1852 509.854L120.818 629.812C120.818 679.536 132.071 740.448 137.697 764.688L147.699 831.815C143.948 834.715 134.571 843.003 127.069 852.948C119.568 862.892 123.944 865.793 127.069 866L162.077 862.271C178.081 864.26 182.915 853.983 183.332 848.597V815.655C183.832 798.749 186.874 753.5 188.333 732.989C191.834 718.072 192.292 657.989 192.084 629.812C197.085 599.978 196.252 513.79 195.21 474.425C178 518 143.855 505.849 123 494Z" fill="#FBFBFB" stroke="#2B2B2B" stroke-width="2.5"/>
<path d="M266.501 493C294.034 474.932 309.501 447.5 313.501 417.5C317.502 442.859 311.234 489.135 305.816 509.854L270.184 629.812C270.184 679.536 258.931 740.448 253.305 764.688L243.303 831.815C247.053 834.715 256.43 843.003 263.932 852.948C271.434 862.892 267.058 865.793 263.932 866L228.924 862.271C212.921 864.26 208.086 853.983 207.67 848.597V815.655C207.169 798.749 204.127 753.5 202.668 732.989C199.168 718.072 198.709 657.989 198.918 629.812C193.917 599.978 194.75 513.79 195.792 474.425C207.501 508 234.501 514 266.501 493Z" fill="#FBFBFB" stroke="#2B2B2B" stroke-width="2.5"/>
<path d="M226.549 107C195.14 126.402 169.007 115.084 159.866 107C125.59 144.934 99.4153 206.498 106.271 228.264C100.288 231.746 97.1302 245.054 96.2993 251.273C93.8065 264.208 97.338 274.904 99.4153 278.635C76.9799 311.967 77.6032 355.539 80.7193 373.158C63.7681 395.048 78.6419 443.222 88.1977 464.573C156.501 534.222 188.118 499.397 195.389 473.279C218.822 536.46 272.043 493.8 295.725 464.573C322.149 425.768 314.214 387.461 306.943 373.158C310.931 328.882 296.141 291.694 288.247 278.635C294.229 273.66 292.817 258.321 291.363 251.273C291.363 243.313 284.3 232.617 280.768 228.264C282.264 181.002 245.245 127.729 226.549 107Z" fill="#FBFBFB" stroke="#2B2B2B" stroke-width="2.5"/>
<path d="M226.5 107C198.749 126.818 170.5 116 160 107L159.641 81.9044C146.757 60.5999 153.034 54.8608 157.782 54.6542C153.323 11.5386 181.528 1.59485 196.188 2.01244C228.398 6.96696 230.257 39.1714 227.16 54.6542C239.548 55.6451 232.322 71.5822 227.16 79.4268L226.5 107Z" fill="#FBFBFB" stroke="#2B2B2B" stroke-width="2.5"/>
</svg>
