<svg width="357" height="819" viewBox="0 0 357 819" fill="none" xmlns="http://www.w3.org/2000/svg">
<path d="M319.5 287.217C307.5 257.217 296.167 240.383 292 235.717C287.2 241.317 282.333 252.55 281 258.217C274 274.217 273.333 289.55 274.5 296.217V308.717V315.217L273.5 322.717L270 336.717L269.5 339.717C268.7 349.717 288.834 379.883 299 393.717L298 397.217C296.4 402.817 297.334 437.55 298 454.217L303.5 487.717L293.5 503.717C291.5 511.55 288.4 528.917 292 535.717C295.6 542.517 298.5 538.217 299.5 535.217C300.167 532.55 301.9 525.417 303.5 518.217C305.1 511.017 307.167 515.217 308 518.217C307.333 523.717 305.8 534.917 305 535.717C304.2 536.517 300.667 541.05 299 543.217C297 554.417 304.833 550.217 309 546.717C313.8 552.717 318.667 549.217 320.5 546.717C329.7 547.517 330 544.717 329 543.217H333C331.833 543.05 330.4 542.817 334 543.217C337.6 543.617 342.167 538.383 344 535.717C343.667 535.383 343.7 532.117 346.5 521.717C349.3 511.317 346 496.383 344 490.217C356 462.717 356.5 397.217 354.5 393.717C352.9 390.917 347.833 369.217 345.5 358.717L339 332.717C337.5 330.05 331.5 317.217 319.5 287.217Z" fill="white" stroke="#3D3D3D" stroke-width="1.5"/>
<path d="M216.5 192.217C186.9 203.817 151.167 197.05 137 192.217C133.833 196.217 121.9 206.017 99.5 213.217C77.1 220.417 66.5 229.55 64.5 233.717C71.5 245.217 83 290.217 82 293.717C81.2 296.517 84.3334 325.217 86 339.217C72 400.217 87 462.717 89 469.717C90.6 475.317 85.3334 496.05 82.5 505.717C100 535.883 128.5 589.217 179 591.217C219.566 592.823 260.667 532.55 273 505.717C270.6 498.517 267.667 478.717 266.5 469.717C272.9 451.717 273.5 403.55 273 381.717L269 337.217C271.5 331.383 275.8 314.817 273 295.217C270.2 275.617 284.167 246.717 291.5 234.717C285.833 229.217 270.3 217.217 253.5 213.217C236.7 209.217 221.833 197.55 216.5 192.217Z" fill="white" stroke="#3D3D3D" stroke-width="1.5"/>
<path d="M36.896 285.217C48.896 255.217 60.2293 238.383 64.396 233.717C69.196 239.317 71.1667 250.05 72.5 255.717C79.5 271.717 80.5 286.217 81.896 294.217V306.717V313.217L82.896 320.717L86.396 334.717L86.8958 337.717C87.6958 347.717 67.5625 377.883 57.3958 391.717L58.3958 395.217C59.9958 400.817 59.0625 435.55 58.3958 452.217L52.896 485.717L62.896 501.717C64.896 509.55 67.996 526.917 64.396 533.717C60.796 540.517 57.896 536.217 56.896 533.217C56.2293 530.55 54.496 523.417 52.896 516.217C51.296 509.017 49.2293 513.217 48.396 516.217C49.0627 521.717 50.596 532.917 51.396 533.717C52.196 534.517 55.7293 539.05 57.396 541.217C59.396 552.417 51.5627 548.217 47.396 544.717C42.596 550.717 37.7293 547.217 35.896 544.717C26.696 545.517 26.396 542.717 27.396 541.217H23.396C24.5627 541.05 25.996 540.817 22.396 541.217C18.796 541.617 14.2293 536.383 12.396 533.717C12.7293 533.383 12.696 530.117 9.896 519.717C7.096 509.317 10.396 494.383 12.396 488.217C0.396004 460.717 -0.103996 395.217 1.896 391.717C3.496 388.917 8.56267 367.217 10.896 356.717L17.396 330.717C18.896 328.05 24.896 315.217 36.896 285.217Z" fill="white" stroke="#3D3D3D" stroke-width="1.5"/>
<path d="M302 596.217C301.2 579.817 282.333 528.383 273 504.717C242.6 572.717 200.333 591.5 183 591.5C194.6 619.5 216.833 643.717 226.5 653.217C214.5 659.617 206.5 696.217 204 713.717L199 762.717C198.167 765.55 195.9 775.417 193.5 792.217C191.1 809.017 199.5 815.217 204 816.217C209.6 819.417 226 816.55 233.5 814.717L271 801.217C282.6 792.417 275.833 787.217 271 785.717C271.8 779.717 265.667 777.55 262.5 777.217C262.1 770.817 256.333 769.883 253.5 770.217C254.7 767.417 250.218 764.05 247.827 762.717C257.73 745.117 274.51 715.583 290 689.217C308.8 657.217 305.833 613.883 302 596.217Z" fill="white"/>
<path d="M247.827 762.717C257.73 745.117 274.51 715.583 290 689.217C308.8 657.217 305.833 613.883 302 596.217C301.2 579.817 282.333 528.383 273 504.717C242.6 572.717 200.333 591.5 183 591.5C194.6 619.5 216.833 643.717 226.5 653.217M247.827 762.717C245.711 766.477 243.908 769.693 242.5 772.217L247.827 762.717ZM247.827 762.717C250.218 764.05 254.7 767.417 253.5 770.217C256.333 769.883 262.1 770.817 262.5 777.217C265.667 777.55 271.8 779.717 271 785.717C275.833 787.217 282.6 792.417 271 801.217L233.5 814.717C226 816.55 209.6 819.417 204 816.217C199.5 815.217 191.1 809.017 193.5 792.217C195.9 775.417 198.167 765.55 199 762.717L204 713.717C206.5 696.217 214.5 659.617 226.5 653.217M226.5 653.217C229.884 654.883 238.888 657.717 247.827 655.717" stroke="#3D3D3D" stroke-width="1.5"/>
<path d="M53.5002 595.217C54.3002 578.817 73.1669 527.383 82.5002 503.717C112.9 571.717 154.667 591 172 591C160.4 619 138.667 642.717 129 652.217C141 658.617 149 695.217 151.5 712.717L156.5 761.717C157.333 764.55 159.6 774.417 162 791.217C164.4 808.017 156 814.217 151.5 815.217C145.9 818.417 129.5 815.55 122 813.717L84.5 800.217C72.9 791.417 79.6667 786.217 84.5 784.717C83.7 778.717 89.8333 776.55 93 776.217C93.4 769.817 99.1667 768.883 102 769.217C100.8 766.417 105.282 763.05 107.673 761.717C97.7701 744.117 80.9903 714.583 65.5002 688.217C46.7002 656.217 49.6669 612.883 53.5002 595.217Z" fill="white"/>
<path d="M107.673 761.717C97.7701 744.117 80.9903 714.583 65.5002 688.217C46.7002 656.217 49.6669 612.883 53.5002 595.217C54.3002 578.817 73.1669 527.383 82.5002 503.717C112.9 571.717 154.667 591 172 591C160.4 619 138.667 642.717 129 652.217M107.673 761.717C109.789 765.477 111.592 768.693 113 771.217L107.673 761.717ZM107.673 761.717C105.282 763.05 100.8 766.417 102 769.217C99.1667 768.883 93.4 769.817 93 776.217C89.8333 776.55 83.7 778.717 84.5 784.717C79.6667 786.217 72.9 791.417 84.5 800.217L122 813.717C129.5 815.55 145.9 818.417 151.5 815.217C156 814.217 164.4 808.017 162 791.217C159.6 774.417 157.333 764.55 156.5 761.717L151.5 712.717C149 695.217 141 658.617 129 652.217M129 652.217C125.616 653.883 116.612 656.717 107.673 654.717" stroke="#3D3D3D" stroke-width="1.5"/>
<path d="M106.5 149.217C110.5 169.217 130.833 186.883 140.5 193.217C152 200.216 197 202.717 215.5 193.217C230.3 185.616 243.833 160.217 249.5 148.717C267 136.717 268 103.217 260 103.217C262 66.4166 250 38.8832 243 29.7166C228.333 14.0499 187.3 -12.0834 140.5 8.71656C93.7001 29.5166 90.0001 80.3832 94 103.217C81.6 124.417 97.1667 142.717 106.5 149.217Z" fill="white" stroke="#3D3D3D" stroke-width="1.5"/>
</svg>
