<svg width="397" height="774" viewBox="0 0 397 774" fill="none" xmlns="http://www.w3.org/2000/svg">
    <path
        d="M231.138 101.549C204.641 119.214 180.198 108.909 171.289 101.549C168.499 110.846 141.461 118.981 128.29 121.886C132.009 129.324 124.804 170.308 120.736 189.87C122.131 193.124 126.353 228.801 128.29 246.233C135.844 257.854 135.844 303.177 134.101 308.407C132.706 312.59 131.195 339.977 130.614 353.148C128.29 359.191 128.29 358.959 126.547 367.675C138.168 415.321 186.202 403.894 198.017 393.241C215.217 419.273 264.839 393.241 272.393 367.675C272.393 367.675 270.65 360.508 269.488 353.148C267.53 340.751 266.389 318.091 264.839 308.407C264.452 293.686 264.839 260.643 269.488 246.233C274.136 231.823 278.397 202.654 279.947 189.87C274.833 175.46 273.942 138.543 274.136 121.886C250.894 118.168 235.786 106.779 231.138 101.549Z"
        fill="white" />
    <path
        d="M198.017 393.241C215.217 419.273 264.839 393.241 272.393 367.675C272.393 367.675 270.65 360.508 269.488 353.148C267.53 340.751 266.389 318.091 264.839 308.407C264.452 293.686 264.839 260.643 269.488 246.233C274.136 231.823 278.397 202.654 279.947 189.87C274.833 175.46 273.942 138.543 274.136 121.886C250.894 118.168 235.786 106.779 231.138 101.549C204.641 119.214 180.198 108.909 171.289 101.549C168.499 110.846 141.461 118.981 128.29 121.886C132.009 129.324 124.804 170.308 120.736 189.87C122.131 193.124 126.353 228.801 128.29 246.233C135.844 257.854 135.844 303.177 134.101 308.407C132.706 312.59 131.195 339.977 130.614 353.148C128.29 359.191 128.29 358.959 126.547 367.675C138.168 415.321 186.202 403.894 198.017 393.241ZM198.017 393.241V342.689M198.017 342.689C199.179 339.784 201.968 334.089 203.828 334.554M198.017 342.689C197.63 340.171 196.042 334.787 192.788 333.392"
        stroke="black" />
    <path
        d="M310.162 170.696C312.486 144.664 286.339 126.923 274.136 121.887C273.555 143.967 275.879 175.344 279.947 189.871L271.812 237.518L273.555 241.585C277.623 253.012 286.106 279.47 287.501 293.88C288.895 308.291 299.315 330.874 304.351 340.365L318.297 361.864C321.086 371.626 327.206 377.553 329.918 379.296C328.059 387.663 330.693 401.764 332.242 407.768C331.467 414.547 330.383 429.5 332.242 435.078C334.102 440.656 337.665 437.402 339.215 435.078V421.713C340.609 416.6 341.345 419.583 341.539 421.713L344.444 440.888C348.163 447.861 349.868 443.794 350.255 440.888V423.457C351.65 414.16 353.935 419.583 354.904 423.457L359.552 443.213C365.13 449.721 366.912 444.375 367.106 440.888L361.295 421.713C360.83 413.346 363.426 417.065 364.782 419.97L370.592 435.078C374.66 442.051 376.209 437.983 375.822 435.078C375.241 431.204 373.381 421.016 370.592 411.254C367.106 399.052 375.822 399.052 377.565 402.538C378.959 405.328 386.668 407.187 390.348 407.768C400.575 406.838 394.609 401.57 390.348 399.052C385.119 394.21 374.195 384.061 372.335 382.201C370.011 379.877 361.295 375.229 354.904 370.58C349.79 366.861 343.863 348.887 341.539 340.365C339.409 321.965 333.753 282.724 328.175 272.962C322.597 263.2 318.49 249.526 317.135 243.909C317.135 235 316.321 214.159 313.067 202.073C309.813 189.987 309.775 176.119 310.162 170.696Z"
        fill="white" stroke="black" />
    <path
        d="M90.9947 171.099C89.0828 145.034 116.01 126.729 128.29 121.887C131.777 142.805 123.077 175.973 120.154 189.293L127.093 240.244L127.093 245.071C122.845 256.433 113.326 280.24 111.703 294.627C110.081 309.013 99.3045 331.429 94.1191 340.839L79.8351 362.115C76.8919 371.831 70.6784 377.66 67.9395 379.36C69.6662 387.756 66.8092 401.813 65.1649 407.792C65.8323 414.583 66.6801 429.55 64.7327 435.098C62.7852 440.646 59.2733 437.336 57.7608 434.988L57.9723 421.625C56.6589 416.49 55.8758 419.461 55.6484 421.588L52.44 440.715C48.6113 447.628 46.9714 443.534 46.6301 440.623L46.906 423.193C45.6588 413.876 43.2877 419.262 42.2581 423.12L37.2975 442.8C31.617 449.219 29.92 443.845 29.7815 440.356L35.8949 421.276C36.4921 412.917 33.8381 416.594 32.4365 419.478L26.3875 434.491C21.1645 441.382 20.7253 437.307 21.1587 434.409C21.801 430.544 23.8214 420.387 26.7646 410.671C30.4437 398.525 21.7288 398.387 19.9307 401.846C18.4922 404.612 10.755 406.35 7.06623 406.872C-3.14442 405.781 2.90376 400.608 7.20418 398.158C12.5097 393.399 23.5929 383.424 25.4815 381.594C27.8422 379.307 36.6306 374.797 43.095 370.25C48.2666 366.613 54.4771 348.735 56.9359 340.25C59.3575 321.886 65.6335 282.74 71.3655 273.068C77.0974 263.395 81.4195 249.788 82.8641 244.193C83.0051 235.284 84.1483 214.459 87.5931 202.426C91.0379 190.393 91.2962 176.528 90.9947 171.099Z"
        fill="white" stroke="black" />
    <path
        d="M171.869 63.1999C178.377 77.6101 173.225 94.5767 171.289 101.549C185.815 114.333 214.287 113.171 231.138 101.549C221.841 85.2798 227.07 80.6315 227.07 74.8209C227.07 70.1725 232.493 53.1281 235.205 45.1869C238.11 21.9445 230.169 12.8413 227.07 10.3233C218.935 1.60754 210.801 -0.13587 195.693 1.60754C176.754 3.79306 168.383 18.4583 166.64 27.1742C165.671 33.1784 165.362 48.7896 171.869 63.1999Z"
        fill="white" stroke="black" />
    <path
        d="M179.423 769.596C176.169 775.174 172.257 772.307 170.707 770.177C157.227 771.571 151.92 761.848 150.951 756.812L158.505 731.827C160.829 716.952 172.257 702.774 177.68 697.544C195.344 691.966 196.661 702.58 195.112 708.584L184.653 730.083C184.265 740.93 182.677 764.017 179.423 769.596Z"
        fill="white" stroke="black" />
    <path
        d="M134.102 461.806C124.805 438.564 125.385 388.399 126.547 367.675C142.817 414.741 180.586 404.475 197.437 394.985V451.347L195.113 477.495C196.972 487.257 192.207 539.087 188.72 563.492C190.463 575.694 192.788 590.87 192.788 594.869C192.788 604.166 192.982 625.278 191.626 638.449C192.014 652.975 191.484 682.729 191.045 686.677C190.464 691.906 190.464 696.555 190.464 696.555L186.396 695.973C186.396 695.973 184.653 695.973 182.329 696.555C179.423 697.281 177.099 698.879 177.099 698.879L166.64 712.243L164.898 715.148C163.155 709.919 161.799 706.433 161.992 703.527V690.163C161.992 678.542 137.588 613.463 138.169 596.612C138.634 583.132 143.398 547.61 145.723 531.534C145.723 517.976 143.398 485.049 134.102 461.806Z"
        fill="white" stroke="black" />
    <path
        d="M216.612 769.014C219.866 774.593 223.778 771.726 225.328 769.596C238.809 770.99 244.116 761.267 245.084 756.231L237.53 731.246C235.206 716.371 223.778 702.193 218.355 696.963C200.691 691.385 199.374 701.999 200.923 708.003L211.383 729.502C211.77 740.349 213.358 763.436 216.612 769.014Z"
        fill="white" stroke="black" />
    <path
        d="M261.934 461.225C271.231 437.983 273.555 388.399 272.393 367.675C254.961 407.187 206.733 410.673 198.598 394.404V450.766L200.923 476.914C199.063 486.676 202.666 537.925 206.152 562.33C205.184 571.627 203.714 590.317 203.247 594.288C202.085 604.166 203.053 624.697 204.409 637.867C204.022 652.394 204.551 682.148 204.99 686.095C205.572 691.325 205.572 695.973 205.572 695.973L209.639 695.392C209.639 695.392 211.382 695.392 213.707 695.973C216.612 696.7 218.936 698.298 218.936 698.298L229.395 711.662L231.138 714.567C232.88 709.338 234.237 705.851 234.043 702.946V689.582C234.043 677.961 258.447 612.882 257.866 596.031C257.402 582.551 252.637 547.029 250.313 530.953C250.313 517.394 252.637 484.468 261.934 461.225Z"
        fill="white" stroke="black" />
</svg>