<svg width="746" height="836" viewBox="0 0 746 836" fill="none" xmlns="http://www.w3.org/2000/svg">
<path d="M372 598.5C395.5 583.5 448 546.5 470.5 491.5C475 496 490.708 515.3 491.108 534.5C506.941 548.667 539.608 583.9 543.608 611.5C546.775 623.167 547.708 651.7 526.108 672.5C513.775 692.5 481.808 734.4 452.608 742C445.775 747.667 430.508 758.8 424.108 758C427.441 778.167 432.508 819.9 426.108 825.5C424.275 830.5 419.308 838.5 414.108 830.5C410.941 832.333 404.108 832.7 402.108 819.5C399.597 821.069 394.013 822.432 390.697 816.241C390.492 815.857 390.295 815.444 390.108 815C389.441 816.167 387.608 817.3 385.608 812.5C377.108 811.667 360.508 806.6 362.108 793C364.108 776 381.108 721.5 385.608 719.5C386.275 714 390.208 701.3 400.608 694.5L408.108 688C413.108 678.333 425.708 657.8 436.108 653C431.941 648.667 423.008 638.7 420.608 633.5C405.108 626.667 372 608.9 372 598.5Z" fill="#FBFBFB"/>
<path d="M390.108 815C390.295 815.444 390.492 815.857 390.697 816.241M390.108 815C386.908 807.4 389.168 812.661 390.697 816.241M390.108 815C389.441 816.167 387.608 817.3 385.608 812.5C377.108 811.667 360.508 806.6 362.108 793C364.108 776 381.108 721.5 385.608 719.5C386.275 714 390.208 701.3 400.608 694.5L408.108 688C413.108 678.333 425.708 657.8 436.108 653C431.941 648.667 423.008 638.7 420.608 633.5C405.108 626.667 372 608.9 372 598.5C395.5 583.5 448 546.5 470.5 491.5C475 496 490.708 515.3 491.108 534.5C506.941 548.667 539.608 583.9 543.608 611.5C546.775 623.167 547.708 651.7 526.108 672.5C513.775 692.5 481.808 734.4 452.608 742C445.775 747.667 430.508 758.8 424.108 758C427.441 778.167 432.508 819.9 426.108 825.5C424.275 830.5 419.308 838.5 414.108 830.5C410.941 832.333 404.108 832.7 402.108 819.5C399.597 821.069 394.013 822.432 390.697 816.241" stroke="#2B2B2B" stroke-width="2.4"/>
<path d="M454.051 215.738C419.651 264.138 367.384 239.571 345.551 221.238C303.151 240.438 292.551 305.904 292.551 336.238C283.751 352.238 273.884 422.238 270.051 455.238L254.551 500.738C260.551 520.238 312.051 582.238 322.051 592.238C330.051 600.238 349.717 604.904 358.551 606.238C380.884 595.571 432.551 561.638 460.551 511.238C488.551 460.838 498.217 384.571 499.551 352.738C530.751 319.138 482.217 247.404 454.051 215.738Z" fill="#FBFBFB" stroke="#2B2B2B" stroke-width="2.4"/>
<path d="M254.562 501C256.162 513.8 302 571.5 325 595C323.4 599 306.228 615.5 298.062 622.5C296.462 635.3 303.062 644.167 306.562 647C316.562 652.6 322.728 670 324.562 678C332.162 680.8 334.062 689.5 334.062 693.5C341.662 695.1 343.562 701.833 343.562 705C357.962 705 359.228 719.667 358.062 727C357.662 750.2 341.895 773.667 334.062 782.5C327.562 804.5 308.562 807.5 305.562 813C303.162 817.4 294.895 818.5 291.062 818.5C287.062 822.9 282.728 824 281.062 824L276.062 828C266.462 829.2 267.062 824.5 268.562 822C261.362 819.6 267.562 815 271.562 813C261.962 809.4 263.562 803.5 265.562 801C283.962 786.6 293.562 751.667 296.062 736C288.462 735.6 285.895 727.5 285.562 723.5C256.762 719.5 226.895 687.5 215.562 672C181.962 640.4 179.895 608.5 183.062 596.5C196.662 537.7 236.395 508.333 254.562 501Z" fill="#FBFBFB" stroke="#2B2B2B" stroke-width="2.4"/>
<path d="M294.052 319.576C297 262 325.5 231 344.5 221L318.052 226.076C299.652 223.276 275.719 226.243 266.052 228.076L241.552 240.576C213.952 237.776 199.052 244.743 195.052 248.576C190.652 240.576 180.219 238.243 175.552 238.076L73.0524 235.576C71.7191 234.409 64.7524 228.976 47.5524 216.576C30.3524 204.176 23.7191 209.743 22.5524 214.076C12.1524 214.476 12.5524 218.576 14.0524 220.576C0.452398 226.576 5.05239 233.076 9.05239 235.576C1.45239 241.976 5.88572 247.243 9.05239 249.076C-6.14761 260.676 6.71905 265.576 15.0524 266.576C7.05239 273.376 11.7191 281.076 15.0524 284.076C24.3857 285.909 46.7524 288.476 61.5524 284.076C76.3524 279.676 123.052 296.576 144.552 305.576C163.386 310.243 203.452 318.476 213.052 314.076C222.652 309.676 263.719 306.576 283.052 305.576C284.652 312.376 291.052 317.743 294.052 319.576Z" fill="#FBFBFB" stroke="#2B2B2B" stroke-width="2.4"/>
<path d="M413.895 243.738C356.295 245.738 329.562 207.238 323.395 187.738C284.595 162.538 292.895 146.905 301.895 142.238C253.895 59.0378 308.562 17.2379 341.895 6.73794C433.095 -17.2621 457.562 55.7379 458.395 95.2379C478.795 100.438 471.562 125.071 465.395 136.738C484.595 186.738 447 237.5 413.895 243.738Z" fill="#FBFBFB" stroke="#2B2B2B" stroke-width="2.4"/>
<path d="M561.5 369.5C547.5 355.1 520.833 333.5 509 325C513 290.5 471.61 235.654 454.703 216.779C463.469 221.353 487.3 232 512.5 238C537.7 244 555.667 273.167 561.5 287C579.9 292.2 598.167 310.5 605 319C618.2 323.4 639.5 340.5 648.5 348.5L684 377.5L696 380.5C700.333 379.5 713.6 380.3 732 391.5C755 405.5 739 415 740 416C740.8 416.8 741 423.333 741 426.5C739.955 431.551 735.08 434.826 729 436.887C721.117 439.558 711.21 440.188 705 440C691.4 438.8 685.333 433.833 684 431.5C672.4 428.7 660.167 419.333 655.5 415C630 405.833 575.5 383.9 561.5 369.5Z" fill="#FBFBFB"/>
<path d="M454 216C454.231 216.254 454.465 216.514 454.703 216.779M454.703 216.779C471.61 235.654 513 290.5 509 325C520.833 333.5 547.5 355.1 561.5 369.5C575.5 383.9 630 405.833 655.5 415C660.167 419.333 672.4 428.7 684 431.5C685.333 433.833 691.4 438.8 705 440C711.21 440.188 721.117 439.558 729 436.887C735.08 434.826 739.955 431.551 741 426.5C741 423.333 740.8 416.8 740 416C739 415 755 405.5 732 391.5C713.6 380.3 700.333 379.5 696 380.5L684 377.5L648.5 348.5C639.5 340.5 618.2 323.4 605 319C598.167 310.5 579.9 292.2 561.5 287C555.667 273.167 537.7 244 512.5 238C487.3 232 463.469 221.353 454.703 216.779Z" stroke="#2B2B2B" stroke-width="2.4"/>
</svg>
