<svg width="400" height="866" viewBox="0 0 400 866" fill="none" xmlns="http://www.w3.org/2000/svg">
<path d="M204.5 460C166 460 110.936 408.842 88.4998 386C69.0551 422.381 84.0654 489.542 94.037 517.575L129.561 623.477C128.938 654.417 129.685 719.91 137.663 734.363C145.64 748.815 150.543 805.587 151.997 832.167C139.034 847.117 134.547 855.839 133.923 858.331C136.416 866.803 139.532 863.937 140.779 861.445C145.266 863.937 145.972 858.746 145.765 855.839C146.762 862.816 150.335 860.407 151.997 858.331C155.986 865.308 159.891 857.915 161.345 853.347C160.348 865.806 174.641 863.937 181.912 861.445C186.482 860.199 195.623 856.836 195.623 853.347V832.167C197.118 830.173 196.246 816.8 195.623 810.363C192.631 795.412 196.869 760.942 199.362 745.576C204.348 732.618 205.179 662.931 204.971 629.706V499.509C200.484 489.043 202.63 468.306 204.5 460Z" fill="#FBFBFB" stroke="#2B2B2B" stroke-width="2.5"/>
<path d="M206.501 460.498C245.774 455.499 293 415.5 311 385.5C331.369 421.449 322.428 486.32 313.176 514.657L280.371 621.653C281.785 652.633 282.711 718.261 275.106 732.943C267.501 747.624 264.051 804.622 263.277 831.286C276.618 845.933 281.327 854.555 282.013 857.035C279.738 865.586 276.55 862.795 275.24 860.33C270.818 862.941 269.979 857.759 270.112 854.841C269.294 861.856 265.66 859.534 263.946 857.496C260.137 864.588 256.044 857.282 254.473 852.742C255.788 865.198 241.453 863.691 234.12 861.38C229.52 860.248 220.296 857.111 220.207 853.617L219.665 832.399C218.119 830.44 218.65 817.021 219.108 810.557C221.716 795.503 216.599 761.08 213.714 745.75C208.398 732.896 205.786 663.106 205.144 629.818L205.144 499.498C209.363 488.9 208.582 468.771 206.501 460.498Z" fill="#FBFBFB" stroke="#2B2B2B" stroke-width="2.5"/>
<path d="M234.741 106C211.24 125.477 179.114 114.115 165.988 106L135.987 149.698C128.487 166.137 113.237 199.514 112.237 201.512C111.237 203.51 109 211.838 109 216C107.013 226.506 106.5 238.5 109 245.5L103.486 278.296C96.986 286.287 86.8752 329.899 82.5 350.5C84.2646 371.914 86 382.5 90.3607 388.166C113.487 411.472 167.739 458.458 199.74 459.956C231.741 461.455 275.916 427.436 293 408.5C312 391 311 381 316.5 366C318.5 341.5 309.873 307.913 303.494 294.527C298 283 290 256.5 291.5 242C293.375 238.463 293.757 234.017 292.5 226C291.212 217.786 288.591 212 287 204.5C283.5 188 252.033 134.924 234.741 106Z" fill="#FBFBFB" stroke="#2B2B2B" stroke-width="2.5"/>
<path d="M234.5 106C212.389 125.466 177.631 113.487 165.277 106C163.393 103.504 166.533 92.8793 165.277 91.6313C164.272 90.6329 163.602 84.1443 163.393 81.0248C148.82 57.0663 156.483 53.5725 162.137 54.8204V37.9748C162.765 24.4566 172.313 -1.58137 205.479 2.41168C245.211 7.19517 237.058 53.8106 236.31 57.1349C236.597 56.5409 238.021 55.3798 238.772 54.8204C249.325 56.8169 241.494 73.1219 236.259 81.0248C237.264 83.5204 234.165 89.1357 232.49 91.6313L234.5 106Z" fill="#FBFBFB" stroke="#2B2B2B" stroke-width="2.5"/>
<path d="M112 203.5C116 187.5 141.5 135 165.5 106.5C156.155 113.573 131.861 130.588 107.441 144.068C83.0201 157.548 75.669 185.464 75.0461 197.738V240.174C73.0526 243.669 67.5704 277.41 65.0785 293.844C53.1174 306.325 47.2199 351.466 45.7663 372.476C43.2744 376.969 37.2523 403.888 34.5528 416.785C18.1063 421.777 9.01088 434.259 6.51899 439.875L5.27298 445.492L2.78109 448.612C-0.209187 456.101 6.10361 455.477 9.63379 454.229L13.3716 446.74C17.857 440.25 17.3171 445.284 16.4865 448.612L14.6176 454.853L5.27298 492.921C7.26649 503.405 12.3333 498.122 14.6176 494.169L19.6014 482.312L16.4865 500.41C14.493 509.896 20.2243 508.523 23.3392 506.65L25.8311 502.282C28.8214 511.268 33.7221 506.442 35.7987 502.906L39.5365 494.169C42.5268 502.656 46.5969 498.121 48.2581 494.793L58.8487 471.703C74.423 452.357 64.4555 431.138 68.1933 424.898C71.1836 419.905 81.8986 394.11 86.8823 381.837C73.7999 344.393 101.834 280.738 104.326 275.122C106.319 270.629 108.063 252.031 108.686 243.295C104.699 232.81 108.677 212.029 112 203.5Z" fill="#FBFBFB" stroke="#2B2B2B" stroke-width="2.5"/>
<path d="M286.33 203.357C285 189 260 149.5 234 105C243.345 112.055 268.139 129.527 292.559 142.973C316.98 156.42 324.331 184.267 324.954 196.51V238.84C326.947 242.327 332.43 275.984 334.922 292.377C346.883 304.827 352.78 349.855 354.234 370.813C356.726 375.295 362.748 402.147 365.447 415.012C381.894 419.992 390.989 432.442 393.481 438.045L394.727 443.647L397.219 446.76C400.209 454.23 393.896 453.608 390.366 452.363L386.628 444.892C382.143 438.418 382.683 443.44 383.514 446.76L385.382 452.985L394.727 490.958C392.734 501.417 387.667 496.146 385.382 492.203L380.399 480.376L383.514 498.429C385.507 507.891 379.776 506.521 376.661 504.654L374.169 500.296C371.179 509.26 366.278 504.446 364.201 500.919L360.463 492.203C357.473 500.67 353.403 496.146 351.742 492.826L341.151 469.793C325.577 450.495 335.545 429.33 331.807 423.104C328.816 418.124 318.101 392.394 313.118 380.151C326.2 342.8 298.166 279.304 295.674 273.701C293.681 269.219 291.937 250.668 291.314 241.953C295.301 231.495 289.652 211.865 286.33 203.357Z" fill="#FBFBFB" stroke="#2B2B2B" stroke-width="2.5"/>
</svg>
