<svg width="551" height="940" viewBox="0 0 551 940" fill="none" xmlns="http://www.w3.org/2000/svg">
<path d="M268.002 519C206.002 552.5 181.002 484 179.002 444.5C158.874 504.212 173.681 563.505 174.596 569.016C175.328 573.426 189.539 608.212 196.554 625.053C197.774 640.67 198.933 673.925 193.809 682.009C188.685 690.093 193.504 744.783 196.554 771.117L212.107 832.666L213.022 845.527L211.192 849.202L191.979 914.425C195.639 932.063 211.802 932.798 219.427 930.961C229.674 942.719 233.455 934.635 234.065 929.123C236.261 923.244 240.47 889.316 242.299 873.086C267.185 834.871 256.938 822.867 248.704 821.642V818.887C245.044 812.456 256.023 759.175 257.853 752.744C259.317 747.6 262.123 706.506 263.342 686.602C260.431 662.483 265.506 566.296 267.962 519.762L268.002 519Z" fill="#FBFBFB" stroke="#2B2B2B" stroke-width="2.5"/>
<path d="M268.998 519.425C323.499 547.5 345.999 483.5 352.499 444C372.595 503.494 362.353 565.065 361.409 570.737L361.405 570.764C360.673 575.165 346.461 609.88 339.447 626.687C338.227 642.273 337.068 675.46 342.191 683.527C347.315 691.595 342.496 746.174 339.447 772.454L323.893 833.878L322.978 846.713L324.808 850.38L344.021 915.471C340.362 933.073 324.198 933.806 316.574 931.973C306.327 943.708 302.545 935.64 301.935 930.139C299.74 924.272 295.531 890.413 293.701 874.216C268.815 836.078 279.062 824.099 287.297 822.877V820.127C290.956 813.709 279.977 760.536 278.148 754.119C276.684 748.985 273.878 707.975 272.658 688.111C275.586 663.908 271.438 565.569 268.998 519.425Z" fill="#FBFBFB" stroke="#2B2B2B" stroke-width="2.5"/>
<path d="M179 270.5C186 232 181 188.5 176 167.5C170.851 168.966 156.657 174.329 151.14 177.078C132.015 196.134 130.912 222.275 132.751 232.963L126.314 254.035L115.281 325.495C78.5016 375.883 68.3874 419.859 64.7095 429.937C61.7671 437.999 57.9666 443.068 56.4342 444.595C52.4498 445.511 43.1937 448.077 38.0446 451.008C32.8955 453.94 24.8654 457.727 21.494 459.254C6.78236 459.987 4.33042 463.834 4.94341 465.667C7.39535 468.721 14.8738 473.729 25.1721 469.331C35.4704 464.934 30.6889 471.774 27.0109 475.744L4.024 506.894C-1.86066 518.62 6.47594 516.666 11.3798 514.223L25.1721 495.9C33.2636 490.036 30.3824 497.121 27.9304 501.397L15.9773 523.385C13.7706 536.577 21.1877 532.546 25.1721 528.881C26.7045 525.522 31.4244 516.055 38.0448 505.061C44.6651 494.068 42.6422 501.702 40.8032 506.894L29.7693 527.965C27.5626 538.226 33.1407 536.516 36.2057 534.378L38.9641 530.714C40.8031 527.049 45.9521 517.338 51.8368 507.81C57.7215 498.282 58.5796 505.672 58.2731 510.558L54.5952 523.385C53.124 533.645 58.8861 530.103 61.951 527.049C60.112 527.965 65.6289 520.636 65.6289 519.72C65.6289 518.987 68.6938 504.756 70.2263 497.732L83.099 472.08L95.9717 447.344L131.831 402.452L188 304L179 270.5Z" fill="#FBFBFB" stroke="#2B2B2B" stroke-width="2.5"/>
<path d="M367 259.5C359 219.5 369.589 183.628 377.999 167.5C382.995 169.389 396.368 176.721 401.622 179.916C419.042 200.476 417.955 226.584 415.235 237.068L419.873 258.576L424.872 330.614C457.223 383.83 463.604 428.438 466.419 438.774C468.67 447.043 472.025 452.406 473.42 454.053C477.305 455.297 486.291 458.622 491.165 461.97C496.038 465.317 503.704 469.755 506.928 471.556C521.49 473.513 523.606 477.547 522.844 479.319C520.152 482.154 512.3 486.514 502.43 481.279C492.56 476.043 496.742 483.25 500.067 487.508L520.315 520.425C525.185 532.587 517.061 529.946 512.391 527.106L500.211 507.72C492.657 501.21 494.93 508.501 497.01 512.961L507.055 535.84C508.147 549.154 501.111 544.523 497.456 540.544C496.214 537.073 492.313 527.257 486.65 515.764C480.987 504.27 482.36 512.037 483.755 517.357L492.963 539.248C494.3 549.644 488.898 547.477 486.03 545.094L483.594 541.217C482.072 537.416 477.764 527.322 472.711 517.349C467.657 507.375 466.187 514.659 466.083 519.547L468.668 532.619C469.273 542.953 463.842 538.947 461.05 535.652C462.801 536.717 457.93 528.963 458.006 528.051C458.067 527.322 456.209 512.903 455.273 505.785L444.619 479.182L433.889 453.49L401.993 405.822L357 301.5L357 295L359 286.5L367 259.5Z" fill="#FBFBFB" stroke="#2B2B2B" stroke-width="2.5"/>
<path d="M317.4 130C274.062 157.835 240.579 141.598 229.255 130C220.44 151.975 190.079 164.183 176 167.541C186.284 201.236 182.121 250.557 178.755 271.006C204.464 343.524 189.467 416.591 178.755 444.06C190.507 542.215 243.639 534.401 268.736 518.225C321.624 551.188 346.476 482.516 352.291 444.06C340.538 384.727 350.455 324.113 356.882 301.222C355.413 294.63 363.003 271.006 366.982 260.019C358.167 214.604 370.655 179.444 378 167.541C353.76 162.413 327.5 140.377 317.4 130Z" fill="#FBFBFB" stroke="#2B2B2B" stroke-width="2.5"/>
<path d="M317.5 130C283 154 244.5 145.5 229 130C232.675 124.111 231.023 101.995 230.716 93.1001C210.139 65.8621 219.081 57.8256 226.123 57.2122C218.039 13.7786 252.763 2.30673 271.136 2C311.555 6.41697 314.923 40.6485 311.555 57.2122C326.253 58.6845 315.842 79.9105 308.799 90.3394C309.534 96.9649 314.744 120.491 317.5 130Z" fill="#FBFBFB" stroke="#2B2B2B" stroke-width="2.5"/>
</svg>
