<svg width="391" height="749" viewBox="0 0 391 749" fill="none" xmlns="http://www.w3.org/2000/svg">
    <path
        d="M269.449 355.917C269.449 354.058 266.932 342.746 265.963 338.485L239.816 355.917L212.506 372.768C215.411 407.05 203.79 411.118 195.655 410.537L197.398 433.779L203.209 475.034L204.371 530.235C207.664 541.081 210.763 559.869 209.019 570.909C207.813 578.551 204.952 598.413 204.371 608.678C207.664 624.754 211.344 659.811 209.019 666.784C206.695 673.757 206.114 684.797 206.114 689.445C203.325 698.277 204.177 706.683 204.952 709.782C208.826 713.269 216.689 721.287 217.154 725.471C217.619 729.655 223.546 734.574 226.451 736.511C226.916 742.554 229.744 745.614 231.1 746.389C238.537 750.573 241.559 742.709 242.14 738.254V745.227C247.757 744.452 259.455 741.392 261.315 735.349C263.639 727.795 256.666 717.917 255.504 717.917C254.574 717.917 244.27 706.296 239.234 700.485C238.072 695.256 235.864 683.402 236.329 677.824C236.91 670.851 245.626 644.123 249.693 635.988C253.761 627.853 254.923 584.274 254.923 583.111C254.923 581.949 249.693 540.113 249.693 533.721C249.693 527.33 252.017 494.79 262.477 468.062C272.936 441.333 269.449 358.241 269.449 355.917Z"
        fill="white" stroke="black" />
    <path
        d="M121.837 355.917C121.837 354.058 123.216 342.746 124.185 338.485L178.223 371.606C175.899 406.469 187.52 409.956 195.631 410.537L193.888 433.779L188.077 475.034L186.915 530.235C183.623 541.081 180.524 559.869 182.267 570.909C183.473 578.551 186.334 598.413 186.915 608.678C183.623 624.754 179.942 659.811 182.267 666.784C184.591 673.757 185.172 684.797 185.172 689.445C187.961 698.277 187.109 706.683 186.334 709.782C182.461 713.269 174.597 721.287 174.132 725.471C173.667 729.655 167.74 734.574 164.835 736.511C164.37 742.554 161.542 745.614 160.187 746.389C152.749 750.573 149.728 742.709 149.146 738.254V745.227C143.53 744.452 131.831 741.392 129.972 735.349C127.647 727.795 134.62 717.917 135.782 717.917C136.712 717.917 147.016 706.296 152.052 700.485C153.214 695.256 155.422 683.402 154.957 677.824C154.376 670.851 145.66 644.123 141.593 635.988C137.526 627.853 136.363 584.274 136.363 583.111C136.363 581.949 141.593 540.113 141.593 533.721C141.593 527.33 139.269 494.79 128.81 468.062C118.351 441.333 121.837 358.241 121.837 355.917Z"
        fill="white" stroke="black" />
    <path
        d="M218.897 107.224C197.05 122.564 178.03 113.615 171.25 107.224L133.482 128.142C127.439 129.536 116.631 135.696 111.982 138.601C118.025 150.687 121.86 180.437 123.023 193.802C130.46 204.028 129.221 226.341 127.671 236.219C134.179 245.051 135.806 271.276 135.806 283.285C131.622 289.793 130.576 305.752 130.576 312.919C127.322 318.032 125.347 332.094 124.766 338.485C138.711 349.525 178.223 371.606 178.223 371.606C194.028 365.563 199.722 365.214 212.506 372.187C212.506 372.187 249.694 350.688 265.963 338.485C265.963 334.612 265.382 325.121 263.058 318.148C260.734 311.176 259.378 298.973 258.99 293.744C253.412 276.08 259.378 248.034 263.058 236.219C260.734 221.809 264.026 201.936 265.963 193.802C266.428 179.391 273.517 150.997 277.003 138.601C273.749 134.882 262.477 130.079 257.247 128.142L218.897 107.224Z"
        fill="white" stroke="black" />
    <path
        d="M211.929 373.35C197.979 363.471 189.263 365.796 178.227 373.35C176.871 387.102 178.227 409.957 195.659 409.957C216.125 409.957 213.672 384.003 211.929 373.35Z"
        fill="white" stroke="black" />
    <path
        d="M218.897 106.062C201.698 118.613 182.872 115.94 172.413 106.643V86.8867L168.345 77.5902C166.021 76.6609 162.341 70.23 160.792 67.1307C154.749 49.9313 160.211 47.181 163.697 47.9557C158.584 20.9945 168.927 7.66911 174.737 4.37653C181.904 1.66492 199.955 -2.13133 214.83 4.37653C229.705 10.8844 228.776 36.916 226.451 49.1183C233.424 47.7238 232.068 57.8342 230.519 63.0637C230.519 63.0637 229.284 68.2678 227.613 71.1981C226.016 73.9998 222.384 77.5902 222.384 77.5902L219.479 83.9819L218.897 106.062Z"
        fill="white" stroke="black" />
    <path
        d="M91.0645 184.504C93.1519 156.676 105.203 141.506 111.982 138.601C117.096 143.714 121.28 176.951 123.023 192.639C129.414 209.49 129.995 218.206 127.09 236.219L128.252 238.543C124.533 242.262 120.311 269.339 118.955 282.122L109.077 307.108L91.0642 347.201L71.3082 389.618C72.7028 396.591 68.4029 410.73 66.0787 416.928C63.7544 423.707 58.1763 438.427 54.4575 443.076C50.7387 447.724 50.1964 444.238 50.3901 441.914L54.4575 430.292C54.9223 425.179 52.7143 428.162 51.5522 430.292L45.1605 447.143C40.0472 452.257 39.1562 447.337 39.3499 444.238L45.1605 426.806C45.6254 422.158 43.4174 424.869 42.2552 426.806L32.3772 448.305C25.8694 451.559 26.1792 446.95 27.1477 444.238L34.1204 425.644C35.5149 418.671 32.7646 421.964 31.2151 424.482L24.8234 438.427C20.6398 444.47 18.0444 441.333 17.2697 439.008C19.4002 433.391 24.1262 419.833 25.9856 410.536C27.845 401.24 22.4992 401.24 19.5939 402.402C16.1075 404.145 8.32135 407.283 5.06742 405.888C1.81348 404.493 1 401.046 1 399.496C3.51793 399.303 9.83211 397.753 14.9454 393.105C20.0588 388.456 30.634 384.582 35.2825 383.227C43.6498 378.578 50.0027 358.047 52.1332 348.363C55.6196 326.283 69.4948 283.497 74.2135 272.244C81.7673 254.231 81.7673 244.353 85.8347 225.178C86.9968 210.652 89.3211 207.747 91.0645 184.504Z"
        fill="white" stroke="black" />
    <path
        d="M300.258 183.923C295.01 156.515 284.363 140.925 277.584 138.02C274.679 146.735 267.125 175.788 267.125 192.639C261.314 206.004 261.508 224.985 263.058 235.638L263.652 238.543C267.371 242.262 271.012 268.758 272.368 281.541L282.246 306.527L300.259 346.62L320.015 389.037C318.62 396.01 322.92 410.149 325.244 416.347C327.568 423.126 333.146 437.846 336.865 442.495C340.584 447.143 341.126 443.657 340.933 441.333L336.865 429.711C336.4 424.598 338.608 427.581 339.771 429.711L346.162 446.562C351.276 451.675 352.167 446.756 351.973 443.657L346.162 426.225C345.697 421.577 347.905 424.288 349.068 426.225L358.946 447.724C365.453 450.978 365.144 446.368 364.175 443.657L357.202 425.063C355.808 418.09 358.558 421.383 360.108 423.901L366.499 437.846C370.683 443.889 373.278 440.752 374.053 438.427C371.923 432.81 367.197 419.252 365.337 409.955C363.478 400.658 368.824 400.658 371.729 401.821C375.215 403.564 383.001 406.701 386.255 405.307C389.509 403.912 390.323 400.465 390.323 398.915C387.805 398.722 381.491 397.172 376.377 392.524C371.264 387.875 360.689 384.001 356.04 382.646C347.673 377.997 341.32 357.466 339.19 347.782C335.703 325.702 320.872 283.27 317.109 271.663C310.705 251.907 307.799 242.029 305.488 224.597C303.151 213.557 305.488 211.233 300.258 183.923Z"
        fill="white" stroke="black" />
</svg>