<svg width="354" height="839" viewBox="0 0 354 839" fill="none" xmlns="http://www.w3.org/2000/svg">
<path d="M306 258.493C300.4 240.093 287.333 226.16 281.5 221.493C276 227.493 274 257.493 272 261.493C270 265.493 270.5 281.493 270 282.993C269.5 284.493 272 290.493 272 296.493C272 302.493 270.5 309.493 270 313.993C269.6 317.593 267.167 325.493 266 328.993L268 339.993C270.8 349.193 288.167 373.493 296.5 384.493C296 384.66 294.6 387.193 293 395.993C291 406.993 296 444.493 295 446.993C294 449.493 300.5 477.493 299.5 477.993C298.7 478.393 292.5 488.493 289.5 493.493C287.833 499.66 285.3 514.293 288.5 523.493C291.7 532.693 295.167 527.327 296.5 523.493L297.5 511.993C298.333 507.827 300.1 501.993 300.5 511.993C300.9 521.993 297.333 529.827 295.5 532.493C294.3 543.693 302.333 538.493 306.5 534.493L306 535.993C311.2 540.793 316.833 536.327 319 533.493V535.993C327.4 537.993 330.5 531.16 331 527.493L332 531.993C338.8 529.993 340.5 521.493 340.5 517.493C346.5 504.693 343 486.827 340.5 479.493C344.667 469.66 353 443.693 353 418.493C353 386.993 344.5 364.993 343.5 362.493C342.7 360.493 341.167 348.993 340.5 343.493L327 304.493L306 258.493Z" fill="white" stroke="#3D3D3D" stroke-width="1.5"/>
<path d="M48 259.493C53.6 241.093 66.6667 227.16 72.5 222.493C78 228.493 78 259.493 80 263.493C82 267.493 81.5 282.993 82 284.493C82.5 285.993 82 291.493 82 297.493C82 303.493 83.5 310.493 84 314.993C84.4 318.593 84.8333 325.993 86 329.493L84 339.993C81.2 349.193 65.8333 374.493 57.5 385.493C58 385.66 59.4 388.193 61 396.993C63 407.993 58 445.493 59 447.993C60 450.493 53.5 478.493 54.5 478.993C55.3 479.393 61.5 489.493 64.5 494.493C66.1667 500.66 68.7 515.293 65.5 524.493C62.3 533.693 58.8333 528.327 57.5 524.493L56.5 512.993C55.6667 508.827 53.9 502.993 53.5 512.993C53.1 522.993 56.6667 530.827 58.5 533.493C59.7 544.693 51.6667 539.493 47.5 535.493L48 536.993C42.8 541.793 37.1667 537.327 35 534.493V536.993C26.6 538.993 23.5 532.16 23 528.493L22 532.993C15.2 530.993 13.5 522.493 13.5 518.493C7.5 505.693 11 487.827 13.5 480.493C9.33334 470.66 1 444.693 1 419.493C1 387.993 9.5 365.993 10.5 363.493C11.3 361.493 12.8333 349.993 13.5 344.493L27 305.493L48 259.493Z" fill="white" stroke="#3D3D3D" stroke-width="1.5"/>
<path d="M214.5 188.993C179.3 208.993 148.167 197.326 137 188.993C133.8 192.993 120 200.66 113.5 203.993C100.3 206.793 81 217.493 73 222.493C78 231.993 81 272.993 81 289.493C81 302.693 84.3333 322.993 85.9999 331.493C71.9999 408.993 89.4999 453.493 88.9999 463.493C88.5999 471.493 84.1665 489.16 81.9999 496.993C142.8 520.193 157.333 566.993 157 587.493C173.4 597.893 189.833 591.827 196 587.493C189.2 544.693 243.167 509.327 271 496.993C268.6 494.593 265.333 473.66 264 463.493C278.8 409.493 271.5 352.993 266 331.493C268.667 325.493 273.4 308.993 271 290.993C268.6 272.993 276.667 237.826 281 222.493C269.833 216.826 246 205.193 240 203.993C234 202.793 220.5 193.493 214.5 188.993Z" fill="white" stroke="#3D3D3D" stroke-width="1.5"/>
<path d="M104.5 146.493C109 159.993 126 182.493 138 190.493C171.6 208.093 200.667 197.826 211 190.493C229 182.893 242.5 157.993 247 146.493C269 118.893 263.167 102.993 257.5 98.4932C263.9 27.2932 215.5 4.82642 190.5 2.49305C177.5 -0.506945 144.8 -1.00694 118 20.9931C91.2 42.9931 90.8332 83.1597 93.9998 100.493C81.5998 113.293 95.8331 136.493 104.5 146.493Z" fill="white" stroke="#3D3D3D" stroke-width="1.5"/>
<path d="M51.5001 587.993C52.3001 569.593 72 519.16 81.5 497.493C140.3 519.493 156 561.993 156 588.993V589.993C144 628.393 129 643.326 123 645.993L127 648.493C136.2 655.693 145.5 683.493 149 696.493L158.5 750.993C165.7 772.593 163.167 785.993 161 789.993C159.5 793.327 155.9 802.993 153.5 814.993C151.1 826.993 145.5 832.66 143 833.993C130.6 840.793 125.167 832.493 124 827.493L123.5 828.993C115.9 832.993 111.333 827.327 110 823.993V824.493V824.993C102.4 826.993 100.167 821.493 100 818.493L99 819.993C91.4 819.593 90.5 814.493 91 811.993L90.5 812.993C79 808.493 89 799.493 90.5 798.993C92 798.493 96 795.493 96.5 792.493C96.9 790.093 112.333 774.493 120 766.993L96.5 734.493C81 717.993 62.5001 681.493 53.5001 658.993C44.5001 636.493 50.5001 610.993 51.5001 587.993Z" fill="white" stroke="#3D3D3D" stroke-width="1.5"/>
<path d="M302 586.987C301.156 568.072 281.026 519.767 271 497.493C208.941 520.11 194.835 560.999 196.5 586.493L196.665 588.015C209.33 627.492 225.162 642.843 231.494 645.585L231.272 648.155C221.563 655.557 211.747 684.136 208.053 697.5L198.027 753.527C190.428 775.733 193.102 789.508 195.388 793.62C196.971 797.047 200.771 806.985 203.304 819.321C205.837 831.657 209 832.993 210.5 834.993C222.844 841.587 231.269 835.518 233.219 830.494C241.24 834.605 245.093 831.92 246.5 828.493V825.493L247 826.493C255.022 828.549 255.593 826.003 255.769 822.919L256.824 824.461C264.845 824.05 265.795 818.807 265.267 816.237L265.795 817.265C277.932 812.639 267.378 803.387 265.795 802.873C264.212 802.359 259.99 799.274 259.463 796.19C259.04 793.723 242.752 777.686 234.66 769.976L259.463 736.565C275.822 719.603 301.829 683.771 304.845 658.949C308 632.993 303.056 610.632 302 586.987Z" fill="white" stroke="#3D3D3D" stroke-width="1.5"/>
</svg>
