<svg width="318" height="899" viewBox="0 0 318 899" fill="none" xmlns="http://www.w3.org/2000/svg">
<path d="M42.5056 491.793C38.9056 472.193 52.3363 403.813 58.0029 374.146C58.0029 379.146 66.5029 392.646 69.0029 396.646C70.7511 399.444 81.8363 410.146 88.0029 414.646C92.3363 419.313 99.7029 427.046 102.503 428.646C105.303 430.246 115 441 126.003 448.646C132.003 451.146 143 455 143 455C143 455 154.673 457 158.506 457V523.793C154.006 537.626 145.606 569.193 148.006 584.793C150.406 600.393 139.339 635.626 133.506 651.293C130.339 658.96 125.906 677.993 133.506 692.793C141.106 707.593 130.339 743.96 124.006 760.293L110.506 798.793V827.293L108.006 855.293C110.006 859.693 109.506 866.793 109.006 869.793C108.506 871.793 106.306 875.693 101.506 875.293C96.7059 874.893 89.1725 876.126 86.0059 876.793C85.1725 878.626 82.4059 883.193 78.0059 886.793C73.6059 890.393 68.8392 889.96 67.0059 889.293C67.1725 891.793 65.2059 896.993 56.0059 897.793C47.5719 898.526 45.497 893.993 45.4667 891.05C45.3738 892.001 45.1377 892.897 45.0059 893.293C39.5619 896.404 38.7172 892.206 38.9806 889.52C38.8222 890.251 37.9588 890.991 37.5059 891.293C32.7059 892.893 32.8392 888.96 33.5059 886.793C33.1059 887.993 32.0059 888.293 31.5059 888.293C25.5569 886.806 29.285 883.66 30.9708 882.555C29.7851 882.967 28.2243 882.58 27.5059 882.293C27.5059 875.493 33.8392 872.46 37.0059 871.793C69.8059 856.593 76.0059 833.126 75.0059 823.293C75.3392 809.626 74.4059 777.193 68.0059 756.793C61.6059 736.393 61.3392 708.293 62.0059 696.793L62.5059 695.293C64.5059 690.893 63.3392 655.46 62.5059 638.293C61.6725 624.626 57.9059 590.893 49.5059 565.293C41.1059 539.693 41.339 505.626 42.5056 491.793Z" fill="white" stroke="#3D3D3D" stroke-width="1.5"/>
<path d="M278.006 185.293C274.406 147.693 242.506 135.626 227.006 134.293C233.006 141.093 242.839 163.126 247.006 173.293L248.506 179.293L250.506 185.293V189.293V197.793L250.006 203.793L252.006 213.793L255.006 227.293C255.5 231 256.506 236.293 257.006 238.793C257.406 240.793 255.173 246.626 254.006 249.293C253.006 252.126 249.006 256.946 247.006 258.146C245.006 259.346 246.673 263.793 247.006 265.293C247.673 267.96 249.106 273.893 249.506 276.293C250.006 279.293 251.006 290.293 251.006 289.793C251.006 289.393 254.006 296.96 255.506 300.793L258.506 307.293C259.673 311.46 262.306 320.593 263.506 323.793C265.006 327.793 264.506 335.293 265.506 344.793C266.306 352.393 264.506 358.96 263.506 361.293C270.006 374.126 283.906 400.893 287.506 405.293C291.106 409.693 289.006 412.46 287.506 413.293C284.706 415.293 279.673 429.126 277.506 435.793C275.839 444.626 273.906 464.193 279.506 471.793C285.106 479.393 288.506 473.293 289.506 469.293L290.506 451.293C292.106 444.493 294.506 450.126 295.506 453.793C297.506 460.126 300.206 473.993 295.006 478.793C289.806 483.593 286.173 493.793 285.006 498.293C284.606 508.693 291.506 505.293 295.006 502.293L305.006 494.293C316.506 482.293 317.006 469.293 317.006 463.293C317.006 458.493 316.006 428.96 315.506 414.793C312.006 395.293 305.306 352.993 306.506 339.793C308.006 323.293 302.006 297.793 301.506 296.293C301.106 295.093 294.339 277.793 291.006 269.293C289.173 260.793 285.606 242.093 286.006 235.293C286.406 228.493 282.506 216.793 280.506 211.793C280.506 206.193 278.839 191.793 278.006 185.293Z" fill="white" stroke="#3D3D3D" stroke-width="1.5"/>
<path d="M274.006 489.793C277.606 470.193 262.67 405.313 257.003 375.646C257.003 380.646 251.503 390.146 249.003 394.146C247.255 396.944 237.667 410 231.5 414.5C226.494 420.707 217 428 214.506 430.293C212.132 432.476 198 441.5 190.5 446.5C184 450.833 173.5 454.5 173.5 454.5L158.006 457V521.793C162.506 535.626 170.906 567.193 168.506 582.793C166.106 598.393 177.173 633.626 183.006 649.293C186.173 656.96 190.606 675.993 183.006 690.793C175.406 705.593 186.173 741.96 192.506 758.293L206.006 796.793V825.293L208.506 853.293C206.506 857.693 207.006 864.793 207.506 867.793C208.006 869.793 210.206 873.693 215.006 873.293C219.806 872.893 227.339 874.126 230.506 874.793C231.339 876.626 234.106 881.193 238.506 884.793C242.906 888.393 247.673 887.96 249.506 887.293C249.339 889.793 251.306 894.993 260.506 895.793C268.94 896.526 271.015 891.993 271.045 889.05C271.138 890.001 271.374 890.897 271.506 891.293C276.95 894.404 277.795 890.206 277.531 887.52C277.69 888.251 278.553 888.991 279.006 889.293C283.806 890.893 283.673 886.96 283.006 884.793C283.406 885.993 284.506 886.293 285.006 886.293C290.955 884.806 287.227 881.66 285.541 880.555C286.727 880.967 288.287 880.58 289.006 880.293C289.006 873.493 282.673 870.46 279.506 869.793C246.706 854.593 240.506 831.126 241.506 821.293C241.173 807.626 242.106 775.193 248.506 754.793C254.906 734.393 255.173 706.293 254.506 694.793L254.006 693.293C252.006 688.893 253.173 653.46 254.006 636.293C254.839 622.626 258.606 588.893 267.006 563.293C275.406 537.693 275.173 503.626 274.006 489.793Z" fill="white" stroke="#3D3D3D" stroke-width="1.5"/>
<path d="M40.0029 186.293C43.6029 148.693 75.5029 136.626 91.0029 135.293C85.0029 142.093 75.1696 164.126 71.0029 174.293L69.5029 180.293L67.5029 186.293V190.293V198.793L68.0029 204.793L66.0029 214.793L63.0029 228.293C61.0029 231.293 61.5029 237.293 61.0029 239.793C60.6029 241.793 62.8363 247.626 64.0029 250.293C65.0029 253.126 67.5029 259.093 69.5029 260.293C71.5029 261.493 71.3363 264.793 71.0029 266.293C70.3363 268.96 68.9029 274.893 68.5029 277.293C68.0029 280.293 67.0029 291.293 67.0029 290.793C67.0029 290.393 64.0029 297.96 62.5029 301.793L59.5029 308.293C58.3363 312.46 55.7029 321.593 54.5029 324.793C53.0029 328.793 53.5029 336.293 52.5029 345.793C51.7029 353.393 53.5029 359.96 54.5029 362.293C48.0029 375.126 34.1029 401.893 30.5029 406.293C26.9029 410.693 29.0029 413.46 30.5029 414.293C33.3029 416.293 38.3363 430.126 40.5029 436.793C42.1696 445.626 44.1029 465.193 38.5029 472.793C32.9029 480.393 29.5029 474.293 28.5029 470.293L27.5029 452.293C25.9029 445.493 23.5029 451.126 22.5029 454.793C20.5029 461.126 17.8029 474.993 23.0029 479.793C28.2029 484.593 31.8363 494.793 33.0029 499.293C33.4029 509.693 26.5029 506.293 23.0029 503.293L13.0029 495.293C1.50293 483.293 1.00293 470.293 1.00293 464.293C1.00293 459.493 2.00293 429.96 2.50293 415.793C6.00293 396.293 12.7029 353.993 11.5029 340.793C10.0029 324.293 16.0029 298.793 16.5029 297.293C16.9029 296.093 23.6696 278.793 27.0029 270.293C28.8363 261.793 32.4029 243.093 32.0029 236.293C31.6029 229.493 35.5029 217.793 37.5029 212.793C37.5029 207.193 39.1696 192.793 40.0029 186.293Z" fill="white" stroke="#3D3D3D" stroke-width="1.5"/>
<path d="M117.006 123.793C129.006 135.626 161.806 152.093 197.006 123.293C199.339 126.793 207.906 133.893 223.506 134.293C224.046 134.307 224.557 134.32 225.042 134.332C225.03 134.319 225.018 134.306 225.006 134.293C230.798 134.454 238.547 134.677 225.042 134.332C232.057 142.033 247.012 163.535 251.006 188.293C250.339 202.126 255.003 231.646 256.006 242.793C254.672 247.293 250.506 256.893 244.506 259.293C246.672 264.293 250.906 276.793 250.506 286.793C250.006 299.293 264.506 314.793 265.506 336.793C266.506 358.793 253.006 395.793 231.506 415.293C210.006 434.793 195 444 178.5 453C178.5 453 168.876 455.992 162.5 456.5C155.08 457.091 150.757 456.656 143.5 455C135.271 453.123 132 450.5 123.506 446.793C118.382 444.557 100 425.5 84.5057 412.293C76.309 405.306 65.0057 390.96 61.0057 383.793C55.0057 367.793 46.6057 330.193 61.0057 307.793L66.5059 291.293L69.0059 270.793L73.0059 262.293C72.5059 261.293 71.0059 258.993 69.0059 257.793C66.5059 256.293 61.0059 247.293 62.5059 236.293C64.0059 225.293 70.5059 190.293 68.0059 185.293C65.5059 180.293 81.5059 145.293 93.5059 134.293C99.3391 134.293 112.206 132.193 117.006 123.793Z" fill="white"/>
<path d="M117.006 123.793C129.006 135.626 161.806 152.093 197.006 123.293C199.339 126.793 207.906 133.893 223.506 134.293C239.106 134.693 231.006 134.46 225.006 134.293C232.006 141.96 247.006 163.493 251.006 188.293C250.339 202.126 255.003 231.646 256.006 242.793C254.672 247.293 250.506 256.893 244.506 259.293C246.672 264.293 250.906 276.793 250.506 286.793C250.006 299.293 264.506 314.793 265.506 336.793C266.506 358.793 253.006 395.793 231.506 415.293C210.006 434.793 195 444 178.5 453C178.5 453 168.876 455.992 162.5 456.5C155.08 457.091 150.757 456.656 143.5 455C135.271 453.123 132 450.5 123.506 446.793C118.382 444.557 100 425.5 84.5057 412.293C76.309 405.306 65.0057 390.96 61.0057 383.793C55.0057 367.793 46.6057 330.193 61.0057 307.793L66.5059 291.293L69.0059 270.793L73.0059 262.293C72.5059 261.293 71.0059 258.993 69.0059 257.793C66.5059 256.293 61.0059 247.293 62.5059 236.293C64.0059 225.293 70.5059 190.293 68.0059 185.293C65.5059 180.293 81.5059 145.293 93.5059 134.293C99.3391 134.293 112.206 132.193 117.006 123.793Z" stroke="#3D3D3D" stroke-width="1.5"/>
<path d="M196.589 123.5C178.989 141.5 141.5 147 117.089 125C118.089 122 123 109.5 120.589 97.8609C115.702 91.4699 116.026 82.2227 116.913 77.6743C116.621 77.9695 116.194 78.357 115.589 78.8609C113.189 80.8609 109.922 75.6943 108.589 72.8609C106.089 71.3609 101.289 65.661 102.089 54.861C103.089 41.361 112.589 49.361 112.089 48.861C111.689 48.461 111.589 42.3609 111.589 39.3609C113.586 -8.28856 185.586 -11.789 192.589 30.2102C194.586 33.7102 194.586 35.7107 195.089 38.8616C195.297 40.1663 194.635 50.9535 192.781 54.9768L195.089 50.3613C201.089 43.1613 204.922 47.6947 206.089 50.8613L206.589 56.3613C206.589 57.528 206.489 60.4613 206.089 62.8613C205.689 65.2613 204.255 67.8613 203.589 68.8613L200.089 72.8613C199.922 73.528 198.989 75.4613 196.589 77.8613C194.189 80.2613 193.255 77.528 193.089 75.8613V78.3613C193.089 78.3613 193.089 90 190.5 97.8609C188.709 103.301 193.922 118.5 196.589 123.5Z" fill="white" stroke="#3D3D3D" stroke-width="1.5"/>
</svg>
