<svg width="660" height="782" viewBox="0 0 660 782" fill="none" xmlns="http://www.w3.org/2000/svg">
<path d="M444.634 453.933C441 524.098 418.5 551.5 402.283 555.239C402.447 557.232 408.403 564.603 411.361 568.039C388.724 580.734 380.173 617.925 378.726 634.934C375.777 635.678 367.643 639.256 358.697 647.616C347.515 658.066 354.968 675.515 355.213 678.504C355.41 680.896 366.603 690.947 372.176 695.674C371.334 704.974 381.99 717.444 387.423 722.516L392.043 748.224C397.601 767.032 403.738 760.308 406.111 754.594C413.145 762.044 416.683 757.071 417.573 753.653C427.233 758.88 426.504 750.411 424.932 745.523C433.965 747.993 433.629 741.465 432.332 737.892C439.711 734.878 433.15 725.45 428.948 721.113C429.397 707.029 421.342 681.436 417.258 670.4C447.568 658.278 479.146 609.464 491.146 586.571C520.075 562.523 513.492 534.902 506.585 524.098C488.763 483.019 457.859 460.205 444.634 453.933Z" fill="#FBFBFB" stroke="#2B2B2B" stroke-width="2.4"/>
<path d="M375 205.5C326.061 237.428 266.5 221 241.5 206.5C257.5 200.1 263.939 183.739 265.439 177.072C251.839 169.472 254.439 132.572 257.439 115.072C247.839 123.872 247.773 104.072 248.939 93.0718C250.139 69.0718 260.439 77.7386 265.439 85.072C265.939 55.572 267.439 -6.92801 355.439 3.07199C425.839 11.072 415.439 91.4053 401.439 130.572C413.439 148.572 392.773 156.405 380.939 158.072C380.139 172.072 369.273 182.905 363.939 186.572C363.539 197.772 371.333 204 375 205.5Z" fill="#FBFBFB" stroke="#2B2B2B" stroke-width="2.4"/>
<path d="M375.439 205.572C320.639 237.972 262.939 220.072 240.939 207.072C200.539 251.072 217.106 305.738 230.439 327.572C222.039 388.372 243.939 430.572 255.939 444.072C231.539 498.072 275.5 538.5 294 550.5C323.2 576.9 345.773 557.072 352.939 544.572C380.139 562.172 406.06 557.5 417.06 547C462 475.5 441.833 422.572 421.5 406.072C431.5 370.072 414.273 321.738 405.439 302.072C433.039 250.472 396.939 216.238 375.439 205.572Z" fill="#FBFBFB" stroke="#2B2B2B" stroke-width="2.4"/>
<path d="M315.442 563C291.5 554.5 258.5 525.5 248.442 486C215.442 506.5 185.442 563 205.442 610.5C221.442 648.5 275.775 682.667 300.942 695C292.542 703.4 290.442 734.167 290.442 748.5C282.042 758.1 289.609 761.167 294.442 761.5C292.842 771.1 298.109 768.5 300.942 766C298.942 773.2 304.109 774 306.942 773.5C309.742 781.9 313.775 777 315.442 773.5C318.609 778.833 325.442 786.3 327.442 773.5C329.942 757.5 318.442 759 320.942 757C322.942 755.4 330.775 737.667 334.442 729L351.942 713C355.542 694.2 341.775 677.5 334.442 671.5V653.5C323.642 626.7 300.609 604.333 290.442 596.5L300.942 577C312.942 573.4 315.609 566.167 315.442 563Z" fill="#FBFBFB" stroke="#2B2B2B" stroke-width="2.4"/>
<path d="M217 289C209.5 258 227 219 242.439 206C234.439 206 214.939 211 201.939 214.5C191.54 217.3 177.606 241 171.939 252.5L129.939 280.5L66.4395 330.5C57.6395 322.5 42.7728 327.167 36.4395 330.5C22.0395 330.5 18.1061 342.167 17.9394 348C13.5394 348 7.77274 355.333 5.43944 359C-4.56054 375 9.60609 374.667 17.9394 372.5C6.7394 386.9 20.6061 386.167 28.9394 384C16.9394 398.8 31.2727 398.833 39.9394 397C36.4394 401.5 35.4394 410 51.4394 406C64.2394 402.8 79.7727 382.333 85.9394 372.5C95.5394 374.5 127.606 354.333 142.439 344C160.439 344 200.333 308 217 289Z" fill="#FBFBFB" stroke="#2B2B2B" stroke-width="2.4"/>
<path d="M415.002 277.144C420.366 244.542 402.502 220.491 376.002 206.041C383.78 204.169 406.908 202.731 420.366 203.092C431.133 203.381 450.225 223.162 458.425 233.017L505.811 250.411L579.248 284.164C585.932 274.327 601.478 275.385 608.416 277.144C622.416 273.774 628.97 284.196 630.497 289.829C634.775 288.799 642.097 294.58 645.224 297.598C658.69 310.814 644.839 313.805 636.23 313.649C650.489 325.028 636.835 327.56 628.227 327.403C643.357 338.984 629.429 342.371 620.574 342.616C625.03 346.173 627.991 354.203 611.499 354.058C598.306 353.942 578.415 337.678 570.118 329.561C561.253 333.752 525.357 321.649 508.518 315.073C491.017 319.285 435.652 291.716 415.002 277.144Z" fill="#FBFBFB" stroke="#2B2B2B" stroke-width="2.4"/>
</svg>
