<svg width="508" height="880" viewBox="0 0 508 880" fill="none" xmlns="http://www.w3.org/2000/svg">
    <path
        d="M218.5 453L163.998 388C160.54 397.534 151.893 508.48 151.029 523.215C150.337 535.003 162.269 593.422 168.321 621.159C166.304 653.807 165.381 722.05 177.832 733.838C190.282 745.626 194.547 795.956 195.124 819.647C191.953 831.782 185.267 855.878 183.884 855.184C182.155 854.317 183.019 859.518 183.019 864.719C183.019 868.879 187.63 867.608 189.936 866.452C189.936 874.08 194.547 871.364 196.853 869.052C197.545 874.6 202.905 873.097 205.499 871.653C208.266 878.587 212.416 875.12 214.145 872.519C216.912 881.534 221.638 877.431 223.656 874.253C224.808 873.675 227.114 870.959 227.114 864.719C227.114 858.478 225.961 832.071 225.385 819.647C229.535 814.1 230.573 804.045 230.573 799.711C228.267 790.755 224.002 770.415 225.385 760.707C226.768 751 234.607 709.279 238.354 689.633C240.371 678.365 243.196 651.669 238.354 635.027C233.512 618.385 241.601 533.527 246.5 492.5C225.5 486.5 217.924 463.69 218.5 453Z"
        fill="#FBFBFB" stroke="#2B2B2B" stroke-width="2.5" />
    <path
        d="M247.5 493C272 489 281.5 463 279.5 451L303.785 419.637L330.867 388C334.361 397.534 343.097 508.48 343.971 523.215C344.67 535.003 332.614 593.422 326.499 621.159C328.537 653.807 329.469 722.05 316.889 733.838C304.309 745.626 299.999 795.956 299.417 819.647C302.62 831.782 309.376 855.878 310.774 855.184C312.521 854.317 311.647 859.518 311.647 864.719C311.647 868.879 306.988 867.608 304.658 866.452C304.658 874.08 299.999 871.364 297.669 869.052C296.971 874.6 291.554 873.097 288.933 871.653C286.138 878.587 281.944 875.12 280.197 872.519C277.402 881.534 272.626 877.431 270.588 874.253C269.423 873.675 267.093 870.959 267.093 864.719C267.093 858.478 268.258 832.071 268.84 819.647C264.647 814.1 263.599 804.045 263.599 799.711C265.928 790.755 270.238 770.415 268.84 760.707C267.443 751 259.522 709.279 255.736 689.633C253.698 678.365 250.844 651.669 255.736 635.027C260.628 618.385 252.45 534.027 247.5 493Z"
        fill="#FBFBFB" stroke="#2B2B2B" stroke-width="2.5" />
    <path
        d="M166.409 304.656C188.687 222.849 166.99 178.132 153.356 166C115.935 177.266 128.119 204.13 117.677 221.462C109.322 235.328 106.074 278.08 105.493 297.723C82.5192 323.374 58.2106 389.871 48.9281 419.913C35.8746 423.38 33.2639 425.98 29.7829 427.713C26.9982 429.099 25.7218 429.446 25.4318 429.446C22.2409 429.735 14.4668 431.085 8.89729 434.175C3.32779 437.266 6.57666 439.82 8.89729 440.712C9.76753 441.578 13.9447 442.618 23.6913 439.845C33.4379 437.072 29.493 442.156 26.3022 445.045L16.7294 456.31L3.67615 473.642C-1.19716 485.428 5.7067 482.02 9.76779 478.842L22.8213 463.243C30.4794 457.004 28.3328 462.954 26.3022 466.71L14.9892 487.508C11.5083 495.827 17.5999 495.019 21.0809 493.574L22.8213 491.841C23.9816 488.952 27.8686 480.749 34.1343 471.043C40.4 461.337 37.9053 468.732 35.8748 473.642L26.3022 491.841C23.5174 502.24 30.3633 499.063 34.1343 496.174L35.8748 491.841L46.3176 473.642C53.2794 466.016 53.8596 471.62 53.2794 475.376C52.9893 477.398 52.0609 482.655 50.6685 487.508C48.9281 493.574 52.409 494.441 55.8899 491.841C58.6747 489.761 61.6912 478.842 62.8514 473.642C62.1552 468.096 68.3629 459.199 71.5538 455.444C72.9461 444.351 84.8974 424.246 90.6989 415.58C124.812 392.702 155.386 332.098 166.409 304.656Z"
        fill="#FBFBFB" stroke="#2B2B2B" stroke-width="2.5" />
    <path
        d="M249.116 415.032C225.499 415.032 218.232 443.909 219.09 454.016C221.149 481.738 239.965 491.556 249.116 493C273.136 486.763 279.713 464.412 279.999 454.016C275.195 421.443 257.408 414.455 249.116 415.032Z"
        fill="#FBFBFB" stroke="#2B2B2B" stroke-width="2.5" />
    <path
        d="M338.15 296.038C319.163 213.358 342.52 169.484 356.572 157.882C393.398 170.606 380.213 196.997 389.935 214.737C397.713 228.929 399.277 271.81 399.086 291.477C420.963 318.024 442.571 385.472 450.64 415.878C463.505 419.852 466.003 422.554 469.402 424.423C472.121 425.918 473.378 426.314 473.667 426.326C476.834 426.739 484.523 428.392 489.949 431.699C495.374 435.007 492.039 437.435 489.693 438.236C488.793 439.069 484.592 439.946 474.994 436.793C465.396 433.64 469.126 438.878 472.19 441.892L481.283 453.531L493.605 471.372C497.997 483.348 491.255 479.671 487.335 476.335L474.945 460.227C467.563 453.689 469.468 459.723 471.343 463.558L481.796 484.798C484.938 493.253 478.903 492.207 475.492 490.627L473.827 488.826C472.784 485.892 469.234 477.537 463.374 467.586C457.514 457.636 459.709 465.128 461.539 470.118L470.36 488.691C472.727 499.199 466.034 495.755 462.391 492.719L460.827 488.318L451.139 469.712C444.504 461.814 443.707 467.396 444.138 471.174C444.348 473.207 445.067 478.501 446.264 483.409C447.76 489.543 444.259 490.274 440.895 487.539C438.203 485.35 435.625 474.313 434.673 469.068C435.584 463.548 429.749 454.409 426.718 450.529C425.766 439.382 414.65 418.81 409.211 409.918C376.133 385.71 348.054 323.911 338.15 296.038Z"
        fill="#FBFBFB" stroke="#2B2B2B" stroke-width="2.5" />
    <path
        d="M283.176 111C256.127 141.477 229.714 123.699 219.888 111C219.888 121.39 204.283 140.438 193.88 144.767C185.557 148.23 163.825 160.063 154 165.547C179.662 198.102 177.624 249.532 173 271.177C179.242 298.191 169.202 360.294 164 388L218.155 453C219.021 440.59 226.13 415.596 247.631 414.904C274.506 414.038 278.841 453.866 279.708 451.268C280.402 449.19 314.097 408.266 330.858 388.063C320.455 362.435 329.165 298.284 333.5 270C322 221.5 341.5 171.5 356 157.754C353 153 338.95 147.076 330.858 144.767C298.261 139.918 285.488 120.235 283.176 111Z"
        fill="#FBFBFB" stroke="#2B2B2B" stroke-width="2.5" />
    <path
        d="M283 111.5C258.5 139.5 231.851 125.728 220 111.5C220 108.753 215.137 98.9854 213.335 95.3658L213.257 95.2079C193.832 74.3015 199.96 63.8483 205.452 61.2349C202.677 17.3314 232.045 3.45184 247.076 2C288.701 8.27194 295.638 44.1033 293.904 61.2349C304.31 68.9007 292.458 87.0776 285.232 95.2079L283 111.5Z"
        fill="#FBFBFB" stroke="#2B2B2B" stroke-width="2.5" />
</svg>