<svg width="313" height="868" viewBox="0 0 313 868" fill="none" xmlns="http://www.w3.org/2000/svg">
<path d="M114.507 127.592C128.174 138.092 164.407 152.792 200.007 127.592C203.507 130.925 213.207 137.092 224.007 135.092C224.341 148.258 228.007 181.892 240.007 211.092C238.841 225.592 238.207 258.992 245.007 276.592C253.507 298.592 264.507 324.592 261.507 360.592V378.092C261.507 380.892 267.174 424.258 270.007 445.592C266 466.5 248 499.5 193 496.5C174.5 493.5 172 494 160.002 483.592L159.514 474.46C159.146 478.667 158.374 481.931 157.007 483.592C150.5 491.5 139.494 494 117.499 494C87.5001 491 47.5072 485.5 47.5073 427.592L56.0075 366.092L54.0075 358.092C53.8409 340.758 56.8075 301.192 70.0075 281.592L75.0075 259.092C77.1742 243.425 81.0075 209.992 79.0075 201.592C82.6742 185.925 89.1075 150.692 85.5075 135.092C92.8407 135.258 108.907 133.992 114.507 127.592Z" fill="white"/>
<path d="M114.507 127.592C128.174 138.092 164.407 152.792 200.007 127.592C203.507 130.925 213.207 137.092 224.007 135.092C224.341 148.258 228.007 181.892 240.007 211.092C238.841 225.592 238.207 258.992 245.007 276.592C253.507 298.592 264.507 324.592 261.507 360.592C261.507 365.258 261.507 375.292 261.507 378.092C261.507 380.892 267.174 424.258 270.007 445.592C266 466.5 248 499.5 193 496.5C174.5 493.5 172 494 160.002 483.592L157.007 427.592C158.174 442.758 162.633 476.755 157.007 483.592C150.5 491.5 139.494 494 117.499 494C87.5001 491 47.5072 485.5 47.5073 427.592L56.0075 366.092L54.0075 358.092C53.8409 340.758 56.8075 301.192 70.0075 281.592L75.0075 259.092C77.1742 243.425 81.0075 209.992 79.0075 201.592C82.6742 185.925 89.1075 150.692 85.5075 135.092C92.8407 135.258 108.907 133.992 114.507 127.592Z" stroke="#3D3D3D" stroke-width="1.5"/>
<path d="M115.5 82.0921C115.1 85.6921 117.333 95.2588 118.5 99.5921C118.5 99.5921 119.333 108.74 119 114.592C118.686 120.106 115 127.5 115 127.5C146 151 184.5 140.5 199.5 127.5L192.5 122.5L190.5 119.5C187.026 112.055 187.821 106.088 188.485 101.109L188.5 101C192.1 95.8 190.667 85.5916 190.5 80.0916L191 82.5916C192.6 85.7916 195.667 81.2583 197 78.5916L202 72.5916C204 70.1916 204.5 62.5916 204.5 59.0916C203.3 47.4916 196 52.2583 192.5 56.0916C194 49.5919 193.123 45.5835 192.5 36.5916C189 -13.9083 106 -9.40807 110 42.0917L111.75 49.8417L113.5 57.5917L111.5 54.0921C104 48.5921 102 56.5921 102 57.0921V63.5921C102 68.3921 104.667 72.9255 106 74.5921L109.5 79.5921C113.1 85.1921 115 82.2588 115.5 80.0921V82.0921Z" fill="white" stroke="#3D3D3D" stroke-width="1.5"/>
<path d="M275 193.592C273.8 149.992 240.5 136.758 224 135.592C223.2 160.392 231.334 188.592 235.5 199.592L239.5 212.092C237.9 216.092 238.834 238.425 239.5 249.092C238.3 253.892 242.334 270.092 244.5 277.592C247.167 284.758 251.9 299.692 253.5 302.092C255.5 305.092 258 322.592 259.5 331.092C260.7 337.892 261.5 354.258 261 361.592C266.5 373.425 278.6 398.192 283 402.592C287.4 406.992 283.834 412.092 281.5 414.092L275.5 428.592C273 438.425 269.5 460.192 275.5 468.592C281.5 476.992 285 469.425 286 464.592C286.167 462.758 286.4 456.992 286 448.592C285.6 440.192 288.167 445.758 289.5 449.592C290 451.092 291.5 455.692 293.5 462.092C295.5 468.492 293.334 472.758 292 474.092C289.167 476.592 283.2 484.092 282 494.092C280.8 504.092 287.5 500.592 291 497.592L299 490.592C309.8 484.192 311.834 473.258 311.5 468.592V428.592C312.7 420.592 309 395.258 307 383.592C304.667 373.092 300.4 348.492 302 334.092C303.6 319.692 298.334 300.758 295.5 293.092C288 276.592 286.5 264.092 284.5 260.592C282.9 257.792 281.834 239.758 281.5 231.092C280.334 225.258 277.7 212.992 276.5 210.592C275.3 208.192 275 198.258 275 193.592Z" fill="white" stroke="#3D3D3D" stroke-width="1.5"/>
<path d="M37.7344 194.592C38.9344 150.992 70.0009 136.258 86.5009 135.092C89.0005 148.592 84.0009 188.092 80.5005 200.092L80.0007 206.592C81.6007 210.592 77.6674 239.425 77.0007 250.092C76.532 257.592 73.1674 273.092 71.0007 280.592C68.3341 287.758 62.6007 302.692 61.0007 305.092C59.0007 308.092 57.7362 322.947 56.5007 331.592C55.5003 338.592 54.5003 351.092 54.5003 358.592C49.0003 370.425 34.1344 399.192 29.7344 403.592C25.3344 407.992 28.9011 413.092 31.2344 415.092L37.2344 429.592C39.7344 439.425 43.2344 461.192 37.2344 469.592C31.2344 477.992 27.7344 470.425 26.7344 465.592C26.5677 463.758 26.3344 457.992 26.7344 449.592C27.1344 441.192 24.5677 446.758 23.2344 450.592C22.7344 452.092 21.2344 456.692 19.2344 463.092C17.2344 469.492 19.4011 473.758 20.7344 475.092C23.5677 477.592 29.5344 485.092 30.7344 495.092C31.9344 505.092 25.2344 501.592 21.7344 498.592L13.7344 491.592C2.9344 485.192 0.90107 474.258 1.23441 469.592V429.592C0.0344086 421.592 3.73441 396.258 5.73441 384.592C8.06774 374.092 12.3344 349.492 10.7344 335.092C9.13441 320.692 14.4011 301.758 17.2344 294.092C24.7344 277.592 26.2344 265.092 28.2344 261.592C29.8344 258.792 30.9011 240.758 31.2344 232.092C32.4011 226.258 35.0344 213.992 36.2344 211.592C37.4344 209.192 37.7344 199.258 37.7344 194.592Z" fill="white" stroke="#3D3D3D" stroke-width="1.5"/>
<path d="M46.5003 527.092C40.9003 512.292 44.1669 459 46.5003 434C46.5003 439.667 48.7003 451.992 59.5005 469.592C70.3007 487.192 91.0005 493.592 110 493.592H115H122.5H128.5C130.667 493.925 137.9 493.392 141.5 492.592C145.1 491.792 149.334 489.258 151 488.092C154.2 487.692 157.667 478.667 159 476.5V509.092L156 530.092C153.167 542.592 147.6 568.692 148 573.092C148.5 578.592 144 609.092 139.5 620.092C135.9 628.892 132.334 642.758 131 648.592C131.167 656.425 132.2 674.592 135 684.592C137.8 694.592 134.834 712.758 133 720.592L121 751.092C114 763.592 113 788.092 111 796.592C109.4 803.392 111.667 833.425 113 847.592C112.5 868.592 98.0005 864.592 91.0005 865.092C85.4005 865.492 79.6672 861.592 77.5005 859.592C65.5005 861.992 55.8338 857.592 52.5005 855.092C50.1005 856.292 47.1672 856.258 46.0005 856.092C43.5005 854.758 40.6005 851.092 49.0005 847.092C59.5005 842.092 65.5005 831.092 70.5005 820.592C75.5005 810.092 75.5005 779.092 72.5005 762.092C69.5005 745.092 62.0005 710.592 63.0005 706.592C64.0005 702.592 65.5005 652.592 65.5005 651.592C65.5005 650.792 63.8338 618.592 63.0005 602.592C62.1672 593.092 59.3005 571.592 54.5005 561.592C49.7005 551.592 47.167 534.425 46.5003 527.092Z" fill="white" stroke="#3D3D3D" stroke-width="1.5"/>
<path d="M271.5 528.5C277.1 513.7 272.833 471 270.5 446C270.5 451.667 269.3 453.4 258.5 471C247.7 488.6 227 495 208 495H203H195.5H189.5C187.333 495.333 180.1 494.8 176.5 494C172.9 493.2 168.666 490.667 167 489.5C163.8 489.1 160.333 481.167 159 479V510.5L162 531.5C164.833 544 170.4 570.1 170 574.5C169.5 580 174 610.5 178.5 621.5C182.1 630.3 185.666 644.167 187 650C186.833 657.833 185.8 676 183 686C180.2 696 183.166 714.167 185 722L197 752.5C204 765 205 789.5 207 798C208.6 804.8 206.333 834.833 205 849C205.5 870 220 866 227 866.5C232.6 866.9 238.333 863 240.5 861C252.5 863.4 262.166 859 265.5 856.5C267.9 857.7 270.833 857.667 272 857.5C274.5 856.167 277.4 852.5 269 848.5C258.5 843.5 252.5 832.5 247.5 822C242.5 811.5 242.5 780.5 245.5 763.5C248.5 746.5 256 712 255 708C254 704 252.5 654 252.5 653C252.5 652.2 254.166 620 255 604C255.833 594.5 258.7 573 263.5 563C268.3 553 270.833 535.833 271.5 528.5Z" fill="white" stroke="#3D3D3D" stroke-width="1.5"/>
</svg>
