<svg width="55" height="84" viewBox="0 0 55 84" fill="none" xmlns="http://www.w3.org/2000/svg">
<path d="M35.3571 0H19.6429C0 0 0 7.63636 0 7.63636V53.4545C0 53.4545 0 61.0909 19.6429 61.0909V68.7273H23.5714V72.5455C23.5714 77.1655 26.7143 84 35.3571 84H51.0714V76.3636H35.3571C32.175 76.3636 31.4286 74.2636 31.4286 72.5455V68.7273H35.3571V61.0909C55 61.0909 55 53.4545 55 53.4545V7.63636C55 7.63636 55 0 35.3571 0ZM47.1429 42H35.3571V38.1818H47.1429V42ZM47.1429 15.2727H35.3571V19.0909H47.1429V26.7273H35.3571V30.5455H47.1429V34.3636H7.85714V9.54545C9.03571 8.85818 12.2964 7.63636 19.6429 7.63636H35.3571C42.7429 7.63636 45.9643 8.85818 47.1429 9.54545V15.2727Z" fill="#E03339"/>
</svg>
