<svg width="100" height="100" viewBox="0 0 100 100" fill="none" xmlns="http://www.w3.org/2000/svg">
<path d="M45.1172 56.0547H58.0078V64.2578H45.1172V56.0547Z" fill="#E24E4E"/>
<path d="M90.8203 39.2578H37.5C32.4383 39.2578 28.3203 43.3758 28.3203 48.4375V67.4846C23.9045 68.1465 20.5078 71.9652 20.5078 76.5625V78.3203H15.4297C10.1525 78.3203 5.85938 74.0271 5.85938 68.75V31.25C5.85938 25.9729 10.1525 21.6797 15.4297 21.6797H66.1346C67.4832 27.9234 73.0463 32.6172 79.6875 32.6172C87.3338 32.6172 93.5547 26.3963 93.5547 18.75C93.5547 11.1037 87.3338 4.88281 79.6875 4.88281C73.0463 4.88281 67.4832 9.57656 66.1346 15.8203H15.4297C6.92168 15.8203 0 22.742 0 31.25V68.75C0 77.258 6.92168 84.1797 15.4297 84.1797H20.5078V85.9375C20.5078 90.9992 24.6258 95.1172 29.6875 95.1172H90.8203C95.882 95.1172 100 90.9992 100 85.9375V48.4375C100 43.3758 95.882 39.2578 90.8203 39.2578ZM79.6875 15.8207C81.3055 15.8207 82.6172 17.1324 82.6172 18.7504C82.6172 20.3684 81.3055 21.6801 79.6875 21.6801C78.0695 21.6801 76.7578 20.3684 76.7578 18.7504C76.7578 17.1324 78.0695 15.8207 79.6875 15.8207ZM48.2422 81.25C48.2422 82.868 46.9305 84.1797 45.3125 84.1797C43.6945 84.1797 42.3828 82.868 42.3828 81.25V79.6875C42.3828 78.0695 43.6945 76.7578 45.3125 76.7578C46.9305 76.7578 48.2422 78.0695 48.2422 79.6875V81.25ZM60.7422 81.25C60.7422 82.868 59.4305 84.1797 57.8125 84.1797C56.1945 84.1797 54.8828 82.868 54.8828 81.25V79.6875C54.8828 78.0695 56.1945 76.7578 57.8125 76.7578C59.4305 76.7578 60.7422 78.0695 60.7422 79.6875V81.25ZM63.8672 67.1875C63.8672 68.8055 62.5555 70.1172 60.9375 70.1172H42.1875C40.5695 70.1172 39.2578 68.8055 39.2578 67.1875V53.125C39.2578 51.507 40.5695 50.1953 42.1875 50.1953H60.9375C62.5555 50.1953 63.8672 51.507 63.8672 53.125V67.1875ZM73.2422 81.25C73.2422 82.868 71.9305 84.1797 70.3125 84.1797C68.6945 84.1797 67.3828 82.868 67.3828 81.25V79.6875C67.3828 78.0695 68.6945 76.7578 70.3125 76.7578C71.9305 76.7578 73.2422 78.0695 73.2422 79.6875V81.25ZM85.7422 81.25C85.7422 82.868 84.4305 84.1797 82.8125 84.1797C81.1945 84.1797 79.8828 82.868 79.8828 81.25V79.6875C79.8828 78.0695 81.1945 76.7578 82.8125 76.7578C84.4305 76.7578 85.7422 78.0695 85.7422 79.6875V81.25ZM85.9375 68.5547H73.4375C71.8195 68.5547 70.5078 67.243 70.5078 65.625C70.5078 64.007 71.8195 62.6953 73.4375 62.6953H85.9375C87.5555 62.6953 88.8672 64.007 88.8672 65.625C88.8672 67.243 87.5555 68.5547 85.9375 68.5547ZM85.9375 57.6172H73.4375C71.8195 57.6172 70.5078 56.3055 70.5078 54.6875C70.5078 53.0695 71.8195 51.7578 73.4375 51.7578H85.9375C87.5555 51.7578 88.8672 53.0695 88.8672 54.6875C88.8672 56.3055 87.5555 57.6172 85.9375 57.6172Z" fill="#E24E4E"/>
</svg>
