<?xml version="1.0" encoding="UTF-8"?>
<svg width="55" height="84" version="1.1" viewBox="0 0 1200 1200" xmlns="http://www.w3.org/2000/svg">
 <path d="m237.75 765.9 13.445-73.895c18.824-103.52 66.637-198.99 138.23-276.11 81.43-87.695 191.2-147.26 309.09-167.77l64.633-11.25c89.102-15.508 172.05-50.738 244.12-103.07l16.215 16.203-59.961 59.961-45.227 25.836c-53.57 30.602-111.71 50.551-172.78 59.289-111.64 15.938-217.01 68.625-296.74 148.37l-5.3047 5.3047c-79.742 79.742-132.41 185.14-148.37 296.74-8.7188 61.07-28.668 119.2-59.27 172.78l-25.855 45.242-59.984 59.969-15.918-15.918c52.219-71.344 87.637-153.49 103.67-241.67zm546.24-323.38c-4.4062 8.6641-8.7383 17.398-12.824 26.25l-18.207 39.43c-24.77 53.68-58.539 102.09-100.86 144.41-41.793 41.793-90.207 75.562-143.91 100.35l-39.449 18.207c-8.8516 4.0859-17.57 8.3984-26.23 12.805zm-367.98 314.96c4.4062-8.6641 8.7383-17.398 12.824-26.25l18.207-39.43c24.77-53.68 58.539-102.09 100.86-144.41 41.793-41.793 90.207-75.562 143.91-100.35l39.449-18.207c8.8516-4.0859 17.57-8.3984 26.23-12.805zm299.51-362.7-39.449 18.207c-57.73 26.645-109.78 62.945-155.21 108.38-44.945 44.961-81.242 97.012-107.89 154.73l-18.207 39.43c-24.656 53.457-55.594 103.18-92.082 148.78 13.988-36.488 23.945-74.398 29.531-113.48 14.793-103.63 63.711-201.49 137.76-275.53l5.3047-5.3047c74.023-74.023 171.88-122.96 275.53-137.76 39.055-5.5859 76.969-15.523 113.44-29.512-45.582 36.488-95.309 67.406-148.73 92.062zm-231.04 410.44 39.449-18.207c57.73-26.645 109.78-62.945 155.21-108.38 44.945-44.961 81.242-97.012 107.89-154.73l18.207-39.43c24.656-53.457 55.594-103.18 92.082-148.78-13.988 36.469-23.945 74.398-29.531 113.48-14.793 103.63-63.711 201.49-137.76 275.53l-5.3047 5.3047c-74.023 74.023-171.88 122.96-275.53 137.76-39.055 5.5859-76.969 15.523-113.44 29.512 45.602-36.488 95.309-67.406 148.73-92.062zm-360.97 319.78-11.008 10.988-48.488-48.488 11.008-10.988c12.582-12.582 24.336-25.801 35.645-39.336l52.18 52.18c-13.539 11.309-26.758 23.043-39.336 35.645zm839.64-688.16-11.25 64.648c-20.512 117.88-80.082 227.66-167.77 309.09-77.102 71.605-172.59 119.4-276.13 138.23l-73.895 13.426c-88.199 16.051-170.34 51.469-241.67 103.69l-15.918-15.918 59.961-59.961 45.227-25.836c53.57-30.602 111.71-50.551 172.78-59.289 111.64-15.938 217.01-68.625 296.74-148.37l5.3047-5.3047c79.742-79.742 132.41-185.14 148.37-296.74 8.7188-61.07 28.668-119.2 59.27-172.78l25.855-45.242 59.984-59.969 16.219 16.219c-52.332 72.094-87.582 155.04-103.07 244.11zm163.54-315.04c-13.164 13.164-25.387 27.039-37.145 41.211l-52.555-52.555c14.195-11.758 28.051-23.98 41.211-37.145l9.3008-9.3008 48.488 48.488z" fill="white"/>
</svg>
