<?xml version="1.0" encoding="UTF-8"?>
<svg width="55" height="84" version="1.1" viewBox="0 0 1200 1200" xmlns="http://www.w3.org/2000/svg">
 <g>
  <path d="m700 784.55v-59.551h-200v59.551l-100 50v215.45c0 13.262 5.2695 25.98 14.645 35.355s22.094 14.645 35.355 14.645h300c13.262 0 25.98-5.2695 35.355-14.645s14.645-22.094 14.645-35.355v-215.45zm0 190.45h-200v-50h200z" fill="black"/>
  <path d="m625 275c0 13.809-11.191 25-25 25s-25-11.191-25-25 11.191-25 25-25 25 11.191 25 25" fill="black"/>
  <path d="m700 200c0 13.809-11.191 25-25 25s-25-11.191-25-25 11.191-25 25-25 25 11.191 25 25" fill="black"/>
  <path d="m550 200c0 13.809-11.191 25-25 25s-25-11.191-25-25 11.191-25 25-25 25 11.191 25 25" fill="black"/>
  <path d="m475 125c0 13.809-11.191 25-25 25s-25-11.191-25-25 11.191-25 25-25 25 11.191 25 25" fill="black"/>
  <path d="m625 125c0 13.809-11.191 25-25 25s-25-11.191-25-25 11.191-25 25-25 25 11.191 25 25" fill="black"/>
  <path d="m775 125c0 13.809-11.191 25-25 25s-25-11.191-25-25 11.191-25 25-25 25 11.191 25 25" fill="black"/>
  <path d="m525 625h-75v50h300v-50h-77.176l-25-275h-95.648l-25 275z" fill="black"/>
 </g>
</svg>
