<svg width="98" height="98" viewBox="0 0 98 98" fill="none" xmlns="http://www.w3.org/2000/svg">
<g clip-path="url(#clip0_3_604)">
<path d="M50.7492 53.2727C56.2717 52.3733 60.0195 47.1673 59.1201 41.6448C58.2207 36.1223 53.0147 32.3745 47.4922 33.2739C41.9697 34.1733 38.2219 39.3793 39.1213 44.9018C40.0207 50.4243 45.2267 54.1721 50.7492 53.2727Z" fill="#E5317D"/>
<path d="M49 0C21.939 0 0 21.939 0 49C0 76.061 21.939 98 49 98C76.061 98 98 76.061 98 49C98 21.939 76.061 0 49 0ZM60.4557 61.9371L53.4023 74.1546C52.9695 74.9038 52.3471 75.5259 51.5977 75.9584C50.8483 76.391 49.9983 76.6187 49.133 76.6187C48.2678 76.6187 47.4177 76.391 46.6683 75.9584C45.9189 75.5259 45.2966 74.9038 44.8637 74.1546L37.8104 61.9371C33.7353 59.4656 30.5809 55.7285 28.8286 51.2963C27.0763 46.8642 26.8224 41.9804 28.1055 37.3904C29.3887 32.8004 32.1385 28.7563 35.9352 25.8754C39.7319 22.9945 44.367 21.435 49.133 21.435C53.899 21.435 58.5341 22.9945 62.3308 25.8754C66.1276 28.7563 68.8774 32.8004 70.1605 37.3904C71.4437 41.9804 71.1897 46.8642 69.4374 51.2963C67.6851 55.7285 64.5307 59.4656 60.4557 61.9371Z" fill="#E5317D"/>
</g>
<defs>
<clipPath id="clip0_3_604">
<rect width="98" height="98" fill="white"/>
</clipPath>
</defs>
</svg>
