<svg width="879" height="143" viewBox="0 0 879 143" fill="none" xmlns="http://www.w3.org/2000/svg">
<path d="M3.24 88V56.365H7.56L20.385 76.885H17.91L30.69 56.365H35.01V88H28.935V66.85L30.105 67.21L21.195 81.52H17.055L8.145 67.21L9.36 66.85V88H3.24ZM49.9324 88.45C47.9524 88.45 46.1674 87.955 44.5774 86.965C42.9874 85.975 41.7424 84.625 40.8424 82.915C39.9424 81.205 39.4924 79.285 39.4924 77.155C39.4924 74.995 39.9424 73.06 40.8424 71.35C41.7424 69.64 42.9874 68.29 44.5774 67.3C46.1674 66.31 47.9524 65.815 49.9324 65.815C51.4924 65.815 52.8874 66.13 54.1174 66.76C55.3474 67.39 56.3224 68.275 57.0424 69.415C57.7924 70.525 58.1974 71.785 58.2574 73.195V81.025C58.1974 82.465 57.7924 83.74 57.0424 84.85C56.3224 85.96 55.3474 86.845 54.1174 87.505C52.8874 88.135 51.4924 88.45 49.9324 88.45ZM51.0124 83.005C52.6624 83.005 53.9974 82.465 55.0174 81.385C56.0374 80.275 56.5474 78.85 56.5474 77.11C56.5474 75.97 56.3074 74.965 55.8274 74.095C55.3774 73.195 54.7324 72.505 53.8924 72.025C53.0824 71.515 52.1224 71.26 51.0124 71.26C49.9324 71.26 48.9724 71.515 48.1324 72.025C47.3224 72.505 46.6774 73.195 46.1974 74.095C45.7474 74.965 45.5224 75.97 45.5224 77.11C45.5224 78.28 45.7474 79.315 46.1974 80.215C46.6774 81.085 47.3224 81.775 48.1324 82.285C48.9724 82.765 49.9324 83.005 51.0124 83.005ZM56.2324 88V82.15L57.1774 76.84L56.2324 71.62V66.265H62.0824V88H56.2324ZM80.8875 88L75.1725 79.18L73.9575 78.28L65.4975 66.265H72.4725L77.7375 74.23L78.8625 75.085L87.8175 88H80.8875ZM65.0475 88L73.9125 75.58L77.2875 79.585L71.7075 88H65.0475ZM79.0875 78.235L75.6225 74.275L80.7975 66.265H87.4125L79.0875 78.235ZM104.771 88V83.005H113.006C114.476 83.005 115.616 82.555 116.426 81.655C117.266 80.755 117.686 79.69 117.686 78.46C117.686 77.62 117.506 76.855 117.146 76.165C116.786 75.475 116.246 74.935 115.526 74.545C114.836 74.125 113.996 73.915 113.006 73.915H104.771V68.965H112.331C113.591 68.965 114.596 68.65 115.346 68.02C116.126 67.39 116.516 66.445 116.516 65.185C116.516 63.895 116.126 62.935 115.346 62.305C114.596 61.675 113.591 61.36 112.331 61.36H104.771V56.365H113.051C115.151 56.365 116.906 56.755 118.316 57.535C119.756 58.285 120.836 59.29 121.556 60.55C122.276 61.78 122.636 63.13 122.636 64.6C122.636 66.4 122.081 67.96 120.971 69.28C119.891 70.57 118.301 71.53 116.201 72.16L116.471 70.18C118.811 70.84 120.611 71.935 121.871 73.465C123.161 74.965 123.806 76.78 123.806 78.91C123.806 80.59 123.386 82.12 122.546 83.5C121.736 84.85 120.536 85.945 118.946 86.785C117.386 87.595 115.481 88 113.231 88H104.771ZM100.271 88V56.365H106.346V88H100.271ZM128.03 88V55.465H133.925V88H128.03ZM149.363 88.45C147.173 88.45 145.193 87.955 143.423 86.965C141.683 85.945 140.288 84.58 139.238 82.87C138.218 81.13 137.708 79.195 137.708 77.065C137.708 74.935 138.218 73.03 139.238 71.35C140.258 69.64 141.653 68.29 143.423 67.3C145.193 66.28 147.158 65.77 149.318 65.77C151.538 65.77 153.518 66.28 155.258 67.3C157.028 68.29 158.423 69.64 159.443 71.35C160.463 73.03 160.973 74.935 160.973 77.065C160.973 79.195 160.463 81.13 159.443 82.87C158.423 84.58 157.028 85.945 155.258 86.965C153.518 87.955 151.553 88.45 149.363 88.45ZM149.318 82.96C150.428 82.96 151.403 82.72 152.243 82.24C153.113 81.73 153.773 81.04 154.223 80.17C154.703 79.27 154.943 78.25 154.943 77.11C154.943 75.97 154.703 74.965 154.223 74.095C153.743 73.225 153.083 72.55 152.243 72.07C151.403 71.56 150.428 71.305 149.318 71.305C148.238 71.305 147.278 71.56 146.438 72.07C145.598 72.55 144.938 73.225 144.458 74.095C143.978 74.965 143.738 75.97 143.738 77.11C143.738 78.25 143.978 79.27 144.458 80.17C144.938 81.04 145.598 81.73 146.438 82.24C147.278 82.72 148.238 82.96 149.318 82.96ZM174.983 88.45C172.793 88.45 170.813 87.955 169.043 86.965C167.303 85.945 165.908 84.58 164.858 82.87C163.838 81.13 163.328 79.195 163.328 77.065C163.328 74.935 163.838 73.03 164.858 71.35C165.878 69.64 167.273 68.29 169.043 67.3C170.813 66.28 172.778 65.77 174.938 65.77C177.158 65.77 179.138 66.28 180.878 67.3C182.648 68.29 184.043 69.64 185.063 71.35C186.083 73.03 186.593 74.935 186.593 77.065C186.593 79.195 186.083 81.13 185.063 82.87C184.043 84.58 182.648 85.945 180.878 86.965C179.138 87.955 177.173 88.45 174.983 88.45ZM174.938 82.96C176.048 82.96 177.023 82.72 177.863 82.24C178.733 81.73 179.393 81.04 179.843 80.17C180.323 79.27 180.563 78.25 180.563 77.11C180.563 75.97 180.323 74.965 179.843 74.095C179.363 73.225 178.703 72.55 177.863 72.07C177.023 71.56 176.048 71.305 174.938 71.305C173.858 71.305 172.898 71.56 172.058 72.07C171.218 72.55 170.558 73.225 170.078 74.095C169.598 74.965 169.358 75.97 169.358 77.11C169.358 78.25 169.598 79.27 170.078 80.17C170.558 81.04 171.218 81.73 172.058 82.24C172.898 82.72 173.858 82.96 174.938 82.96ZM199.568 88.45C197.558 88.45 195.758 87.955 194.168 86.965C192.578 85.975 191.318 84.625 190.388 82.915C189.488 81.205 189.038 79.285 189.038 77.155C189.038 74.995 189.488 73.06 190.388 71.35C191.318 69.64 192.563 68.29 194.123 67.3C195.713 66.31 197.528 65.815 199.568 65.815C201.128 65.815 202.523 66.13 203.753 66.76C205.013 67.39 206.018 68.275 206.768 69.415C207.548 70.525 207.968 71.785 208.028 73.195V80.935C207.968 82.345 207.563 83.62 206.813 84.76C206.063 85.9 205.058 86.8 203.798 87.46C202.538 88.12 201.128 88.45 199.568 88.45ZM200.558 83.005C201.668 83.005 202.628 82.765 203.438 82.285C204.278 81.775 204.923 81.085 205.373 80.215C205.853 79.315 206.093 78.28 206.093 77.11C206.093 75.97 205.853 74.965 205.373 74.095C204.923 73.195 204.278 72.505 203.438 72.025C202.628 71.515 201.683 71.26 200.603 71.26C199.493 71.26 198.518 71.515 197.678 72.025C196.868 72.535 196.223 73.225 195.743 74.095C195.293 74.965 195.068 75.97 195.068 77.11C195.068 78.28 195.293 79.315 195.743 80.215C196.223 81.085 196.883 81.775 197.723 82.285C198.563 82.765 199.508 83.005 200.558 83.005ZM211.628 88H205.778V82.15L206.723 76.84L205.733 71.62V55.465H211.628V88ZM226.262 88V56.365H232.382V88H226.262ZM230.762 88V82.555H246.872V88H230.762ZM260.281 88.45C258.091 88.45 256.111 87.955 254.341 86.965C252.601 85.945 251.206 84.58 250.156 82.87C249.136 81.13 248.626 79.195 248.626 77.065C248.626 74.935 249.136 73.03 250.156 71.35C251.176 69.64 252.571 68.29 254.341 67.3C256.111 66.28 258.076 65.77 260.236 65.77C262.456 65.77 264.436 66.28 266.176 67.3C267.946 68.29 269.341 69.64 270.361 71.35C271.381 73.03 271.891 74.935 271.891 77.065C271.891 79.195 271.381 81.13 270.361 82.87C269.341 84.58 267.946 85.945 266.176 86.965C264.436 87.955 262.471 88.45 260.281 88.45ZM260.236 82.96C261.346 82.96 262.321 82.72 263.161 82.24C264.031 81.73 264.691 81.04 265.141 80.17C265.621 79.27 265.861 78.25 265.861 77.11C265.861 75.97 265.621 74.965 265.141 74.095C264.661 73.225 264.001 72.55 263.161 72.07C262.321 71.56 261.346 71.305 260.236 71.305C259.156 71.305 258.196 71.56 257.356 72.07C256.516 72.55 255.856 73.225 255.376 74.095C254.896 74.965 254.656 75.97 254.656 77.11C254.656 78.25 254.896 79.27 255.376 80.17C255.856 81.04 256.516 81.73 257.356 82.24C258.196 82.72 259.156 82.96 260.236 82.96ZM283.156 88.495C281.926 88.495 280.711 88.33 279.511 88C278.341 87.67 277.261 87.22 276.271 86.65C275.281 86.05 274.426 85.33 273.706 84.49L277.216 80.935C277.966 81.775 278.836 82.405 279.826 82.825C280.816 83.245 281.911 83.455 283.111 83.455C284.071 83.455 284.791 83.32 285.271 83.05C285.781 82.78 286.036 82.375 286.036 81.835C286.036 81.235 285.766 80.77 285.226 80.44C284.716 80.11 284.041 79.84 283.201 79.63C282.361 79.39 281.476 79.135 280.546 78.865C279.646 78.565 278.776 78.19 277.936 77.74C277.096 77.26 276.406 76.615 275.866 75.805C275.356 74.965 275.101 73.885 275.101 72.565C275.101 71.185 275.431 69.985 276.091 68.965C276.781 67.945 277.756 67.15 279.016 66.58C280.276 66.01 281.761 65.725 283.471 65.725C285.271 65.725 286.891 66.04 288.331 66.67C289.801 67.3 291.016 68.245 291.976 69.505L288.421 73.06C287.761 72.25 287.011 71.665 286.171 71.305C285.361 70.945 284.476 70.765 283.516 70.765C282.646 70.765 281.971 70.9 281.491 71.17C281.041 71.44 280.816 71.815 280.816 72.295C280.816 72.835 281.071 73.255 281.581 73.555C282.121 73.855 282.811 74.125 283.651 74.365C284.491 74.575 285.361 74.83 286.261 75.13C287.191 75.4 288.061 75.79 288.871 76.3C289.711 76.81 290.386 77.485 290.896 78.325C291.436 79.165 291.706 80.245 291.706 81.565C291.706 83.695 290.941 85.39 289.411 86.65C287.881 87.88 285.796 88.495 283.156 88.495ZM303.151 88.495C301.921 88.495 300.706 88.33 299.506 88C298.336 87.67 297.256 87.22 296.266 86.65C295.276 86.05 294.421 85.33 293.701 84.49L297.211 80.935C297.961 81.775 298.831 82.405 299.821 82.825C300.811 83.245 301.906 83.455 303.106 83.455C304.066 83.455 304.786 83.32 305.266 83.05C305.776 82.78 306.031 82.375 306.031 81.835C306.031 81.235 305.761 80.77 305.221 80.44C304.711 80.11 304.036 79.84 303.196 79.63C302.356 79.39 301.471 79.135 300.541 78.865C299.641 78.565 298.771 78.19 297.931 77.74C297.091 77.26 296.401 76.615 295.861 75.805C295.351 74.965 295.096 73.885 295.096 72.565C295.096 71.185 295.426 69.985 296.086 68.965C296.776 67.945 297.751 67.15 299.011 66.58C300.271 66.01 301.756 65.725 303.466 65.725C305.266 65.725 306.886 66.04 308.326 66.67C309.796 67.3 311.011 68.245 311.971 69.505L308.416 73.06C307.756 72.25 307.006 71.665 306.166 71.305C305.356 70.945 304.471 70.765 303.511 70.765C302.641 70.765 301.966 70.9 301.486 71.17C301.036 71.44 300.811 71.815 300.811 72.295C300.811 72.835 301.066 73.255 301.576 73.555C302.116 73.855 302.806 74.125 303.646 74.365C304.486 74.575 305.356 74.83 306.256 75.13C307.186 75.4 308.056 75.79 308.866 76.3C309.706 76.81 310.381 77.485 310.891 78.325C311.431 79.165 311.701 80.245 311.701 81.565C311.701 83.695 310.936 85.39 309.406 86.65C307.876 87.88 305.791 88.495 303.151 88.495Z" fill="#EA473B"/>
<path d="M347.295 72.27V67.14H367.68V72.27H347.295ZM347.295 82.845V77.715H367.68V82.845H347.295Z" fill="black"/>
<path d="M392.24 90V58.365H398.36V90H392.24ZM396.74 90V84.6H414.245V90H396.74ZM396.74 76.455V71.235H412.67V76.455H396.74ZM396.74 63.765V58.365H414.02V63.765H396.74ZM423.81 90V85.005H432.045C433.515 85.005 434.655 84.555 435.465 83.655C436.305 82.755 436.725 81.69 436.725 80.46C436.725 79.62 436.545 78.855 436.185 78.165C435.825 77.475 435.285 76.935 434.565 76.545C433.875 76.125 433.035 75.915 432.045 75.915H423.81V70.965H431.37C432.63 70.965 433.635 70.65 434.385 70.02C435.165 69.39 435.555 68.445 435.555 67.185C435.555 65.895 435.165 64.935 434.385 64.305C433.635 63.675 432.63 63.36 431.37 63.36H423.81V58.365H432.09C434.19 58.365 435.945 58.755 437.355 59.535C438.795 60.285 439.875 61.29 440.595 62.55C441.315 63.78 441.675 65.13 441.675 66.6C441.675 68.4 441.12 69.96 440.01 71.28C438.93 72.57 437.34 73.53 435.24 74.16L435.51 72.18C437.85 72.84 439.65 73.935 440.91 75.465C442.2 76.965 442.845 78.78 442.845 80.91C442.845 82.59 442.425 84.12 441.585 85.5C440.775 86.85 439.575 87.945 437.985 88.785C436.425 89.595 434.52 90 432.27 90H423.81ZM419.31 90V58.365H425.385V90H419.31ZM457.165 90L444.7 58.365H451.315L460.945 83.97H458.38L468.1 58.365H474.625L462.025 90H457.165ZM500.517 90L494.802 81.18L493.587 80.28L485.127 68.265H492.102L497.367 76.23L498.492 77.085L507.447 90H500.517ZM484.677 90L493.542 77.58L496.917 81.585L491.337 90H484.677ZM498.717 80.235L495.252 76.275L500.427 68.265H507.042L498.717 80.235Z" fill="black"/>
<path d="M543.24 45V13.365H549.36V45H543.24ZM563.085 45V13.365H569.205V45H563.085ZM547.11 31.365V25.965H564.795V31.365H547.11ZM585.302 45.45C583.082 45.45 581.087 44.955 579.317 43.965C577.547 42.975 576.152 41.625 575.132 39.915C574.112 38.205 573.602 36.285 573.602 34.155C573.602 31.995 574.112 30.06 575.132 28.35C576.152 26.64 577.547 25.29 579.317 24.3C581.117 23.28 583.112 22.77 585.302 22.77C587.012 22.77 588.587 23.085 590.027 23.715C591.467 24.345 592.712 25.245 593.762 26.415L589.982 30.24C589.412 29.61 588.722 29.13 587.912 28.8C587.132 28.47 586.262 28.305 585.302 28.305C584.222 28.305 583.247 28.56 582.377 29.07C581.537 29.55 580.862 30.225 580.352 31.095C579.872 31.935 579.632 32.94 579.632 34.11C579.632 35.25 579.872 36.27 580.352 37.17C580.862 38.04 581.537 38.73 582.377 39.24C583.247 39.72 584.222 39.96 585.302 39.96C586.292 39.96 587.177 39.795 587.957 39.465C588.767 39.105 589.457 38.595 590.027 37.935L593.852 41.76C592.742 42.96 591.467 43.875 590.027 44.505C588.587 45.135 587.012 45.45 585.302 45.45ZM600.034 45V14.22H605.929V45H600.034ZM594.949 28.44V23.265H611.014V28.44H594.949ZM623.118 36.18V30.825H638.688V36.18H623.118ZM653.323 45V13.365H659.443V45H653.323ZM673.168 45V13.365H679.288V45H673.168ZM657.193 31.365V25.965H674.878V31.365H657.193ZM695.385 45.45C693.165 45.45 691.17 44.955 689.4 43.965C687.63 42.975 686.235 41.625 685.215 39.915C684.195 38.205 683.685 36.285 683.685 34.155C683.685 31.995 684.195 30.06 685.215 28.35C686.235 26.64 687.63 25.29 689.4 24.3C691.2 23.28 693.195 22.77 695.385 22.77C697.095 22.77 698.67 23.085 700.11 23.715C701.55 24.345 702.795 25.245 703.845 26.415L700.065 30.24C699.495 29.61 698.805 29.13 697.995 28.8C697.215 28.47 696.345 28.305 695.385 28.305C694.305 28.305 693.33 28.56 692.46 29.07C691.62 29.55 690.945 30.225 690.435 31.095C689.955 31.935 689.715 32.94 689.715 34.11C689.715 35.25 689.955 36.27 690.435 37.17C690.945 38.04 691.62 38.73 692.46 39.24C693.33 39.72 694.305 39.96 695.385 39.96C696.375 39.96 697.26 39.795 698.04 39.465C698.85 39.105 699.54 38.595 700.11 37.935L703.935 41.76C702.825 42.96 701.55 43.875 700.11 44.505C698.67 45.135 697.095 45.45 695.385 45.45ZM710.117 45V14.22H716.012V45H710.117ZM705.032 28.44V23.265H721.097V28.44H705.032ZM724.412 45V23.265H730.307V45H724.412ZM738.587 45V32.175C738.587 30.915 738.182 29.94 737.372 29.25C736.592 28.53 735.617 28.17 734.447 28.17C733.667 28.17 732.962 28.335 732.332 28.665C731.702 28.965 731.207 29.415 730.847 30.015C730.487 30.615 730.307 31.335 730.307 32.175L728.012 31.05C728.012 29.37 728.372 27.915 729.092 26.685C729.842 25.455 730.847 24.51 732.107 23.85C733.367 23.16 734.792 22.815 736.382 22.815C737.882 22.815 739.247 23.16 740.477 23.85C741.707 24.51 742.682 25.455 743.402 26.685C744.122 27.885 744.482 29.34 744.482 31.05V45H738.587ZM752.762 45V32.175C752.762 30.915 752.357 29.94 751.547 29.25C750.767 28.53 749.792 28.17 748.622 28.17C747.872 28.17 747.167 28.335 746.507 28.665C745.877 28.965 745.382 29.415 745.022 30.015C744.662 30.615 744.482 31.335 744.482 32.175L741.107 31.365C741.227 29.625 741.692 28.125 742.502 26.865C743.312 25.575 744.377 24.585 745.697 23.895C747.017 23.175 748.487 22.815 750.107 22.815C751.727 22.815 753.182 23.16 754.472 23.85C755.762 24.51 756.782 25.47 757.532 26.73C758.282 27.99 758.657 29.49 758.657 31.23V45H752.762ZM763.435 45V23.265H769.375V45H763.435ZM766.405 19.755C765.445 19.755 764.65 19.44 764.02 18.81C763.39 18.15 763.075 17.34 763.075 16.38C763.075 15.45 763.39 14.655 764.02 13.995C764.65 13.335 765.445 13.005 766.405 13.005C767.395 13.005 768.19 13.335 768.79 13.995C769.42 14.655 769.735 15.45 769.735 16.38C769.735 17.34 769.42 18.15 768.79 18.81C768.19 19.44 767.395 19.755 766.405 19.755ZM789.222 45V32.535C789.222 31.245 788.817 30.195 788.007 29.385C787.197 28.575 786.147 28.17 784.857 28.17C784.017 28.17 783.267 28.35 782.607 28.71C781.947 29.07 781.422 29.58 781.032 30.24C780.672 30.9 780.492 31.665 780.492 32.535L778.197 31.365C778.197 29.655 778.557 28.17 779.277 26.91C780.027 25.62 781.047 24.615 782.337 23.895C783.657 23.175 785.142 22.815 786.792 22.815C788.382 22.815 789.807 23.22 791.067 24.03C792.327 24.81 793.317 25.845 794.037 27.135C794.757 28.395 795.117 29.76 795.117 31.23V45H789.222ZM774.597 45V23.265H780.492V45H774.597Z" fill="black"/>
<path d="M658.24 131V99.365H664.36V131H658.24ZM678.085 131V99.365H684.205V131H678.085ZM662.11 117.365V111.965H679.795V117.365H662.11ZM700.302 131.45C698.082 131.45 696.087 130.955 694.317 129.965C692.547 128.975 691.152 127.625 690.132 125.915C689.112 124.205 688.602 122.285 688.602 120.155C688.602 117.995 689.112 116.06 690.132 114.35C691.152 112.64 692.547 111.29 694.317 110.3C696.117 109.28 698.112 108.77 700.302 108.77C702.012 108.77 703.587 109.085 705.027 109.715C706.467 110.345 707.712 111.245 708.762 112.415L704.982 116.24C704.412 115.61 703.722 115.13 702.912 114.8C702.132 114.47 701.262 114.305 700.302 114.305C699.222 114.305 698.247 114.56 697.377 115.07C696.537 115.55 695.862 116.225 695.352 117.095C694.872 117.935 694.632 118.94 694.632 120.11C694.632 121.25 694.872 122.27 695.352 123.17C695.862 124.04 696.537 124.73 697.377 125.24C698.247 125.72 699.222 125.96 700.302 125.96C701.292 125.96 702.177 125.795 702.957 125.465C703.767 125.105 704.457 124.595 705.027 123.935L708.852 127.76C707.742 128.96 706.467 129.875 705.027 130.505C703.587 131.135 702.012 131.45 700.302 131.45ZM715.034 131V100.22H720.929V131H715.034ZM709.949 114.44V109.265H726.014V114.44H709.949Z" fill="black"/>
<line x1="521" y1="80" x2="879" y2="80" stroke="black" stroke-width="2"/>
</svg>
