<?xml version="1.0" encoding="UTF-8"?>
<svg width="55" height="84" version="1.1" viewBox="0 0 1200 1200" xmlns="http://www.w3.org/2000/svg">
 <path d="m756.61 487.82-68.855-30.023v-87.672c0.25391-0.875 0.58984-1.6211 0.79297-2.5195 10.309-46.789 76.598-108.98 76.598-169.26 0-114.16-93.516-143.09-184.05-143.09-67.32 0-83.062 21.816-100.7 37.164-24.562 21.348-25.586 34.141-35.988 57.191-5.8086 12.91 10.777 32.102 5.1602 46.262-8.3164 20.879-30.504 44.102-46.223 57.254-6.1094 5.1133-6.7188 14.305-6.7188 22.645-0.011719 5.6758 1.6562 14.746 9.5625 18.348 5.5078 2.4961 17.617-0.76953 19.379 3.3359 2.5078 5.8086 4.9453 17.891 6.2031 28.094 3.0977-0.33594 6.5039 0 10.246 1.3203 46.262 16.379 107.39-12.227 149.21 16.715 35.23 24.359 56.352 71.148 60.406 112.4 6.6367 66.684-24.469 125.62-36.984 190.12-14.219 73.309-11.734 144.49 15.984 213.14 22.738-20.605 46.848-26.531 81.469-6.4453 39.684 23.016 24.84 140.27-39.59 169.52-64.453 29.258-153.93 7.2852-187.11-27.238-16.5-17.16 2.1016-31.402 12.852-37.332 20.965-11.484 61.488-6.2539 86.711-41.977 4.5117-6.3945 8.8438-12.492 13.105-18.301-43.477-91.848-47.352-188.29-22.512-286.02 17.785-69.961 57.602-150.67 4.1758-216.9-32.051-39.73-104.75-10.211-149.95-26.184-0.26562-0.097656-0.48047-0.25391-0.74219-0.34766-1.1172 17.902 1.7891 33.59 19.129 42.133 19.391 9.5742 53.039 4.8242 75.793 1.4141l8.6641 49.379-78.254 26.879c-61.066 0-110.57 41.41-110.57 92.531 0 0 49.5 537.1 110.57 537.1h302.27c61.078 0 110.53-537.1 110.53-537.1-0.023438-51.133-49.477-92.543-110.55-92.543z" fill="black"/>
</svg>
