<svg width="39" height="71" viewBox="0 0 39 71"  xmlns="http://www.w3.org/2000/svg">
<path d="M25.8737 13.4093C29.577 13.4093 32.5783 10.4077 32.5783 6.70464C32.5783 3.00159 29.577 0 25.8737 0C22.1709 0 19.169 3.00159 19.169 6.70464C19.169 10.4077 22.1709 13.4093 25.8737 13.4093ZM28.8714 9.78132L28.36 10.5147C25.2774 8.36619 21.8634 8.84714 21.8288 8.85161L21.6944 7.96779C21.8476 7.94425 25.4857 7.42129 28.8714 9.78132ZM27.262 27.1898C24.7035 25.1847 19.4658 21.08 17.6004 20.3866C17.3707 20.4408 17.1347 20.4682 16.8972 20.4682C16.2324 20.4664 15.5861 20.249 15.0554 19.8487C14.9868 19.9938 14.9189 20.1419 14.8515 20.2963C14.4293 21.2647 14.0616 22.3527 13.7466 23.5538C12.4733 28.4125 12.0797 35.1597 12.5785 43.6862C12.5968 43.9987 12.6765 44.3046 12.813 44.5863C12.9495 44.8681 13.1401 45.1202 13.3741 45.3282C13.608 45.5363 13.8806 45.6962 14.1763 45.7989C14.4721 45.9016 14.7852 45.9451 15.0977 45.9268C15.7289 45.8898 16.3196 45.6037 16.7398 45.1312C17.16 44.6588 17.3754 44.0388 17.3385 43.4076C16.7592 33.5083 17.5048 27.6994 18.4634 24.3179L19.1586 24.4305C18.2194 27.683 17.4401 33.4144 18.0227 43.3677C18.0473 43.7701 17.9919 44.1735 17.8597 44.5544C17.7274 44.9353 17.5209 45.2862 17.2521 45.5868C17.163 45.6853 17.0678 45.778 16.9669 45.8645L15.2729 66.6357C15.1075 68.6641 16.618 70.4419 18.6455 70.607C20.6733 70.772 22.4516 69.2631 22.617 67.2347L24.8307 40.0931H26.9172L29.1309 67.2347C29.2963 69.2634 31.0747 70.7723 33.1025 70.607C35.1302 70.4416 36.6404 68.6641 36.475 66.6357L33.9332 35.4693V32.0556C32.4067 31.2215 30.4069 29.6548 27.262 27.1898Z" />
<path d="M31.0483 22.3584C31.4485 22.6722 31.8946 23.022 32.3567 23.3817C32.1475 22.7148 31.9407 22.1904 31.7506 21.7797L32.4366 21.6421C32.7915 22.4383 33.1786 23.5617 33.532 25.1532C32.5614 24.4148 31.5268 23.604 30.6257 22.8978C21.9911 16.1312 18.2082 13.5631 15.5242 15.4485C15.0575 15.7757 14.7234 16.2594 14.5827 16.8118C14.442 17.3642 14.5038 17.9487 14.757 18.4594C15.0103 18.9701 15.4381 19.3732 15.963 19.5955C16.488 19.8178 17.0751 19.8447 17.6181 19.6712C19.4412 20.1903 24.7686 24.365 27.6846 26.6506C32.4929 30.4189 34.6578 32.1153 36.3491 32.1153C36.8056 32.1153 37.2276 31.9916 37.6582 31.7518C38.6013 31.2255 39.1081 30.1915 38.9806 29.0532C38.6004 25.6544 38.0026 22.859 37.1963 20.6876C36.696 19.3398 36.1158 18.2316 35.4564 17.3729C34.2212 15.7646 32.9438 15.2816 32.1011 15.1559C31.946 15.1236 31.788 15.1073 31.6296 15.1073H20.7419C23.1159 16.287 26.2746 18.6172 31.0483 22.3584ZM7.23997 9.976L12.3897 13.6507L12.5477 13.4088L6.8803 8.34275L6.20745 11.1849L1.56159 7.981L0.919434 9.06924L6.81385 12.5717L7.23997 9.976ZM11.9281 7.31232L14.1639 12.1742L14.3809 12.0628L12.3504 5.96156L10.6614 7.76645L8.59728 3.46118L7.66847 3.9898L10.524 9.03914L11.9281 7.31232ZM12.1564 16.1574L6.07843 14.3817L6.59185 16.7596L1.95046 16.0182L1.85778 17.0677L7.5454 17.5844L6.93483 15.4795L12.1242 16.3943L12.1564 16.1574Z"/>
</svg>
