<svg width="54" height="70" viewBox="0 0 54 70"  xmlns="http://www.w3.org/2000/svg">
<path d="M52.4841 29.4108C47.5721 22.1027 40.8571 17.1312 32.7832 14.0972C28.8623 13.078 23.7237 15.6366 23.6172 15.7611C23.3548 15.8485 23.0913 15.9629 22.8223 16.1288C18.5033 18.8007 11.295 24.159 14.4479 30.1542C17.6131 36.1684 27.5157 35.0595 32.9502 34.3745C33.9818 34.2444 34.9135 33.8217 35.5515 33.131C36.1053 32.7139 36.5516 32.067 36.5516 31.0568C36.5516 30.5287 36.3509 29.9546 36.0269 29.4602C35.4573 28.2806 34.2766 27.322 32.9502 27.4902C29.8859 27.8759 26.8104 28.1046 23.726 27.84C22.9119 27.7694 22.1092 27.553 21.331 27.3108C20.9498 27.1919 20.8052 27.1437 20.6605 27.0282C20.7357 26.8051 20.8478 26.6134 21.0776 26.3219C21.6495 25.5886 22.3143 24.9428 23.0286 24.3496C23.3077 24.8318 23.6318 25.2982 24.0051 25.7355C24.3168 26.1021 24.605 26.4799 24.8954 26.8567C27.398 26.9901 30.1203 26.8533 33.642 26.4104C36.2724 26.0842 38.4139 28.7639 38.4139 31.0568C38.4139 33.5313 36.6312 35.3544 33.8741 35.7031C31.6821 35.9778 29.1381 36.2626 26.5043 36.294C22.8839 45.4521 21.1034 54.7459 21.5485 64.7079C21.821 70.7861 31.2886 70.813 31.0128 64.7079C30.6719 57.0713 31.644 49.7531 34.1219 42.6379C34.5659 42.8386 35.0323 42.9944 35.5033 43.111C35.9394 51.0975 37.1716 58.9852 39.497 66.6802C41.2574 72.5083 50.3953 70.0225 48.6271 64.1653C45.9687 55.3727 44.8408 46.4859 44.778 37.3154C44.7757 36.6147 44.3385 34.5763 44.242 34.1323C43.7585 31.9465 43.0762 29.8096 42.2037 27.748C43.8318 29.2978 45.2857 31.0209 46.5394 32.8866C49.005 36.5474 54.9699 33.1052 52.4841 29.4108ZM20.5428 27.526C20.5619 27.4094 20.5798 27.313 20.6022 27.2211C20.6224 27.2536 20.628 27.248 20.6101 27.174L20.6146 27.1605L20.637 27.2244C20.6078 27.2446 20.5742 27.3231 20.5428 27.526Z" />
<path d="M21.1169 14.1049C25.0119 14.1049 28.1694 10.9474 28.1694 7.05247C28.1694 3.1575 25.0119 0 21.1169 0C17.222 0 14.0645 3.1575 14.0645 7.05247C14.0645 10.9474 17.222 14.1049 21.1169 14.1049Z" />
<path d="M4.2527 41.8226C4.33964 41.8402 4.42974 41.8329 4.51278 41.8018C4.59582 41.7707 4.66847 41.7169 4.72249 41.6466C5.63405 40.4626 6.79339 39.3122 8.10746 38.274C8.07158 38.5341 8.03346 38.7931 7.98636 39.0387C7.96733 39.1325 7.97754 39.2299 8.01564 39.3177C8.05374 39.4055 8.11788 39.4795 8.1994 39.5297C8.28029 39.582 8.37525 39.6081 8.47148 39.6047C8.56771 39.6013 8.66058 39.5685 8.73758 39.5107C10.5259 38.1989 12.9186 36.5294 15.5759 35.2489C15.6352 35.2236 15.6888 35.1865 15.7334 35.1399C15.778 35.0932 15.8127 35.0381 15.8354 34.9777C15.8581 34.9172 15.8683 34.8529 15.8655 34.7884C15.8626 34.724 15.8467 34.6607 15.8187 34.6026C15.7907 34.5445 15.7513 34.4926 15.7027 34.4501C15.6541 34.4076 15.5975 34.3754 15.5361 34.3555C15.4747 34.3355 15.41 34.3282 15.3457 34.3339C15.2814 34.3397 15.219 34.3584 15.1622 34.389C12.8749 35.4922 10.7872 36.868 9.09974 38.0722C9.13674 37.8019 9.17486 37.5351 9.22643 37.2828C9.24439 37.189 9.23378 37.0919 9.19598 37.0041C9.15819 36.9164 9.09493 36.842 9.0144 36.7905C8.93387 36.7391 8.83976 36.713 8.74424 36.7156C8.64872 36.7182 8.55618 36.7494 8.47858 36.8052C6.70593 38.0643 5.14407 39.5387 3.96791 41.0625C3.91826 41.1268 3.88585 41.2028 3.87376 41.2832C3.86167 41.3635 3.87029 41.4457 3.8988 41.5218C3.92732 41.5979 3.97479 41.6655 4.03672 41.7181C4.09865 41.7708 4.17299 41.8067 4.2527 41.8226ZM18.4877 38.0195C14.8247 40.7653 11.6158 43.9238 9.04704 46.6394C9.01569 46.1612 8.99774 45.6823 8.99322 45.2031C8.99292 45.0313 8.94115 44.8635 8.84459 44.7214C8.74803 44.5792 8.61111 44.4693 8.45149 44.4057C8.29186 44.3421 8.11684 44.3278 7.94901 44.3646C7.78117 44.4014 7.62821 44.4877 7.50985 44.6122C4.81331 47.4568 2.56751 50.604 1.01238 53.7109C0.946538 53.8419 0.915327 53.9876 0.921714 54.1341C0.928102 54.2805 0.971876 54.4229 1.04887 54.5477C1.12586 54.6724 1.23351 54.7754 1.36156 54.8468C1.48961 54.9182 1.63381 54.9556 1.78041 54.9555C1.9407 54.9562 2.09796 54.9119 2.23433 54.8277C2.3707 54.7434 2.48069 54.6226 2.55181 54.479C3.75488 52.0728 5.40195 49.6342 7.36409 47.3424C7.39324 47.8156 7.41454 48.2865 7.41454 48.7294C7.41378 48.903 7.46561 49.0729 7.56324 49.2165C7.66086 49.3602 7.79969 49.4709 7.96145 49.5341C8.12322 49.5973 8.30033 49.6101 8.46949 49.5707C8.63865 49.5314 8.79192 49.4417 8.90913 49.3135C11.6169 46.3703 15.2709 42.5839 19.5204 39.3963C19.6108 39.3287 19.687 39.2439 19.7446 39.1468C19.8022 39.0497 19.84 38.9422 19.8559 38.8304C19.8719 38.7186 19.8656 38.6048 19.8374 38.4955C19.8093 38.3861 19.7598 38.2834 19.6919 38.1932C19.6244 38.1026 19.5396 38.0262 19.4425 37.9684C19.3453 37.9106 19.2378 37.8725 19.1259 37.8564C19.014 37.8402 18.9 37.8463 18.7905 37.8743C18.681 37.9023 18.5781 37.9516 18.4877 38.0195Z" />
</svg>
