<svg width="46" height="65" viewBox="0 0 46 65"  xmlns="http://www.w3.org/2000/svg">
<path d="M21.7914 9.91512C22.8359 9.91512 23.6826 9.06839 23.6826 8.02396V1.89116C23.6826 0.846737 22.8359 0 21.7914 0C20.747 0 19.9003 0.846737 19.9003 1.89116V8.02409C19.9003 9.06839 20.7469 9.91512 21.7914 9.91512ZM38.6921 12.1161L43.0287 7.77949C43.7673 7.04093 43.7673 5.84357 43.0287 5.10514C42.2903 4.36657 41.0928 4.36657 40.3542 5.10514L36.0177 9.4417C35.2791 10.1803 35.2791 11.3776 36.0177 12.1161C36.7561 12.8545 37.9537 12.8546 38.6921 12.1161ZM7.5651 12.1161C8.30366 11.3775 8.30366 10.1801 7.5651 9.4417L3.22841 5.10501C2.48997 4.36645 1.29248 4.36645 0.553922 5.10501C-0.184641 5.84357 -0.184641 7.04093 0.553922 7.77937L4.89061 12.1161C5.62893 12.8545 6.82654 12.8546 7.5651 12.1161ZM45.7849 41.6994L41.3381 34.4576C40.6658 32.9482 40.3183 31.3142 40.3182 29.6618C40.3156 25.7422 39.2427 17.6935 30.9292 14.3474C30.9229 14.3461 30.9153 14.3423 30.909 14.3398C27.2087 12.8573 22.944 12.6481 18.9405 12.9694C12.1205 13.5198 6.02178 16.259 2.91977 22.328C2.91977 22.3292 2.91851 22.3292 2.91725 22.3305C0.0866786 27.9915 0.922321 34.9867 4.34066 40.4046C5.92546 42.9161 6.90382 45.7615 7.13959 48.7231C7.44596 52.5595 7.35896 57.7148 5.58001 62.1854C5.13495 63.3062 5.94689 64.5204 7.14211 64.5506C7.15724 64.5519 7.17237 64.5519 7.18876 64.5519H27.5427C27.5591 64.5519 27.5742 64.5519 27.5894 64.5506C28.6333 64.5241 29.4175 63.5798 29.2511 62.5409C29.0443 61.2587 28.8955 59.9173 28.7871 58.5646C31.7096 59.2883 35.9231 59.8897 38.9061 58.4473C41.7782 57.0579 39.5478 53.572 39.9109 44.6484L44.5342 44.052C45.616 43.859 46.2312 42.7054 45.7849 41.6994ZM21.9096 37.2401C21.3069 38.0949 20.1243 38.2953 19.2733 37.6939C18.421 37.0913 18.218 35.9112 18.8207 35.0578L22.0218 30.5242H17.9066C16.3773 30.5242 15.4796 28.7944 16.3622 27.5424L21.6726 20.0245C22.2752 19.171 23.454 18.968 24.3076 19.5707C25.1611 20.1733 25.3641 21.3534 24.7615 22.2069L21.5578 26.7418H25.673C27.2263 26.7418 28.0861 28.4943 27.2238 29.716C27.2245 29.7149 27.2077 29.7405 21.9096 37.2401Z" />
</svg>
