<svg width="111" height="108" viewBox="0 0 111 108" fill="none" xmlns="http://www.w3.org/2000/svg">
<path d="M93.1396 18.819C86.9555 18.1767 80.8691 16.8341 75.0032 14.8185C69.6204 12.9626 64.4572 10.5488 59.6021 7.6185C58.3353 6.86851 56.8819 6.47192 55.4001 6.47192C53.9183 6.47192 52.4649 6.86851 51.1981 7.6185L51.1935 7.623C46.3394 10.5509 41.1778 12.9632 35.797 14.8185C29.9341 16.8333 23.8508 18.1758 17.6698 18.819C15.6843 19.0163 13.8445 19.9254 12.5067 21.3702C11.1689 22.8151 10.4282 24.6929 10.4282 26.64V50.0175C10.4316 58.644 12.798 67.113 17.2826 74.5477C21.7672 81.9824 28.207 88.1126 35.9354 92.304L51.4795 100.733C52.6765 101.389 54.0267 101.734 55.4001 101.734C56.7735 101.734 58.1237 101.389 59.3207 100.733L74.8648 92.304C82.5932 88.1126 89.033 81.9824 93.5176 74.5477C98.0022 67.113 100.369 58.644 100.372 50.0175V26.6445C100.374 24.6973 99.6362 22.8184 98.3 21.3719C96.9639 19.9253 95.125 19.0185 93.1396 18.819ZM73.7532 45.828L56.4564 63.828C55.6347 64.6832 54.5031 65.1914 53.3028 65.2443C52.1026 65.2973 50.9286 64.8908 50.0312 64.1115L39.653 55.1115C39.1774 54.7257 38.7861 54.2505 38.5025 53.7142C38.2189 53.1779 38.0488 52.5914 38.0022 51.9896C37.9557 51.3879 38.0337 50.7831 38.2316 50.2113C38.4295 49.6396 38.7433 49.1125 39.1542 48.6614C39.5652 48.2104 40.0649 47.8446 40.6237 47.5858C41.1825 47.327 41.789 47.1805 42.407 47.1551C43.025 47.1296 43.642 47.2257 44.2212 47.4376C44.8004 47.6495 45.3299 47.9729 45.7784 48.3885L52.8033 54.477L67.0282 39.672C67.4599 39.224 67.9808 38.8668 68.559 38.6223C69.1372 38.3778 69.7605 38.2511 70.3907 38.25C71.2906 38.2496 72.1709 38.5059 72.9233 38.9874C73.6756 39.469 74.2672 40.1548 74.6251 40.9602C74.983 41.7657 75.0916 42.6557 74.9375 43.5206C74.7834 44.3855 74.3687 45.1876 73.7532 45.828Z" fill="white"/>
</svg>
