<svg width="62" height="62" viewBox="0 0 62 62" fill="none" xmlns="http://www.w3.org/2000/svg">
<g clip-path="url(#clip0_489_170)">
<path d="M35.001 23.1461C32.4279 23.1461 30.3444 21.0627 30.3444 18.4894C30.3444 15.9162 32.4278 13.8328 35.001 13.8328C37.5743 13.8328 39.6577 15.9162 39.6577 18.4894C39.6577 21.0558 37.5743 23.1461 35.001 23.1461Z" fill="#0068FF"/>
<path d="M50.0265 54.0388V60.2753C50.0265 61.2273 49.2538 62 48.3018 62H24.0388C23.0868 62 22.3141 61.2273 22.3141 60.2753V54.1975H15.5396C12.8283 54.1975 10.6139 51.9829 10.6139 49.2718V40.6483L6.64711 40.5724C5.07419 40.5448 4.08077 38.8615 4.81894 37.4749L9.15136 29.3067C10.1172 27.4855 10.6208 25.4572 10.6208 23.4014C10.6208 10.411 21.2035 -0.102724 34.2216 0.000757389C47.1981 0.104239 57.56 10.6663 57.4289 23.6428C57.3876 27.382 56.47 30.9141 54.8764 34.0324C51.696 40.2344 50.0265 47.0849 50.0265 54.0388ZM47.3981 17.6824C47.3981 17.2409 47.1359 16.8476 46.7289 16.6751L44.1763 15.5851C43.9073 15.4678 43.6934 15.247 43.583 14.978C43.5693 14.9435 43.5555 14.9159 43.5485 14.8814C43.4381 14.6124 43.4381 14.3157 43.5485 14.0467L44.5971 11.501C44.7627 11.094 44.6731 10.618 44.3556 10.3075L43.1898 9.14163C42.8794 8.83118 42.4102 8.73467 42.0032 8.90017L39.4162 9.94195C39.154 10.0454 38.8573 10.0454 38.5883 9.94195C38.5676 9.93499 38.54 9.92126 38.5194 9.91436C38.2434 9.80398 38.0226 9.59012 37.9054 9.31417L36.8361 6.75472C36.6636 6.34769 36.2635 6.07864 35.8219 6.07864H34.1732C33.7317 6.07864 33.3384 6.3408 33.1659 6.74782L32.0621 9.33486C31.9449 9.60384 31.731 9.81081 31.462 9.92126C31.4482 9.92816 31.4344 9.93499 31.4205 9.93499C31.1515 10.0454 30.8479 10.0523 30.5789 9.93499L27.9988 8.87264C27.5918 8.70707 27.1158 8.79669 26.8053 9.1141L25.6394 10.2799C25.329 10.5904 25.2324 11.0596 25.398 11.4665L26.4466 14.088C26.5501 14.3571 26.5501 14.6537 26.4396 14.9159C26.4396 14.9229 26.4327 14.9297 26.4327 14.9366C26.3223 15.2125 26.1085 15.4333 25.8325 15.5506L23.2386 16.6337C22.8316 16.8062 22.5625 17.2063 22.5625 17.6478V19.2965C22.5625 19.7381 22.8247 20.1314 23.2316 20.3038L25.8394 21.4145C26.1084 21.5318 26.3223 21.7457 26.4327 22.0216L26.4465 22.0561C26.55 22.3183 26.55 22.615 26.4395 22.8771L25.3633 25.471C25.1909 25.878 25.2874 26.3541 25.6048 26.6645L26.7707 27.8304C27.0811 28.1408 27.5502 28.2374 27.9572 28.0719L30.5787 27.0232C30.8452 26.9186 31.1419 26.921 31.4066 27.0301C31.4204 27.0371 31.4411 27.0439 31.4549 27.0509C31.7239 27.1613 31.9378 27.3751 32.0551 27.6442L33.1175 30.2312C33.2899 30.6383 33.6901 30.9073 34.1315 30.9073H35.7803C36.2219 30.9073 36.6151 30.6452 36.7876 30.2381L37.8845 27.6719C38.0017 27.3959 38.2294 27.182 38.5053 27.0785C38.526 27.0716 38.5536 27.0578 38.5743 27.051C38.8434 26.9475 39.14 26.9475 39.4022 27.051L41.9616 28.1065C42.3687 28.272 42.8447 28.1824 43.1552 27.865L44.321 26.6991C44.6315 26.3887 44.728 25.9196 44.5625 25.5125L43.5277 22.9393C43.4173 22.6703 43.4242 22.3737 43.5346 22.1046C43.5483 22.0701 43.5621 22.0425 43.576 22.008C43.6864 21.732 43.9003 21.5113 44.1762 21.4009L46.715 20.3454C47.122 20.1729 47.391 19.7728 47.391 19.3312V17.6825H47.3981V17.6824Z" fill="#0068FF"/>
</g>
<defs>
<clipPath id="clip0_489_170">
<rect width="62" height="62" fill="white" transform="matrix(-1 0 0 1 62 0)"/>
</clipPath>
</defs>
</svg>
