<?xml version="1.0" encoding="UTF-8"?>
<svg width="55" height="84" version="1.1" viewBox="0 0 1200 1200" xmlns="http://www.w3.org/2000/svg">
 <g>
  <path d="m648 727.92 50.039 50.039c10.242 10.27 24.578 15.359 39.004 13.844 14.426-1.5117 27.395-9.4688 35.277-21.645 5.9688-9.4766 8.4961-20.719 7.1641-31.836-1.332-11.121-6.4453-21.445-14.484-29.246l-84-86.641v0.003906c-21.246-21.941-50.457-34.363-81-34.441-30.684 0.011719-60.047 12.484-81.359 34.559l-84 87.602c-10.273 10.242-15.363 24.578-13.848 39.004 1.5156 14.426 9.4727 27.391 21.648 35.277 9.4648 5.9375 20.68 8.4492 31.773 7.1172 11.094-1.332 21.395-6.4297 29.184-14.438l49.199-49.199 0.003906 208.08c0 17.148 9.1484 32.996 24 41.57 14.852 8.5742 33.148 8.5742 48 0 14.852-8.5742 24-24.422 24-41.57z" fill="#fff"/>
  <path d="m235.08 476.04c36.715 27.617 80.121 44.953 125.76 50.219 45.637 5.2656 91.852-1.7227 133.89-20.254 42.039-18.527 78.375-47.926 105.28-85.164 26.871 37.254 63.191 66.664 105.22 85.199 42.027 18.539 88.238 25.531 133.87 20.258 45.629-5.2734 89.023-22.621 125.71-50.258 10.488-7.5352 17.5-18.98 19.445-31.75 1.9453-12.766-1.3359-25.781-9.1016-36.102-7.7695-10.316-19.367-17.07-32.176-18.73-12.809-1.6641-25.746 1.9062-35.891 9.9023-31.867 24.02-71.488 35.406-111.25 31.98-39.758-3.4258-76.844-21.43-104.13-50.547-27.289-29.117-42.852-67.297-43.695-107.19-0.19141-17.148-9.5195-32.895-24.469-41.301-14.945-8.4062-33.242-8.2031-48 0.53906-14.754 8.7422-23.723 24.691-23.531 41.84-1.1016 39.773-16.824 77.742-44.16 106.65-27.336 28.914-64.371 46.734-104.02 50.059-39.648 3.3242-79.129-8.0781-110.9-32.031-10.145-7.9961-23.082-11.566-35.891-9.9023-12.809 1.6602-24.406 8.4141-32.176 18.73-7.7656 10.32-11.047 23.336-9.1016 36.102 1.9453 12.77 8.957 24.215 19.445 31.75z" fill="#fff"/>
 </g>
</svg>
