<svg width="48" height="51" viewBox="0 0 48 51" fill="none" xmlns="http://www.w3.org/2000/svg">
<path d="M13.0553 11.8142C15.7953 9.55745 19.1169 7.76773 23.1234 7.76773C26.2811 7.76911 29.3777 8.66479 32.0754 10.357C34.7732 12.0493 36.9684 14.4731 38.4217 17.364C39.875 20.255 40.5304 23.502 40.3165 26.7508C40.1026 29.9997 39.0275 33.1255 37.2087 35.7873C35.3898 38.4492 32.897 40.5447 30.0022 41.8453C27.1074 43.146 23.9218 43.6018 20.7929 43.163C17.6641 42.7242 14.7122 41.4076 12.2594 39.357C9.80651 37.3063 7.94689 34.6004 6.8834 31.5343C6.45584 30.3016 5.25135 29.472 4.01007 29.7446L1.75968 30.2376C0.518404 30.5079 -0.286127 31.7713 0.0954506 33.0206C3.17566 43.1142 12.3151 50.4366 23.1234 50.4366C36.4534 50.4366 47.2594 39.2929 47.2594 25.5464C47.2594 11.7999 36.4534 0.65625 23.1234 0.65625C16.724 0.65625 11.7405 3.66204 8.15685 6.76027L4.06064 2.53605C3.73917 2.20463 3.32963 1.97895 2.8838 1.88752C2.43797 1.7961 1.97586 1.84304 1.55589 2.02242C1.13593 2.20179 0.776964 2.50555 0.524377 2.89528C0.27179 3.28501 0.136924 3.74322 0.136826 4.21199V17.2497C0.136826 17.8784 0.379006 18.4813 0.810088 18.9259C1.24117 19.3705 1.82584 19.6202 2.43549 19.6202H15.0781C15.5327 19.6201 15.977 19.481 16.3549 19.2205C16.7329 18.9601 17.0274 18.5899 17.2013 18.1568C17.3753 17.7237 17.4208 17.2471 17.3321 16.7874C17.2435 16.3276 17.0246 15.9053 16.7033 15.5738L13.0553 11.8142Z" fill="white"/>
</svg>
