<svg width="78" height="78" viewBox="0 0 78 78" fill="none" xmlns="http://www.w3.org/2000/svg">
<path d="M68.25 39.0001C68.2601 45.5499 66.0716 51.9135 62.0351 57.0717C57.9985 62.2298 52.3476 65.8838 45.9874 67.4485C39.6272 69.0131 32.926 68.3978 26.9571 65.7011C20.9882 63.0043 16.0971 58.3823 13.0674 52.5754C10.0377 46.7684 9.04469 40.1126 10.2474 33.6742C11.4501 27.2358 14.779 21.3873 19.7008 17.0657C24.6225 12.7442 30.8523 10.1995 37.3922 9.83952C43.9321 9.47949 50.4036 11.3249 55.77 15.0801L55.4125 14.0401C55.1367 13.1997 55.206 12.2841 55.6052 11.4948C56.0044 10.7055 56.7009 10.1072 57.5413 9.83135C58.3817 9.55552 59.2972 9.62484 60.0865 10.0241C60.8758 10.4233 61.4742 11.1197 61.75 11.9601L65 21.7101C65.1612 22.1988 65.204 22.7189 65.1249 23.2274C65.0458 23.7359 64.847 24.2184 64.545 24.6351C64.2304 25.0781 63.8097 25.4352 63.3214 25.6737C62.8331 25.9121 62.2929 26.0244 61.75 26.0001H52C51.1381 26.0001 50.3114 25.6577 49.7019 25.0482C49.0924 24.4387 48.75 23.6121 48.75 22.7501C48.7617 22.0622 48.9915 21.3958 49.4062 20.8468C49.8208 20.2978 50.399 19.8945 51.0575 19.6951C46.7823 17.0231 41.7405 15.8468 36.7242 16.3512C31.7079 16.8555 27.0013 19.0118 23.3435 22.4814C19.6857 25.951 17.284 30.5374 16.5157 35.5201C15.7474 40.5028 16.656 45.5995 19.0987 50.0098C21.5415 54.4201 25.38 57.894 30.0113 59.886C34.6427 61.878 39.8046 62.2751 44.6862 61.015C49.5677 59.7549 53.8924 56.909 56.981 52.9242C60.0696 48.9395 61.7471 44.0417 61.75 39.0001C61.75 38.1381 62.0924 37.3115 62.7019 36.702C63.3114 36.0925 64.1381 35.7501 65 35.7501C65.862 35.7501 66.6886 36.0925 67.2981 36.702C67.9076 37.3115 68.25 38.1381 68.25 39.0001Z" fill="white"/>
</svg>
