<svg width="64" height="64" viewBox="0 0 64 64"  xmlns="http://www.w3.org/2000/svg">
<g clip-path="url(#clip0_504_11)">
<path d="M32 0C14.326 0 0 14.326 0 32C0 49.6719 14.326 64 32 64C49.674 64 64 49.6719 64 32C64 14.326 49.674 0 32 0ZM46 34H24.828L33.0699 42.242C33.852 43.024 33.852 44.29 33.0699 45.0699C32.2879 45.852 31.022 45.852 30.242 45.0699L18.928 33.756C18.45 33.278 18.3 32.62 18.4099 32C18.2999 31.38 18.45 30.722 18.93 30.242L30.244 18.928C31.026 18.146 32.292 18.146 33.072 18.928C33.854 19.71 33.854 20.976 33.072 21.756L24.828 30H46C47.104 30 48 30.896 48 32C48 33.104 47.104 34 46 34Z" />
</g>
<defs>
<clipPath id="clip0_504_11">
<rect width="64" height="64" fill="white"/>
</clipPath>
</defs>
</svg>
