<svg width="51" height="51" viewBox="0 0 51 51" xmlns="http://www.w3.org/2000/svg">
    <path fill-rule="evenodd" clip-rule="evenodd"
        d="M25.4383 47.1813C13.4123 47.1813 3.64795 37.417 3.64795 25.3909C3.64714 21.8935 4.48876 18.4473 6.1016 15.344C7.71444 12.2407 10.051 9.57145 12.9137 7.5622C13.3094 7.28389 13.5784 6.85978 13.6614 6.38317C13.7444 5.90657 13.6347 5.41651 13.3563 5.0208C13.078 4.6251 12.6539 4.35616 12.1773 4.27315C11.7007 4.19015 11.2106 4.29987 10.8149 4.57819C7.4732 6.92366 4.74566 10.0396 2.86314 13.6624C0.980625 17.2852 -0.00145875 21.3082 1.62633e-06 25.3909C1.62633e-06 39.4306 11.3986 50.8293 25.4383 50.8293C25.9221 50.8293 26.386 50.6371 26.7281 50.295C27.0701 49.953 27.2623 49.489 27.2623 49.0053C27.2623 48.5215 27.0701 48.0576 26.7281 47.7155C26.386 47.3735 25.9221 47.1813 25.4383 47.1813ZM26.844 3.64431C38.2159 4.36904 47.2287 13.8367 47.2287 25.3909C47.2311 28.5468 46.5464 31.6653 45.2223 34.5299C43.8981 37.3945 41.9662 39.9365 39.5607 41.9793C39.1924 42.2931 38.9639 42.7404 38.9253 43.2227C38.8868 43.705 39.0414 44.1828 39.3552 44.5511C39.669 44.9194 40.1163 45.148 40.5986 45.1865C41.0809 45.2251 41.5587 45.0704 41.927 44.7566C44.7348 42.3716 46.9897 39.4039 48.5352 36.0597C50.0807 32.7155 50.8797 29.075 50.8767 25.3909C50.8767 11.9008 40.3536 0.849988 27.075 0.00366492C26.5923 -0.0269724 26.1171 0.135429 25.754 0.455142C25.391 0.774855 25.1698 1.22569 25.1392 1.70847C25.1086 2.19125 25.271 2.66643 25.5907 3.02947C25.9104 3.39251 26.3612 3.61368 26.844 3.64431Z" />
    <path fill-rule="evenodd" clip-rule="evenodd"
        d="M44.3832 42.8887H40.1419V38.6474C40.1419 38.1636 39.9497 37.6997 39.6077 37.3576C39.2656 37.0156 38.8017 36.8234 38.3179 36.8234C37.8342 36.8234 37.3702 37.0156 37.0282 37.3576C36.6861 37.6997 36.494 38.1636 36.494 38.6474V44.7127C36.494 45.7195 37.3111 46.5367 38.3179 46.5367H44.3832C44.867 46.5367 45.3309 46.3445 45.673 46.0024C46.015 45.6604 46.2072 45.1964 46.2072 44.7127C46.2072 44.2289 46.015 43.765 45.673 43.423C45.3309 43.0809 44.867 42.8887 44.3832 42.8887ZM7.90381 5.7478H12.1427V9.98671C12.1427 10.4705 12.3349 10.9344 12.6769 11.2765C13.019 11.6185 13.4829 11.8107 13.9667 11.8107C14.4504 11.8107 14.9144 11.6185 15.2564 11.2765C15.5985 10.9344 15.7907 10.4705 15.7907 9.98671V3.92383C15.7907 3.44008 15.5985 2.97614 15.2564 2.63408C14.9144 2.29202 14.4504 2.09985 13.9667 2.09985H7.90381C7.42006 2.09985 6.95612 2.29202 6.61406 2.63408C6.272 2.97614 6.07983 3.44008 6.07983 3.92383C6.07983 4.40757 6.272 4.87151 6.61406 5.21357C6.95612 5.55563 7.42006 5.7478 7.90381 5.7478ZM26.1435 11.4167C22.4354 11.4186 18.8797 12.8925 16.2576 15.5146C13.6356 18.1366 12.1617 21.6923 12.1597 25.4005C12.161 29.1088 13.6347 32.6649 16.2569 35.2871C18.8791 37.9093 22.4352 39.383 26.1435 39.3843C29.8517 39.3823 33.4074 37.9084 36.0294 35.2864C38.6515 32.6643 40.1254 29.1086 40.1273 25.4005C40.1254 21.6923 38.6515 18.1366 36.0294 15.5146C33.4074 12.8925 29.8517 11.4186 26.1435 11.4167ZM23.7116 18.7126V24.7925C23.7116 25.2765 23.9037 25.741 24.2466 26.0839L29.1105 30.9478C29.4547 31.2799 29.9155 31.4635 30.3937 31.4591C30.872 31.4548 31.3294 31.2627 31.6674 30.9244C32.0054 30.586 32.197 30.1285 32.201 29.6502C32.2049 29.172 32.0208 28.7113 31.6884 28.3675L27.3595 24.0386V18.7126C27.3595 18.2288 27.1673 17.7649 26.8253 17.4228C26.4832 17.0808 26.0193 16.8886 25.5355 16.8886C25.0518 16.8886 24.5879 17.0808 24.2458 17.4228C23.9037 17.7649 23.7116 18.2288 23.7116 18.7126Z" />
</svg>