<svg width="50" height="72" viewBox="0 0 50 72" fill="none" xmlns="http://www.w3.org/2000/svg">
<path fill-rule="evenodd" clip-rule="evenodd" d="M8.7625 0.0393081C8.45816 -0.0201454 8.14437 -0.0120716 7.84354 0.0629528C7.54271 0.137977 7.26227 0.2781 7.02225 0.473311C6.78222 0.668522 6.58854 0.914003 6.45505 1.19222C6.32155 1.47043 6.25154 1.77451 6.25 2.08273V3.44501C6.25 3.9941 6.03051 4.52069 5.63981 4.90896C5.2491 5.29722 4.7192 5.51534 4.16667 5.51534H2.08333C1.5308 5.51534 1.0009 5.73347 0.610195 6.12173C0.219494 6.50999 0 7.03659 0 7.58568V11.4117C0 11.9607 0.219494 12.4873 0.610195 12.8756C1.0009 13.2639 1.5308 13.482 2.08333 13.482H4.16667C4.7192 13.482 5.2491 13.7001 5.63981 14.0884C6.03051 14.4766 6.25 15.0032 6.25 15.5523V17.8504C6.25 18.7965 6.89583 19.6247 7.82083 19.8503C21.2917 23.1297 29.325 23.1318 42.2 19.8607C42.6441 19.7467 43.0375 19.4892 43.3181 19.1286C43.5988 18.768 43.7507 18.3249 43.75 17.869V15.5523C43.75 15.0032 43.9695 14.4766 44.3602 14.0884C44.7509 13.7001 45.2808 13.482 45.8333 13.482H47.9167C48.4692 13.482 48.9991 13.2639 49.3898 12.8756C49.7805 12.4873 50 11.9607 50 11.4117V7.58568C50 7.03659 49.7805 6.50999 49.3898 6.12173C48.9991 5.73347 48.4692 5.51534 47.9167 5.51534H45.8333C45.2808 5.51534 44.7509 5.29722 44.3602 4.90896C43.9695 4.52069 43.75 3.9941 43.75 3.44501V2.08894C43.75 0.774276 42.5312 -0.204992 41.2333 0.0455186C28.9333 2.4264 21.0583 2.39535 8.7625 0.0393081ZM14.5833 7.81962C14.5833 7.27054 14.3638 6.74394 13.9731 6.35568C13.5824 5.96741 13.0525 5.74929 12.5 5.74929C11.9475 5.74929 11.4176 5.96741 11.0269 6.35568C10.6362 6.74394 10.4167 7.27054 10.4167 7.81962V14.0306C10.4167 14.5797 10.6362 15.1063 11.0269 15.4946C11.4176 15.8828 11.9475 16.101 12.5 16.101C13.0525 16.101 13.5824 15.8828 13.9731 15.4946C14.3638 15.1063 14.5833 14.5797 14.5833 14.0306V7.81962ZM8.7625 24.8833C8.45816 24.8239 8.14437 24.8319 7.84354 24.907C7.54271 24.982 7.26227 25.1221 7.02225 25.3173C6.78222 25.5125 6.58854 25.758 6.45505 26.0362C6.32155 26.3144 6.25154 26.6185 6.25 26.9267V28.289C6.25 28.8381 6.03051 29.3647 5.63981 29.753C5.2491 30.1412 4.7192 30.3594 4.16667 30.3594H2.08333C1.5308 30.3594 1.0009 30.5775 0.610195 30.9657C0.219494 31.354 0 31.8806 0 32.4297V36.2557C0 36.8048 0.219494 37.3314 0.610195 37.7196C1.0009 38.1079 1.5308 38.326 2.08333 38.326H4.16667C4.7192 38.326 5.2491 38.5441 5.63981 38.9324C6.03051 39.3207 6.25 39.8473 6.25 40.3963V42.6944C6.25 43.6406 6.89583 44.4687 7.82083 44.6944C21.2917 47.9738 29.325 47.9758 42.2 44.7068C42.6445 44.5927 43.0381 44.3349 43.3188 43.9738C43.5994 43.6128 43.7512 43.1692 43.75 42.713V40.3963C43.75 39.8473 43.9695 39.3207 44.3602 38.9324C44.7509 38.5441 45.2808 38.326 45.8333 38.326H47.9167C48.4692 38.326 48.9991 38.1079 49.3898 37.7196C49.7805 37.3314 50 36.8048 50 36.2557V32.4297C50 31.8806 49.7805 31.354 49.3898 30.9657C48.9991 30.5775 48.4692 30.3594 47.9167 30.3594H45.8333C45.2808 30.3594 44.7509 30.1412 44.3602 29.753C43.9695 29.3647 43.75 28.8381 43.75 28.289V26.933C43.75 25.6183 42.5312 24.639 41.2333 24.8895C28.9333 27.2704 21.0583 27.2394 8.7625 24.8833ZM14.5833 32.6636C14.5833 32.1146 14.3638 31.588 13.9731 31.1997C13.5824 30.8114 13.0525 30.5933 12.5 30.5933C11.9475 30.5933 11.4176 30.8114 11.0269 31.1997C10.6362 31.588 10.4167 32.1146 10.4167 32.6636V38.8746C10.4167 39.4237 10.6362 39.9503 11.0269 40.3386C11.4176 40.7269 11.9475 40.945 12.5 40.945C13.0525 40.945 13.5824 40.7269 13.9731 40.3386C14.3638 39.9503 14.5833 39.4237 14.5833 38.8746V32.6636ZM8.7625 49.7273C8.45816 49.6679 8.14437 49.676 7.84354 49.751C7.54271 49.826 7.26227 49.9661 7.02225 50.1613C6.78222 50.3566 6.58854 50.602 6.45505 50.8802C6.32155 51.1585 6.25154 51.4625 6.25 51.7708V53.133C6.25 53.6821 6.03051 54.2087 5.63981 54.597C5.2491 54.9852 4.7192 55.2034 4.16667 55.2034H2.08333C1.5308 55.2034 1.0009 55.4215 0.610195 55.8098C0.219494 56.198 0 56.7246 0 57.2737V61.0997C0 61.6488 0.219494 62.1754 0.610195 62.5636C1.0009 62.9519 1.5308 63.17 2.08333 63.17H4.16667C4.7192 63.17 5.2491 63.3881 5.63981 63.7764C6.03051 64.1647 6.25 64.6913 6.25 65.2404V67.5384C6.25 68.4846 6.89583 69.3127 7.82083 69.5384C21.2917 72.8178 29.325 72.8198 42.2 69.5487C42.6441 69.4348 43.0375 69.1772 43.3181 68.8166C43.5988 68.456 43.7507 68.0129 43.75 67.5571V65.2404C43.75 64.6913 43.9695 64.1647 44.3602 63.7764C44.7509 63.3881 45.2808 63.17 45.8333 63.17H47.9167C48.4692 63.17 48.9991 62.9519 49.3898 62.5636C49.7805 62.1754 50 61.6488 50 61.0997V57.2737C50 56.7246 49.7805 56.198 49.3898 55.8098C48.9991 55.4215 48.4692 55.2034 47.9167 55.2034H45.8333C45.2808 55.2034 44.7509 54.9852 44.3602 54.597C43.9695 54.2087 43.75 53.6821 43.75 53.133V51.777C43.75 50.4623 42.5312 49.483 41.2333 49.7335C28.9333 52.1144 21.0583 52.0834 8.7625 49.7273ZM14.5833 57.5077C14.5833 56.9586 14.3638 56.432 13.9731 56.0437C13.5824 55.6554 13.0525 55.4373 12.5 55.4373C11.9475 55.4373 11.4176 55.6554 11.0269 56.0437C10.6362 56.432 10.4167 56.9586 10.4167 57.5077V63.7187C10.4167 64.2677 10.6362 64.7943 11.0269 65.1826C11.4176 65.5709 11.9475 65.789 12.5 65.789C13.0525 65.789 13.5824 65.5709 13.9731 65.1826C14.3638 64.7943 14.5833 64.2677 14.5833 63.7187V57.5077Z" fill="black"/>
</svg>
