<?xml version="1.0" encoding="UTF-8"?>
<svg width="1200pt" height="1200pt" version="1.1" viewBox="0 0 1200 1200" xmlns="http://www.w3.org/2000/svg">
 <path d="m504 186.38v-61.074c0-6.6289 5.3711-12 12-12h168c6.6289 0 12 5.3711 12 12v61.074c0 6.6289-5.3711 12-12 12h-168c-6.6289 0-12-5.3711-12-12zm412.05 618.46c4.7617 6.9922 15.07 6.9922 19.832 0l100.02-146.78c5.4297-7.9648-0.27734-18.758-9.918-18.758h-42.34c-6.6289 0-12-5.3711-12-12l0.003906-243.43c0-6.6289-5.3711-12-12-12h-67.344c-6.6289 0-12 5.3711-12 12v243.43c0 6.6289-5.3711 12-12 12h-42.34c-9.6406 0-15.344 10.789-9.918 18.758zm199.95 245.87h-252.89c-12.398 0-23.848-5.168-31.406-14.18-49.746-59.266-130.36-97.562-213.7-102.44v-99.605h42.789c6.6289 0 12-5.3711 12-12v-16.758c-1.0898 0.074219-2.125 0.32812-3.2344 0.32812h-139.11c-1.1094 0-2.1445-0.25391-3.2344-0.32812v16.758c0 6.6289 5.3711 12 12 12h42.793v99.605c-83.352 4.875-163.96 43.172-213.69 102.43-7.5703 9.0234-19.02 14.191-31.418 14.191h-252.89c-9.9453 0-18 8.0625-18 18s8.0547 18 18 18h252.89c23.062 0 44.566-9.8555 58.992-27.047 46.652-55.594 124.87-90.129 204.12-90.129 79.254 0 157.46 34.535 204.13 90.141 14.426 17.18 35.918 27.035 58.98 27.035h252.89c9.9375 0 18-8.0625 18-18s-8.0625-18-18-18zm-437.47-530.19c1.0391 0 2.0078-0.24219 3.0273-0.30469v237.84c0 6.6289-5.3711 12-12 12h-139.11c-6.6289 0-12-5.3711-12-12v-237.84c1.0195 0.066407 1.9922 0.30469 3.0273 0.30469zm-49.055 178.16c0-9.9375-8.0625-18-18-18h-22.945c-9.9453 0-18 8.0625-18 18s8.0547 18 18 18h22.945c9.9375 0 18-8.0625 18-18zm0-71.391c0-9.9375-8.0625-18-18-18h-22.945c-9.9453 0-18 8.0625-18 18s8.0547 18 18 18h22.945c9.9375 0 18-8.0625 18-18zm0-71.383c0-9.9453-8.0625-18-18-18h-22.945c-9.9453 0-18 8.0547-18 18 0 9.9453 8.0547 18 18 18h22.945c9.9375 0 18-8.0586 18-18zm61.055-83.383v-238.8c-2.1523 0.29688-4.293 0.66016-6.5273 0.66016h-168c-2.2344 0-4.375-0.36328-6.5273-0.66016v238.8c0 6.6289 5.3711 12 12 12h157.06c6.625 0 11.996-5.3711 11.996-12z" fill='#E03339'/>
</svg>
