<svg width="64" height="64" viewBox="0 0 64 64"  xmlns="http://www.w3.org/2000/svg">
<path d="M8.24992 47.8333H9.83325V49.4166C9.83701 50.6752 10.3387 51.8812 11.2286 52.7712C12.1186 53.6612 13.3246 54.1628 14.5833 54.1666H16.1666V55.7499C16.1691 57.8488 17.004 59.861 18.4881 61.3451C19.9722 62.8292 21.9844 63.6641 24.0833 63.6666H41.4999C43.5988 63.6641 45.611 62.8292 47.0951 61.3451C48.5792 59.861 49.4141 57.8488 49.4166 55.7499V46.2499C50.2564 46.2499 51.0619 45.9163 51.6558 45.3224C52.2496 44.7286 52.5833 43.9231 52.5833 43.0833V33.5833C52.5833 32.7434 52.2496 31.9379 51.6558 31.3441C51.0619 30.7502 50.2564 30.4166 49.4166 30.4166V16.9583C49.4166 15.4885 50.0004 14.079 51.0397 13.0397C52.079 12.0004 53.4885 11.4166 54.9583 11.4166C56.428 11.4166 57.8375 12.0004 58.8768 13.0397C59.9161 14.079 60.4999 15.4885 60.4999 16.9583V43.0833C60.4999 43.5032 60.6667 43.9059 60.9637 44.2028C61.2606 44.4998 61.6633 44.6666 62.0833 44.6666C62.5032 44.6666 62.9059 44.4998 63.2028 44.2028C63.4998 43.9059 63.6666 43.5032 63.6666 43.0833V16.9583C63.6666 14.6487 62.7491 12.4337 61.116 10.8005C59.4828 9.1674 57.2678 8.24992 54.9583 8.24992C52.6487 8.24992 50.4337 9.1674 48.8005 10.8005C47.1674 12.4337 46.2499 14.6487 46.2499 16.9583V30.4166C45.4101 30.4166 44.6046 30.7502 44.0107 31.3441C43.4169 31.9379 43.0833 32.7434 43.0833 33.5833V43.0833C43.0833 43.9231 43.4169 44.7286 44.0107 45.3224C44.6046 45.9163 45.4101 46.2499 46.2499 46.2499V55.7499C46.2499 57.0097 45.7495 58.2179 44.8587 59.1087C43.9679 59.9995 42.7597 60.4999 41.4999 60.4999H24.0833C22.8235 60.4999 21.6153 59.9995 20.7245 59.1087C19.8337 58.2179 19.3333 57.0097 19.3333 55.7499V54.1666H20.9166C22.1752 54.1628 23.3812 53.6612 24.2712 52.7712C25.1612 51.8812 25.6628 50.6752 25.6666 49.4166V47.8333H27.2499C29.3496 47.8333 31.3632 46.9992 32.8478 45.5145C34.3325 44.0299 35.1666 42.0162 35.1666 39.9166V8.24992C35.1666 6.15029 34.3325 4.13665 32.8478 2.65199C31.3632 1.16733 29.3496 0.333252 27.2499 0.333252H8.24992C6.15029 0.333252 4.13665 1.16733 2.65199 2.65199C1.16733 4.13665 0.333252 6.15029 0.333252 8.24992V39.9166C0.333252 42.0162 1.16733 44.0299 2.65199 45.5145C4.13665 46.9992 6.15029 47.8333 8.24992 47.8333ZM22.4999 49.4166C22.4999 49.8365 22.3331 50.2392 22.0362 50.5362C21.7392 50.8331 21.3365 50.9999 20.9166 50.9999H14.5833C14.1633 50.9999 13.7606 50.8331 13.4637 50.5362C13.1667 50.2392 12.9999 49.8365 12.9999 49.4166V47.8333H22.4999V49.4166ZM8.24992 3.49992H27.2499C28.5085 3.50368 29.7145 4.00533 30.6045 4.89531C31.4945 5.7853 31.9962 6.9913 31.9999 8.24992V11.4166H3.49992V8.24992C3.50368 6.9913 4.00533 5.7853 4.89531 4.89531C5.7853 4.00533 6.9913 3.50368 8.24992 3.49992Z" />
</svg>
