<svg width="101" height="43" viewBox="0 0 101 43"  xmlns="http://www.w3.org/2000/svg">
<path d="M29.2235 22.3996L22.6316 28.9916C22.2682 29.3549 21.7921 29.5366 21.3159 29.5366C20.8398 29.5366 20.3636 29.3549 20.0003 28.9916C19.2738 28.265 19.2738 27.087 20.0003 26.3604L23.4162 22.9446H1.86053C0.832992 22.9446 0 22.1116 0 21.0841C0 20.0565 0.832992 19.2235 1.86053 19.2235H23.4162L20.0003 15.8077C19.2738 15.0811 19.2738 13.9031 20.0003 13.1765C20.727 12.4499 21.9049 12.4499 22.6316 13.1765L29.2235 19.7685C29.9501 20.495 29.9501 21.6731 29.2235 22.3996Z" />
<path d="M71.7765 22.3996L78.3684 28.9916C78.7318 29.3549 79.2079 29.5366 79.6841 29.5366C80.1602 29.5366 80.6364 29.3549 80.9997 28.9916C81.7262 28.265 81.7262 27.087 80.9997 26.3604L77.5838 22.9446H99.1395C100.167 22.9446 101 22.1116 101 21.0841C101 20.0565 100.167 19.2235 99.1395 19.2235H77.5838L80.9997 15.8077C81.7262 15.0811 81.7262 13.9031 80.9997 13.1765C80.273 12.4499 79.0951 12.4499 78.3684 13.1765L71.7765 19.7685C71.0499 20.495 71.0499 21.6731 71.7765 22.3996Z" />
<path d="M36.6794 2C45.9402 16.1135 46.1065 24.4693 36.6794 40.2737M63.7896 2.00001C55.5313 18.5997 55.5242 26.4967 63.7895 40.2737"  stroke-width="4" stroke-linecap="round"/>
</svg>
