<svg xmlns="http://www.w3.org/2000/svg" width="64" height="90" viewBox="0 0 64 90" version="1.1"><path d="M 28.631 1.512 C 25.647 4.496, 15.197 19.657, 10.604 27.667 C 8.029 32.158, 4.545 39.583, 2.863 44.167 C 0.167 51.514, -0.146 53.457, 0.215 60.589 C 0.554 67.284, 1.148 69.609, 3.661 74.089 C 11.052 87.260, 28.630 93.521, 43.433 88.255 C 49.717 86.020, 57.990 78.503, 60.991 72.302 C 62.270 69.661, 63.694 66.719, 64.158 65.764 C 65.219 63.575, 65.248 49.062, 64.187 50.731 C 63.692 51.511, 62.960 50.300, 62.194 47.435 C 60.289 40.312, 54.595 29.094, 47.158 17.810 C 35.939 0.787, 32.437 -2.294, 28.631 1.512 M 24.312 19.805 C 5.708 47.767, 2.533 63.625, 13.293 74.834 C 18.751 80.521, 23.497 82.454, 32 82.454 C 40.975 82.454, 45.903 80.268, 51.397 73.850 C 59.197 64.737, 58.803 54.508, 49.977 36.954 C 46.067 29.177, 35.114 12.169, 32.755 10.211 C 31.710 9.344, 29.915 11.385, 24.312 19.805 M 0.343 58.500 C 0.346 62.900, 0.522 64.576, 0.733 62.224 C 0.945 59.872, 0.942 56.272, 0.727 54.224 C 0.512 52.176, 0.339 54.100, 0.343 58.500" stroke="none" fill="#000000" fill-rule="evenodd"/><path d="M 11.939 50.618 C 11.327 52.203, 10.999 56.303, 11.210 59.729 C 11.914 71.198, 20.331 79, 32 79 C 43.669 79, 52.086 71.198, 52.790 59.729 C 53.001 56.303, 52.673 52.203, 52.061 50.618 C 51.019 47.917, 50.836 47.838, 49.146 49.368 C 46.934 51.370, 43.119 51.472, 40.446 49.600 C 38.733 48.400, 38.174 48.400, 36.532 49.600 C 33.964 51.478, 29.515 51.372, 27.528 49.385 C 26.041 47.898, 25.771 47.898, 24.127 49.385 C 21.829 51.465, 17.161 51.456, 14.854 49.368 C 13.164 47.838, 12.981 47.917, 11.939 50.618" stroke="none" fill="#c40c0c" fill-rule="evenodd"/></svg>