<svg xmlns="http://www.w3.org/2000/svg" width="64" height="107" viewBox="0 0 64 107" version="1.1"><path d="M 7 8.500 C 7 13, 7 13, 32 13 C 57 13, 57 13, 57 8.500 C 57 4, 57 4, 32 4 C 7 4, 7 4, 7 8.500 M 13.778 22.958 C 13.438 26.499, 12.266 29.428, 9.676 33.208 C 6.978 37.145, 5.880 39.972, 5.387 44.250 C 4.725 50, 4.725 50, 24.781 50 C 35.811 50, 45.548 50.273, 46.418 50.607 C 47.783 51.131, 48 53.784, 48 69.907 C 48 83.113, 47.648 88.952, 46.800 89.800 C 45.945 90.655, 39.751 91, 25.281 91 C 4.962 91, 4.962 91, 5.580 93.750 C 5.920 95.263, 7.304 97.513, 8.655 98.750 C 11.039 100.933, 11.732 101, 32 101 C 61.009 101, 58.500 104.152, 58.500 67.707 C 58.500 39.242, 58.500 39.242, 54.599 33.579 C 51.742 29.430, 50.571 26.589, 50.222 22.958 C 49.746 18, 49.746 18, 32 18 C 14.254 18, 14.254 18, 13.778 22.958" stroke="none" fill="#ffffff" fill-rule="evenodd"/><path d="M 5 57.500 C 5 58.756, 7.102 59, 17.918 59 C 32.215 59, 34 59.345, 34 62.107 C 34 63.877, 33.060 64, 19.500 64 C 5.734 64, 5 64.100, 5 65.973 C 5 67.831, 5.827 67.961, 19.250 68.223 C 32.741 68.485, 33.500 68.607, 33.500 70.500 C 33.500 72.393, 32.741 72.515, 19.250 72.777 C 5.827 73.039, 5 73.169, 5 75.027 C 5 76.900, 5.734 77, 19.500 77 C 33.333 77, 34 77.092, 34 79 C 34 80.908, 33.333 81, 19.500 81 C 5.667 81, 5 81.092, 5 83 C 5 84.928, 5.667 85, 23.500 85 C 42 85, 42 85, 42 70.500 C 42 56, 42 56, 23.500 56 C 7.722 56, 5 56.221, 5 57.500" stroke="none" fill="#fefb00" fill-rule="evenodd"/><path d="M 6.286 8.500 C 6.294 11.250, 6.488 12.256, 6.718 10.736 C 6.947 9.216, 6.941 6.966, 6.704 5.736 C 6.467 4.506, 6.279 5.750, 6.286 8.500 M 57.286 8.500 C 57.294 11.250, 57.488 12.256, 57.718 10.736 C 57.947 9.216, 57.941 6.966, 57.704 5.736 C 57.467 4.506, 57.279 5.750, 57.286 8.500 M 13.079 24.583 C 13.127 25.748, 13.364 25.985, 13.683 25.188 C 13.972 24.466, 13.936 23.603, 13.604 23.271 C 13.272 22.939, 13.036 23.529, 13.079 24.583 M 50.079 24.583 C 50.127 25.748, 50.364 25.985, 50.683 25.188 C 50.972 24.466, 50.936 23.603, 50.604 23.271 C 50.272 22.939, 50.036 23.529, 50.079 24.583 M 12 28.500 C 12 28.775, 12.225 29, 12.500 29 C 12.775 29, 13 28.775, 13 28.500 C 13 28.225, 12.775 28, 12.500 28 C 12.225 28, 12 28.225, 12 28.500 M 51 28.500 C 51 28.775, 51.225 29, 51.500 29 C 51.775 29, 52 28.775, 52 28.500 C 52 28.225, 51.775 28, 51.500 28 C 51.225 28, 51 28.225, 51 28.500 M 11 30.500 C 11 30.775, 11.225 31, 11.500 31 C 11.775 31, 12 30.775, 12 30.500 C 12 30.225, 11.775 30, 11.500 30 C 11.225 30, 11 30.225, 11 30.500 M 52 30.500 C 52 30.775, 52.225 31, 52.500 31 C 52.775 31, 53 30.775, 53 30.500 C 53 30.225, 52.775 30, 52.500 30 C 52.225 30, 52 30.225, 52 30.500 M 7.405 35.155 C 6.962 35.870, 7.130 36.038, 7.845 35.595 C 8.998 34.883, 9.393 34, 8.559 34 C 8.316 34, 7.797 34.520, 7.405 35.155 M 55.500 35 C 55.840 35.550, 56.343 36, 56.618 36 C 56.893 36, 56.840 35.550, 56.500 35 C 56.160 34.450, 55.657 34, 55.382 34 C 55.107 34, 55.160 34.450, 55.500 35 M 6 37.500 C 6 37.775, 6.225 38, 6.500 38 C 6.775 38, 7 37.775, 7 37.500 C 7 37.225, 6.775 37, 6.500 37 C 6.225 37, 6 37.225, 6 37.500 M 57 37.500 C 57 37.775, 57.225 38, 57.500 38 C 57.775 38, 58 37.775, 58 37.500 C 58 37.225, 57.775 37, 57.500 37 C 57.225 37, 57 37.225, 57 37.500 M 5.158 41 C 5.158 42.375, 5.385 42.938, 5.662 42.250 C 5.940 41.563, 5.940 40.438, 5.662 39.750 C 5.385 39.063, 5.158 39.625, 5.158 41 M 58.158 41 C 58.158 42.375, 58.385 42.938, 58.662 42.250 C 58.940 41.563, 58.940 40.438, 58.662 39.750 C 58.385 39.063, 58.158 39.625, 58.158 41 M 47 51.500 C 47 51.775, 47.225 52, 47.500 52 C 47.775 52, 48 51.775, 48 51.500 C 48 51.225, 47.775 51, 47.500 51 C 47.225 51, 47 51.225, 47 51.500 M 4 57.500 C 4 60, 4 60, 18.250 59.781 C 32.500 59.561, 32.500 59.561, 18.750 59.252 C 7.452 58.999, 5 58.681, 5 57.472 C 5 56.229, 7.880 56, 23.500 56 C 42 56, 42 56, 42 70.500 C 42 85, 42 85, 23.570 85 C 5.909 85, 5.120 84.916, 4.686 82.985 C 4.310 81.308, 4.256 81.350, 4.367 83.235 C 4.500 85.500, 4.500 85.500, 23.500 85.500 C 42.500 85.500, 42.500 85.500, 42.776 70.250 C 43.052 55, 43.052 55, 23.526 55 C 4 55, 4 55, 4 57.500 M 33 60.500 C 33 60.775, 33.225 61, 33.500 61 C 33.775 61, 34 60.775, 34 60.500 C 34 60.225, 33.775 60, 33.500 60 C 33.225 60, 33 60.225, 33 60.500 M 33 63.500 C 33 63.775, 33.225 64, 33.500 64 C 33.775 64, 34 63.775, 34 63.500 C 34 63.225, 33.775 63, 33.500 63 C 33.225 63, 33 63.225, 33 63.500 M 4.158 66 C 4.158 67.375, 4.385 67.938, 4.662 67.250 C 4.940 66.563, 4.940 65.438, 4.662 64.750 C 4.385 64.063, 4.158 64.625, 4.158 66 M 32 68.500 C 32 68.775, 32.225 69, 32.500 69 C 32.775 69, 33 68.775, 33 68.500 C 33 68.225, 32.775 68, 32.500 68 C 32.225 68, 32 68.225, 32 68.500 M 4.136 74.750 C 4.251 77.067, 4.340 77.150, 4.702 75.277 C 5.119 73.122, 5.567 73.045, 19.316 72.747 C 33.500 72.441, 33.500 72.441, 18.750 72.220 C 4 72, 4 72, 4.136 74.750 M 33 77.500 C 33 77.775, 33.225 78, 33.500 78 C 33.775 78, 34 77.775, 34 77.500 C 34 77.225, 33.775 77, 33.500 77 C 33.225 77, 33 77.225, 33 77.500 M 33 80.500 C 33 80.775, 33.225 81, 33.500 81 C 33.775 81, 34 80.775, 34 80.500 C 34 80.225, 33.775 80, 33.500 80 C 33.225 80, 33 80.225, 33 80.500 M 15.750 90.746 C 21.388 90.924, 30.612 90.924, 36.250 90.746 C 41.888 90.568, 37.275 90.422, 26 90.422 C 14.725 90.422, 10.112 90.568, 15.750 90.746 M 5 94 C 5 94.733, 5.300 95.033, 5.667 94.667 C 6.033 94.300, 6.033 93.700, 5.667 93.333 C 5.300 92.967, 5 93.267, 5 94 M 58 94 C 58 94.733, 58.300 95.033, 58.667 94.667 C 59.033 94.300, 59.033 93.700, 58.667 93.333 C 58.300 92.967, 58 93.267, 58 94 M 7.500 99 C 7.840 99.550, 8.343 100, 8.618 100 C 8.893 100, 8.840 99.550, 8.500 99 C 8.160 98.450, 7.657 98, 7.382 98 C 7.107 98, 7.160 98.450, 7.500 99 M 55.405 99.155 C 54.962 99.870, 55.130 100.038, 55.845 99.595 C 56.480 99.203, 57 98.684, 57 98.441 C 57 97.607, 56.117 98.002, 55.405 99.155 M 10 100.500 C 10 100.775, 10.225 101, 10.500 101 C 10.775 101, 11 100.775, 11 100.500 C 11 100.225, 10.775 100, 10.500 100 C 10.225 100, 10 100.225, 10 100.500 M 53 100.500 C 53 100.775, 53.225 101, 53.500 101 C 53.775 101, 54 100.775, 54 100.500 C 54 100.225, 53.775 100, 53.500 100 C 53.225 100, 53 100.225, 53 100.500 M 22.250 101.746 C 27.612 101.925, 36.387 101.925, 41.750 101.746 C 47.112 101.566, 42.725 101.419, 32 101.419 C 21.275 101.419, 16.887 101.566, 22.250 101.746" stroke="none" fill="#94920c" fill-rule="evenodd"/><path d="M 2 8.500 C 2 17, 2 17, 5.127 17 C 8.254 17, 8.254 17, 7.769 21.750 C 7.435 25.019, 6.149 28.168, 3.642 31.850 C 0 37.201, 0 37.201, 0 67.196 C 0 100.769, 0.037 100.966, 7.046 104.906 C 10.503 106.849, 12.307 107, 32 107 C 51.537 107, 53.517 106.837, 56.864 104.954 C 58.864 103.828, 61.512 101.359, 62.750 99.468 C 64.958 96.093, 65 95.460, 65 65.847 C 65 49.248, 64.727 35.940, 64.393 36.274 C 64.058 36.608, 62.195 34.546, 60.250 31.691 C 57.843 28.155, 56.561 24.985, 56.231 21.750 C 55.746 17, 55.746 17, 58.873 17 C 62 17, 62 17, 62 8.500 C 62 0, 62 0, 32 0 C 2 0, 2 0, 2 8.500 M 6 8.500 C 6 13, 6 13, 32 13 C 58 13, 58 13, 58 8.500 C 58 4, 58 4, 32 4 C 6 4, 6 4, 6 8.500 M 13.520 22.858 C 13.152 25.529, 11.872 29.200, 10.676 31.015 C 9.479 32.830, 7.715 35.482, 6.755 36.907 C 5.649 38.551, 5.009 41.421, 5.005 44.750 C 5 50, 5 50, 25.378 50 C 41.485 50, 45.995 50.289, 46.901 51.380 C 47.693 52.335, 47.962 58.428, 47.773 71.130 C 47.500 89.500, 47.500 89.500, 26.711 89.770 C 3.803 90.068, 3.573 90.140, 6.058 96.141 C 8.163 101.222, 11.584 102, 31.819 102 C 42.328 102, 51.013 101.543, 52.881 100.892 C 58.679 98.871, 59.001 97.076, 58.995 66.800 C 58.990 42.494, 58.798 39.216, 57.245 36.907 C 56.285 35.482, 54.521 32.830, 53.324 31.015 C 52.128 29.200, 50.848 25.529, 50.480 22.858 C 49.812 18, 49.812 18, 32 18 C 14.188 18, 14.188 18, 13.520 22.858 M 0.445 67.500 C 0.444 84.550, 0.581 91.666, 0.748 83.312 C 0.915 74.959, 0.915 61.009, 0.748 52.312 C 0.582 43.616, 0.445 50.450, 0.445 67.500 M 4 57.473 C 4 59.947, 4 59.947, 18.750 60.223 C 31.071 60.454, 33.500 60.747, 33.500 62 C 33.500 63.253, 31.071 63.546, 18.750 63.777 C 4.827 64.038, 4 64.164, 4 66.027 C 4 67.893, 4.727 68, 17.418 68 C 31.628 68, 34 68.373, 34 70.607 C 34 71.736, 31.155 72, 19 72 C 4 72, 4 72, 4 74.473 C 4 76.947, 4 76.947, 18.750 77.223 C 31.071 77.454, 33.500 77.747, 33.500 79 C 33.500 80.253, 31.064 80.546, 18.684 80.777 C 4.014 81.051, 3.871 81.076, 4.184 83.277 C 4.498 85.485, 4.626 85.500, 23.500 85.500 C 42.500 85.500, 42.500 85.500, 42.776 70.250 C 43.052 55, 43.052 55, 23.526 55 C 4 55, 4 55, 4 57.473" stroke="none" fill="#1b1b19" fill-rule="evenodd"/></svg>