<svg xmlns="http://www.w3.org/2000/svg" width="90" height="82" viewBox="0 0 90 82" version="1.1"><path d="M 32.684 1.449 C 30.585 2.197, 28.092 3.512, 27.143 4.371 C 26.194 5.229, 23.046 6.440, 20.146 7.062 C 13.919 8.397, 8.567 13.099, 7.476 18.191 C 7.086 20.011, 5.870 22.351, 4.773 23.392 C -1.458 29.304, -1.685 42.883, 4.334 49.717 C 7.295 53.079, 15.257 55.363, 21.471 54.632 C 26.337 54.060, 26.764 54.187, 27.823 56.512 C 30.015 61.321, 34.345 62.909, 44.932 62.785 C 58.336 62.629, 61.027 64.682, 58.978 73.500 C 58.466 75.700, 58.037 78.538, 58.024 79.807 C 58.002 81.907, 58.383 82.087, 62.250 81.807 L 66.500 81.500 71 72.229 C 74.292 65.446, 76.358 62.439, 78.696 61.026 C 80.453 59.964, 82.627 57.972, 83.527 56.599 C 84.780 54.687, 88.337 42.895, 89.100 38.123 C 89.155 37.781, 89.594 38.625, 90.075 40 C 90.682 41.731, 90.855 40.194, 90.638 35 C 90.308 27.098, 87.834 19.910, 84.380 16.816 C 83.346 15.890, 79.728 12.426, 76.341 9.120 C 69.254 2.204, 61.775 -0.838, 55.792 0.764 C 53.982 1.248, 51.375 1.320, 50 0.922 C 45.855 -0.276, 36.744 0.001, 32.684 1.449 M 47.026 10.141 C 44.015 10.640, 41.282 11.375, 40.951 11.774 C 39.891 13.056, 30.812 35.145, 31.190 35.523 C 31.390 35.724, 33.342 35.510, 35.527 35.049 C 44.344 33.187, 47 32.927, 47 33.925 C 47 34.484, 45.921 37.317, 44.602 40.220 C 40.739 48.724, 38.831 53.574, 39.771 52.500 C 40.733 51.401, 49.053 40.126, 56.323 30.069 C 58.880 26.532, 60.866 23.543, 60.736 23.427 C 60.606 23.311, 58.250 23.591, 55.500 24.048 C 52.750 24.506, 49.222 24.908, 47.660 24.940 C 44.868 24.999, 44.931 24.867, 51.439 17 C 58.888 7.996, 58.992 8.158, 47.026 10.141 M 0.320 37 C 0.320 40.575, 0.502 42.038, 0.723 40.250 C 0.945 38.462, 0.945 35.538, 0.723 33.750 C 0.502 31.962, 0.320 33.425, 0.320 37" stroke="none" fill="#6c046c" fill-rule="evenodd"/></svg>